{"glyphs":{"0":{"ha":827,"x_min":41,"x_max":786,"o":"m 41 346 q 71 491 41 423 q 150 609 100 559 q 269 689 201 660 q 414 718 336 718 q 559 689 491 718 q 677 609 627 660 q 757 491 728 559 q 786 346 786 423 q 757 201 786 269 q 677 82 728 133 q 559 3 627 32 q 414 -26 491 -26 q 269 3 336 -26 q 150 82 201 32 q 71 201 100 133 q 41 346 41 269 m 576 158 q 620 169 599 158 q 656 201 640 179 q 681 259 671 224 q 690 346 690 295 q 681 432 690 397 q 656 490 671 468 q 620 523 640 513 q 576 533 599 533 q 533 523 554 533 q 497 490 513 513 q 472 432 481 468 q 463 346 463 397 q 472 259 463 295 q 497 201 481 224 q 533 169 513 179 q 576 158 554 158 z "},"1":{"ha":685,"x_min":0,"x_max":614,"o":"m 45 543 q 40 541 43 542 q 32 540 36 540 q 15 544 22 540 q 7 559 8 549 l 1 605 q 1 611 1 608 q 0 615 0 613 q 0 618 0 617 q 4 636 0 629 q 28 646 9 643 l 492 713 q 518 716 503 715 q 538 718 533 718 q 583 706 568 718 q 606 676 599 694 q 613 640 612 659 q 614 606 614 620 l 614 94 q 613 62 614 78 q 603 32 612 45 q 573 9 594 18 q 513 0 552 0 l 232 0 q 184 6 203 0 q 155 24 165 12 q 140 53 144 35 q 136 94 136 71 l 136 574 l 45 543 z "},"2":{"ha":708,"x_min":10,"x_max":708,"o":"m 58 0 q 39 3 45 0 q 33 18 33 7 q 38 34 33 25 q 50 52 43 42 q 106 139 81 92 q 151 235 132 186 q 181 331 170 283 q 192 419 192 378 q 186 497 192 466 q 169 548 180 528 q 142 575 158 567 q 109 583 127 583 q 91 580 100 583 q 74 573 82 576 q 59 566 66 569 q 50 562 53 562 q 41 567 43 562 l 12 612 q 10 618 10 615 q 12 624 10 622 q 15 627 14 626 q 77 665 41 648 q 154 694 113 682 q 242 712 196 705 q 335 718 288 718 q 445 708 397 718 q 528 680 492 698 q 587 637 563 662 q 627 586 612 613 q 648 528 642 558 q 654 469 654 498 q 637 375 654 423 q 583 279 620 327 q 488 183 546 231 q 347 91 429 136 q 452 96 399 94 q 551 99 506 98 q 629 102 597 101 q 670 103 661 103 q 700 97 691 103 q 708 73 708 90 l 708 27 q 707 18 708 23 q 703 9 706 14 q 692 3 699 5 q 674 0 686 0 l 58 0 z "},"3":{"ha":665,"x_min":15,"x_max":652,"o":"m 126 214 q 122 224 121 219 q 127 234 123 229 l 322 452 l 96 452 q 70 455 79 452 q 57 465 61 459 q 51 479 52 471 q 50 493 50 486 l 50 661 q 61 684 50 673 q 94 694 71 694 l 576 694 q 609 686 597 694 q 623 664 620 677 q 621 636 625 651 q 604 608 616 621 l 336 323 q 458 304 401 323 q 558 250 515 286 q 627 161 602 214 q 652 36 652 107 q 622 -89 652 -33 q 540 -185 592 -145 q 418 -248 488 -226 q 267 -271 348 -271 q 209 -268 239 -271 q 148 -259 178 -265 q 85 -245 117 -254 q 26 -225 54 -237 q 18 -219 21 -223 q 18 -208 15 -215 l 35 -155 q 41 -146 38 -147 q 47 -146 43 -146 q 59 -149 50 -146 q 81 -156 68 -153 q 109 -163 94 -160 q 142 -167 125 -167 q 198 -153 172 -167 q 242 -114 224 -140 q 271 -52 260 -88 q 281 31 281 -16 q 262 157 281 115 q 203 200 243 200 q 182 197 191 200 q 166 189 174 193 q 159 186 163 188 q 149 191 155 185 l 126 214 z "},"4":{"ha":779,"x_min":21,"x_max":779,"o":"m 765 97 q 779 83 779 97 l 779 15 q 765 0 779 0 l 672 0 l 672 -218 q 665 -242 672 -234 q 639 -250 659 -250 l 568 -250 q 546 -240 551 -250 q 541 -218 541 -230 l 541 0 l 114 0 q 42 15 63 0 q 21 59 21 29 q 26 94 21 74 l 151 600 q 164 641 157 623 q 184 671 172 659 q 218 688 197 682 q 271 694 238 694 l 463 694 q 506 689 489 694 q 533 674 524 684 q 546 654 543 665 q 550 629 550 642 q 548 605 550 617 q 543 582 546 593 l 431 97 l 541 97 l 541 291 q 546 312 541 302 q 568 321 551 321 l 642 321 q 666 314 659 321 q 672 291 672 307 l 672 97 l 765 97 z "},"5":{"ha":686,"x_min":1,"x_max":665,"o":"m 68 196 q 58 200 61 196 q 57 210 56 204 l 127 666 q 130 676 128 671 q 135 685 131 681 q 145 692 138 689 q 165 694 153 694 l 554 694 q 599 660 599 694 l 599 493 q 586 462 599 472 q 554 452 573 452 l 184 452 l 161 319 q 190 330 174 324 q 228 340 207 335 q 276 348 250 345 q 334 351 302 351 q 464 331 404 351 q 570 272 525 311 q 640 177 614 233 q 665 50 665 121 q 635 -90 665 -29 q 552 -190 606 -150 q 426 -250 499 -230 q 267 -271 353 -271 q 138 -260 205 -271 q 12 -225 71 -250 q 5 -220 9 -224 q 4 -208 1 -217 l 22 -147 q 27 -137 24 -140 q 36 -133 29 -133 q 48 -137 41 -133 q 67 -145 56 -140 q 93 -153 79 -149 q 126 -157 108 -157 q 178 -142 153 -157 q 222 -102 203 -128 q 254 -39 242 -76 q 267 45 267 -1 q 260 119 267 86 q 243 176 254 153 q 217 211 233 199 q 182 223 201 223 q 163 220 172 223 q 140 205 153 218 q 132 199 136 202 q 120 196 127 196 l 68 196 z "},"6":{"ha":814,"x_min":41,"x_max":772,"o":"m 772 325 q 745 183 772 248 q 669 72 718 119 q 553 0 621 26 q 407 -26 486 -26 q 264 1 331 -26 q 148 76 197 28 q 70 191 98 124 q 41 339 41 258 q 59 473 41 408 q 108 599 77 538 q 184 715 140 660 q 280 819 228 770 q 393 908 333 867 q 517 982 453 949 q 524 985 520 983 q 532 987 528 987 q 550 975 542 987 l 589 911 q 593 899 593 905 q 587 888 593 892 q 576 881 582 884 q 520 847 552 867 q 454 800 488 827 q 383 739 419 773 q 313 664 347 705 q 352 673 332 670 q 399 676 372 676 q 550 649 481 676 q 668 573 619 621 q 745 462 718 526 q 772 325 772 398 m 562 519 q 519 509 540 519 q 483 476 499 498 q 458 418 467 454 q 449 332 449 382 q 458 247 449 281 q 483 190 467 212 q 519 158 499 168 q 562 149 540 149 q 605 158 585 149 q 642 190 626 168 q 667 247 658 212 q 676 332 676 281 q 667 418 676 382 q 642 476 658 454 q 605 509 626 498 q 562 519 585 519 z "},"7":{"ha":699,"x_min":0,"x_max":675,"o":"m 128 -189 q 78 -165 95 -189 q 71 -104 62 -142 l 249 585 l 39 575 q 15 579 23 575 q 3 589 7 583 q 0 603 0 595 q 0 616 0 610 l 0 661 q 2 673 0 667 q 7 684 3 680 q 19 691 12 688 q 38 694 26 694 l 619 694 q 663 681 650 694 q 675 644 675 667 q 673 624 675 635 q 668 602 671 613 l 482 -115 q 450 -171 472 -154 q 398 -189 429 -189 l 128 -189 z "},"8":{"ha":802,"x_min":41,"x_max":760,"o":"m 371 -25 q 252 -11 311 -25 q 146 36 193 4 q 70 117 99 67 q 41 239 41 168 q 54 325 41 287 q 90 392 67 362 q 144 445 113 422 q 212 485 176 467 q 165 530 189 505 q 122 585 142 555 q 91 648 103 615 q 79 717 79 682 q 102 832 79 781 q 166 919 125 884 q 268 974 208 955 q 400 993 327 993 q 520 979 462 993 q 625 934 579 965 q 697 854 670 903 q 725 736 725 806 q 696 628 725 678 q 610 539 667 578 q 673 482 646 511 q 721 421 701 453 q 750 355 740 390 q 760 278 760 319 q 736 163 760 218 q 665 66 713 108 q 544 0 616 24 q 371 -25 471 -25 m 416 201 q 408 263 416 235 q 381 317 399 291 q 336 368 363 342 q 273 421 309 393 q 173 353 208 400 q 138 244 138 305 q 152 172 138 203 q 188 120 165 141 q 238 87 210 98 q 294 77 266 77 q 350 88 327 77 q 388 118 374 100 q 410 158 403 136 q 416 201 416 180 m 406 798 q 418 741 406 769 q 451 686 431 712 q 498 638 472 661 q 553 597 525 615 q 608 656 587 619 q 629 736 629 693 q 618 801 629 771 q 590 851 608 830 q 548 885 572 873 q 498 897 524 897 q 462 891 479 897 q 433 874 446 886 q 413 843 420 862 q 406 798 406 824 z "},"9":{"ha":814,"x_min":41,"x_max":772,"o":"m 41 367 q 70 504 41 439 q 148 615 98 568 q 264 691 197 663 q 407 718 331 718 q 550 693 483 718 q 666 623 616 669 q 744 512 715 577 q 772 367 772 447 q 734 168 772 263 q 631 -9 696 73 q 479 -158 566 -91 q 297 -275 393 -226 q 291 -277 294 -276 q 285 -279 288 -279 q 276 -276 279 -279 q 269 -267 273 -274 l 222 -200 q 219 -191 219 -195 q 222 -183 219 -186 q 229 -180 226 -181 q 285 -150 254 -168 q 351 -107 316 -132 q 422 -50 385 -83 q 494 26 459 -16 q 456 18 475 20 q 415 16 437 16 q 263 43 332 16 q 145 117 195 70 q 69 229 96 165 q 41 367 41 293 m 562 179 q 605 190 585 179 q 642 222 626 200 q 667 280 658 245 q 676 367 676 316 q 667 453 676 417 q 642 511 658 488 q 605 544 626 533 q 562 554 585 554 q 519 544 540 554 q 483 511 499 533 q 458 453 467 488 q 449 367 449 417 q 458 280 449 316 q 483 222 467 245 q 519 190 499 200 q 562 179 540 179 z "},"A":{"ha":847,"x_min":7,"x_max":840,"o":"m 460 974 q 481 971 472 974 q 497 960 490 968 q 510 941 504 953 q 523 911 516 928 l 834 79 q 839 62 838 70 q 840 47 840 55 q 826 12 840 23 q 795 0 811 0 l 410 0 q 381 4 393 0 q 361 15 369 9 q 348 28 353 21 q 342 40 344 35 l 335 64 l 144 64 l 140 43 q 135 25 138 33 q 128 12 132 18 q 117 3 124 6 q 98 0 110 0 l 28 0 q 7 17 7 0 q 9 32 7 23 q 16 52 12 40 l 299 909 q 322 957 309 941 q 359 974 335 972 l 460 974 m 165 147 l 312 147 l 237 412 l 165 147 z "},"B":{"ha":892,"x_min":62,"x_max":850,"o":"m 62 879 q 66 920 62 903 q 82 950 71 938 q 114 968 94 962 q 167 974 134 974 l 469 974 q 612 956 543 974 q 733 899 680 939 q 818 797 786 860 q 850 644 850 734 q 809 439 850 518 q 697 328 769 361 q 772 277 747 312 q 798 193 798 242 q 769 92 798 130 q 694 34 740 54 q 590 6 648 13 q 476 0 533 0 l 167 0 q 114 6 134 0 q 82 24 94 12 q 66 53 71 35 q 62 94 62 71 l 62 879 m 754 633 q 743 723 754 682 q 710 795 732 764 q 652 847 688 827 q 568 875 617 867 l 568 370 q 652 400 617 377 q 710 459 688 424 q 743 539 732 494 q 754 633 754 584 m 568 94 q 670 123 639 97 q 701 184 701 149 q 694 218 701 201 q 671 249 687 235 q 630 271 655 262 q 568 281 604 279 l 568 94 z "},"C":{"ha":846,"x_min":41,"x_max":826,"o":"m 554 490 q 561 346 554 406 q 579 242 568 285 q 605 174 590 200 q 637 133 621 148 q 670 114 653 119 q 701 109 686 109 q 732 113 718 109 q 756 123 745 117 q 774 133 767 129 q 785 138 781 138 q 795 132 791 138 l 824 85 q 826 79 826 81 q 823 73 826 75 q 819 68 821 71 q 765 35 798 52 q 691 5 732 18 q 599 -18 649 -9 q 493 -26 549 -26 q 389 -17 442 -26 q 286 17 336 -7 q 191 79 235 40 q 113 175 146 117 q 61 310 80 232 q 41 490 41 387 q 61 670 41 592 q 113 805 80 747 q 191 901 146 862 q 286 963 235 939 q 389 996 336 986 q 493 1006 442 1006 q 599 997 549 1006 q 691 975 649 988 q 765 944 732 961 q 819 911 798 927 q 823 906 821 909 q 826 901 826 904 q 824 894 826 898 l 795 848 q 785 842 791 842 q 774 846 781 842 q 756 856 767 850 q 732 866 745 862 q 701 871 718 871 q 670 866 686 871 q 637 846 653 861 q 605 805 621 831 q 579 737 590 779 q 561 634 568 694 q 554 490 554 573 z "},"D":{"ha":945,"x_min":62,"x_max":903,"o":"m 62 879 q 66 920 62 903 q 82 950 71 938 q 114 968 94 962 q 167 974 134 974 l 493 974 q 594 967 544 974 q 690 941 644 960 q 774 891 735 923 q 842 808 813 859 q 886 686 870 757 q 903 518 903 614 q 885 322 903 405 q 839 182 868 240 q 769 89 809 125 q 682 34 728 54 q 586 7 635 14 q 486 0 536 0 l 167 0 q 114 6 134 0 q 82 24 94 12 q 66 53 71 35 q 62 94 62 71 l 62 879 m 807 504 q 793 657 807 588 q 751 775 780 726 q 676 851 722 824 q 568 879 631 878 l 568 94 q 677 127 631 95 q 751 215 722 159 q 793 345 780 271 q 807 504 807 419 z "},"E":{"ha":888,"x_min":62,"x_max":860,"o":"m 568 633 l 568 83 q 689 100 634 93 q 735 107 712 104 q 779 113 759 110 q 812 117 798 115 q 832 118 827 118 q 852 114 844 118 q 860 96 860 109 l 860 33 q 854 11 860 21 q 825 0 848 0 l 165 0 q 114 6 134 0 q 82 24 94 12 q 66 53 71 35 q 62 94 62 71 l 62 856 q 71 918 62 895 q 96 954 80 941 q 135 970 113 966 q 186 974 158 974 l 799 974 q 828 963 822 974 q 835 940 835 953 l 835 892 q 828 874 835 878 q 809 869 821 869 q 788 871 802 869 q 756 874 774 872 q 717 880 738 877 q 675 886 696 882 q 568 903 626 893 l 568 730 l 821 730 q 835 716 835 730 l 835 648 q 821 633 835 633 l 568 633 z "},"F":{"ha":863,"x_min":62,"x_max":848,"o":"m 567 102 q 563 68 567 86 q 548 36 559 51 q 517 10 537 20 q 464 0 496 0 l 165 0 q 114 6 134 0 q 82 24 94 12 q 66 53 71 35 q 62 94 62 71 l 62 856 q 71 918 62 895 q 96 954 80 941 q 135 970 113 966 q 186 974 158 974 l 816 974 q 848 940 848 974 l 848 878 q 840 860 848 864 q 821 856 832 856 q 800 858 814 856 q 766 863 785 860 q 725 870 747 866 q 681 879 703 875 q 567 903 629 889 l 567 730 l 819 730 q 833 716 833 730 l 833 648 q 819 633 833 633 l 567 633 l 567 102 z "},"G":{"ha":920,"x_min":41,"x_max":871,"o":"m 701 871 q 670 866 686 871 q 637 848 653 861 q 605 810 621 834 q 579 747 590 786 q 561 651 568 707 q 554 518 554 595 q 561 385 554 441 q 579 287 568 328 q 605 220 590 246 q 637 179 621 194 q 670 158 653 164 q 701 153 686 153 q 739 161 722 153 l 739 421 q 744 443 739 432 q 766 453 749 453 l 838 453 q 850 452 844 453 q 861 449 856 452 q 868 439 865 446 q 871 421 871 433 l 871 32 q 868 14 871 20 q 861 4 865 7 q 850 1 856 1 q 838 0 844 0 l 766 0 q 752 3 758 0 q 744 10 747 5 q 740 21 741 15 q 739 32 739 26 l 739 52 q 691 22 718 36 q 633 -3 665 7 q 565 -20 602 -14 q 486 -26 528 -26 q 385 -18 437 -26 q 283 14 332 -9 q 190 76 234 37 q 113 176 146 115 q 61 320 80 236 q 41 518 41 405 q 61 688 41 614 q 113 816 80 762 q 191 907 146 870 q 286 965 235 943 q 389 997 336 987 q 493 1006 442 1006 q 599 997 549 1006 q 691 975 649 988 q 765 944 732 961 q 819 911 798 927 q 823 906 821 909 q 826 901 826 904 q 824 894 826 898 l 795 848 q 785 842 791 842 q 774 846 781 842 q 756 856 767 850 q 732 866 745 862 q 701 871 718 871 z "},"H":{"ha":920,"x_min":62,"x_max":895,"o":"m 684 355 l 568 355 l 568 110 q 566 75 568 94 q 552 40 563 56 q 519 12 541 23 q 457 0 496 0 l 167 0 q 114 6 134 0 q 82 24 94 12 q 66 53 71 35 q 62 94 62 71 l 62 879 q 66 920 62 903 q 82 950 71 938 q 114 968 94 962 q 167 974 134 974 l 469 974 q 529 962 509 974 q 558 933 550 951 q 568 897 567 916 q 568 861 568 878 l 568 453 l 684 453 l 684 942 q 690 964 684 954 q 713 974 696 974 l 784 974 q 796 973 790 974 q 806 969 802 972 q 813 960 810 966 q 815 942 815 954 l 815 453 l 880 453 q 895 439 895 453 l 895 370 q 880 355 895 355 l 815 355 l 815 32 q 813 14 815 20 q 806 4 810 7 q 796 1 802 1 q 784 0 790 0 l 711 0 q 689 10 694 0 q 684 32 684 20 l 684 355 z "},"I":{"ha":631,"x_min":62,"x_max":568,"o":"m 62 879 q 66 920 62 903 q 82 950 71 938 q 114 968 94 962 q 167 974 134 974 l 469 974 q 529 962 509 974 q 558 933 550 951 q 568 897 567 916 q 568 861 568 878 l 568 110 q 566 75 568 94 q 552 40 563 56 q 519 12 541 23 q 457 0 496 0 l 167 0 q 114 6 134 0 q 82 24 94 12 q 66 53 71 35 q 62 94 62 71 l 62 879 z "},"J":{"ha":750,"x_min":14,"x_max":688,"o":"m 14 93 q 16 104 14 102 q 23 106 19 106 q 49 100 31 106 q 97 94 67 94 q 182 199 182 94 l 182 880 q 184 912 182 895 q 196 942 186 928 q 226 965 206 956 q 281 974 245 974 l 583 974 q 636 968 616 974 q 668 950 656 962 q 684 920 680 938 q 688 879 688 903 l 688 341 q 669 200 688 260 q 620 100 651 141 q 549 35 589 60 q 464 -4 508 9 q 375 -22 420 -18 q 290 -26 330 -26 q 134 -15 199 -26 q 26 19 68 -3 q 18 25 22 20 q 14 41 14 29 l 14 93 z "},"K":{"ha":857,"x_min":62,"x_max":841,"o":"m 62 879 q 66 920 62 903 q 82 950 71 938 q 114 968 94 962 q 167 974 134 974 l 469 974 q 524 965 505 974 q 554 941 544 956 q 566 910 564 927 q 568 877 568 892 l 568 797 l 738 962 q 755 976 747 971 q 770 981 762 981 q 782 978 777 981 q 793 968 787 975 l 831 928 q 838 919 836 923 q 841 909 841 914 q 825 882 841 895 l 617 720 q 758 665 713 711 q 802 530 802 618 l 802 32 q 799 14 802 20 q 791 4 795 7 q 781 1 787 1 q 768 0 774 0 l 711 0 q 689 10 694 0 q 684 32 684 20 l 684 538 q 678 589 684 569 q 659 622 672 610 q 623 641 645 635 q 568 648 601 646 l 568 110 q 566 75 568 94 q 552 40 563 56 q 519 12 541 23 q 457 0 496 0 l 167 0 q 114 6 134 0 q 82 24 94 12 q 66 53 71 35 q 62 94 62 71 l 62 879 z "},"L":{"ha":804,"x_min":62,"x_max":790,"o":"m 62 879 q 66 920 62 903 q 82 950 71 938 q 114 968 94 962 q 167 974 134 974 l 469 974 q 529 962 509 974 q 558 933 550 951 q 568 897 567 916 q 568 861 568 878 l 568 93 q 655 105 615 100 q 689 110 672 107 q 721 114 707 112 q 747 117 736 116 q 764 118 759 118 q 783 114 776 118 q 790 96 790 109 l 790 33 q 780 11 790 21 q 746 0 769 0 l 165 0 q 114 6 134 0 q 82 24 94 12 q 66 53 71 35 q 62 94 62 71 l 62 879 z "},"M":{"ha":1214,"x_min":62,"x_max":1152,"o":"m 646 429 l 486 136 q 462 104 476 117 q 422 92 448 92 q 384 104 399 92 q 359 135 369 117 l 191 424 q 198 255 195 332 q 201 189 199 222 q 203 127 202 155 q 206 76 205 98 q 208 44 207 54 q 207 26 208 34 q 202 12 206 18 q 191 3 198 6 q 170 0 183 0 l 96 0 q 73 8 83 0 q 62 39 62 16 l 62 901 q 66 927 62 914 q 79 950 70 940 q 103 967 88 961 q 140 974 118 974 l 358 974 q 404 965 385 974 q 436 935 422 956 l 618 645 l 741 879 q 762 917 751 900 q 786 947 772 935 q 820 967 800 960 q 873 974 841 974 l 1054 974 q 1098 967 1080 974 q 1129 949 1117 960 q 1146 922 1141 937 q 1152 888 1152 906 l 1152 94 q 1148 56 1152 73 q 1134 26 1145 39 q 1104 7 1124 14 q 1054 0 1085 0 l 741 0 q 694 6 713 0 q 665 24 676 12 q 650 53 654 35 q 646 94 646 71 l 646 429 z "},"N":{"ha":936,"x_min":62,"x_max":873,"o":"m 840 974 q 863 966 853 974 q 873 935 873 958 l 873 50 q 826 0 873 0 l 591 0 q 554 9 568 0 q 528 29 539 18 l 180 392 q 193 230 186 304 q 197 167 195 198 q 202 109 200 136 q 206 61 204 81 q 208 32 208 41 q 204 10 210 20 q 181 0 199 0 l 96 0 q 73 8 83 0 q 62 39 62 16 l 62 924 q 118 974 62 974 l 347 974 q 390 963 373 974 q 425 935 408 952 l 755 607 q 743 756 749 688 q 738 814 741 785 q 734 869 736 844 q 730 913 732 895 q 728 942 728 932 q 732 963 726 953 q 759 974 738 974 l 840 974 z "},"O":{"ha":986,"x_min":41,"x_max":945,"o":"m 493 -26 q 384 -17 439 -26 q 279 16 330 -7 q 186 77 229 39 q 110 173 142 115 q 60 308 78 230 q 41 490 41 387 q 60 672 41 593 q 110 808 78 751 q 186 903 142 865 q 279 964 229 941 q 384 996 330 987 q 493 1006 439 1006 q 602 996 547 1006 q 707 964 657 987 q 801 903 758 941 q 876 808 844 865 q 926 672 908 751 q 945 490 945 593 q 926 309 945 387 q 876 173 908 230 q 801 77 844 115 q 707 16 758 39 q 602 -17 657 -7 q 493 -26 547 -26 m 554 490 q 567 349 554 406 q 600 257 579 292 q 647 208 621 222 q 701 193 673 193 q 755 208 729 193 q 803 257 782 222 q 836 349 823 292 q 848 490 848 406 q 836 632 848 575 q 803 724 823 689 q 755 773 782 758 q 701 787 729 787 q 647 773 673 787 q 600 724 621 758 q 567 632 579 689 q 554 490 554 575 z "},"P":{"ha":878,"x_min":62,"x_max":850,"o":"m 62 879 q 66 920 62 903 q 82 950 71 938 q 114 968 94 962 q 167 974 134 974 l 469 974 q 562 968 516 974 q 651 949 608 962 q 729 913 693 935 q 792 860 766 892 q 834 784 819 827 q 850 685 850 741 q 827 544 850 602 q 766 450 804 487 q 676 393 727 412 q 568 364 625 373 l 568 110 q 566 75 568 94 q 552 40 563 56 q 519 12 541 23 q 457 0 496 0 l 167 0 q 114 6 134 0 q 82 24 94 12 q 66 53 71 35 q 62 94 62 71 l 62 879 m 754 675 q 743 750 754 715 q 710 810 732 784 q 652 852 688 836 q 568 876 617 869 l 568 454 q 652 481 617 462 q 710 530 688 501 q 743 596 732 559 q 754 675 754 633 z "},"Q":{"ha":986,"x_min":41,"x_max":966,"o":"m 493 -26 q 384 -17 439 -26 q 279 16 330 -7 q 186 77 229 39 q 110 173 142 115 q 60 308 78 230 q 41 490 41 387 q 60 672 41 593 q 110 808 78 751 q 186 903 142 865 q 279 964 229 941 q 384 996 330 987 q 493 1006 439 1006 q 602 996 547 1006 q 707 964 657 987 q 801 903 758 941 q 876 808 844 865 q 926 672 908 751 q 945 490 945 593 q 923 293 945 376 q 863 151 901 210 l 959 15 q 966 -5 966 3 q 960 -21 966 -14 q 945 -33 954 -28 l 903 -57 q 893 -61 898 -60 q 883 -63 888 -63 q 867 -58 875 -63 q 854 -42 860 -54 l 793 70 q 725 24 761 43 q 651 -5 689 6 q 572 -21 612 -16 q 493 -26 532 -26 m 731 304 q 761 296 747 315 l 795 247 q 833 339 819 280 q 848 490 848 399 q 836 632 848 575 q 803 724 823 689 q 755 773 782 758 q 701 787 729 787 q 647 773 673 787 q 600 724 621 758 q 567 632 579 689 q 554 490 554 575 q 567 349 554 406 q 600 257 579 292 q 647 208 621 222 q 701 193 673 193 q 725 196 714 193 l 692 258 q 688 274 687 267 q 699 288 690 282 l 731 304 z "},"R":{"ha":897,"x_min":62,"x_max":883,"o":"m 676 184 q 624 161 650 170 q 568 145 597 151 l 568 94 q 564 55 568 73 q 547 26 559 38 q 516 7 535 14 q 467 0 496 0 l 167 0 q 114 6 134 0 q 82 24 94 12 q 66 53 71 35 q 62 94 62 71 l 62 879 q 66 920 62 903 q 82 950 71 938 q 114 968 94 962 q 167 974 134 974 l 469 974 q 565 966 518 974 q 655 940 612 958 q 733 892 697 922 q 794 818 768 862 q 835 716 821 774 q 850 582 850 658 q 842 464 850 517 q 819 368 833 411 q 785 293 805 326 q 741 235 765 260 l 876 56 q 883 37 883 46 q 876 20 883 27 q 861 7 869 12 l 820 -16 q 810 -21 815 -19 q 800 -22 805 -22 q 785 -18 792 -22 q 771 -1 777 -13 l 676 184 m 754 570 q 743 682 754 631 q 710 773 732 734 q 652 838 688 812 q 568 873 617 864 l 568 234 q 652 274 617 245 q 710 346 688 302 q 743 446 732 389 q 754 570 754 503 z "},"S":{"ha":877,"x_min":4,"x_max":873,"o":"m 221 741 q 261 864 229 814 q 342 943 294 913 q 449 985 390 972 q 568 997 508 997 q 665 993 618 997 q 753 983 713 989 q 822 972 793 978 q 865 964 851 967 q 873 957 873 962 q 871 949 873 956 l 861 900 q 858 894 860 895 q 853 893 855 893 q 802 883 823 893 q 766 854 780 873 q 744 811 751 836 q 734 757 736 786 l 693 264 q 663 151 688 204 q 593 59 637 98 q 483 -3 548 20 q 334 -26 418 -26 q 225 -21 277 -26 q 130 -8 173 -16 q 57 6 87 -1 q 12 17 26 14 q 4 24 4 19 q 5 32 4 25 l 17 83 q 21 89 18 88 q 25 90 23 90 q 80 99 55 90 q 125 128 106 108 q 156 181 144 149 q 174 261 169 214 l 221 741 z "},"T":{"ha":958,"x_min":14,"x_max":945,"o":"m 227 875 q 145 858 182 865 q 113 852 129 854 q 83 847 97 849 q 57 843 68 844 q 41 842 46 842 q 21 846 29 842 q 14 864 14 850 l 14 940 q 24 963 14 953 q 58 974 35 974 l 900 974 q 934 963 923 974 q 945 940 945 953 l 945 864 q 937 846 945 850 q 918 842 929 842 q 901 843 911 842 q 876 847 890 844 q 845 852 861 849 q 813 858 829 854 q 732 875 776 865 l 732 93 q 728 53 732 70 q 712 23 724 35 q 682 6 701 12 q 631 0 662 0 l 329 0 q 277 6 297 0 q 246 24 257 12 q 231 53 235 35 q 227 94 227 71 l 227 875 z "},"U":{"ha":878,"x_min":62,"x_max":815,"o":"m 815 351 q 800 215 815 273 q 759 115 785 157 q 696 46 732 73 q 618 3 661 19 q 529 -20 576 -14 q 433 -26 481 -26 q 341 -21 387 -26 q 255 0 296 -15 q 178 41 214 15 q 117 110 143 68 q 77 211 92 152 q 62 351 62 270 l 62 879 q 66 920 62 903 q 82 950 71 938 q 114 968 94 962 q 167 974 134 974 l 469 974 q 529 962 509 974 q 558 933 550 951 q 568 897 567 916 q 568 861 568 878 l 568 165 q 574 150 568 155 q 585 146 580 146 q 628 159 610 146 q 659 195 646 172 q 677 250 671 218 q 684 317 684 281 l 684 942 q 689 964 684 954 q 711 974 694 974 l 782 974 q 794 973 788 974 q 805 969 800 972 q 812 960 810 966 q 815 942 815 954 l 815 351 z "},"V":{"ha":833,"x_min":0,"x_max":832,"o":"m 604 561 l 698 918 q 703 941 701 930 q 710 958 706 951 q 722 970 715 966 q 741 974 729 974 l 810 974 q 826 970 820 974 q 832 956 832 966 q 825 922 832 943 l 542 64 q 518 16 532 33 q 475 0 504 0 l 380 0 q 355 6 365 0 q 337 21 345 12 q 326 41 330 31 q 318 62 321 52 l 7 895 q 0 926 0 912 q 15 962 0 950 q 46 974 30 974 l 431 974 q 459 970 448 974 q 479 959 471 966 q 493 942 488 952 q 502 921 498 932 l 604 561 z "},"W":{"ha":1278,"x_min":0,"x_max":1276,"o":"m 1034 494 l 1143 918 q 1149 941 1146 930 q 1156 958 1152 951 q 1166 970 1160 966 q 1185 974 1173 974 l 1252 974 q 1276 956 1276 974 q 1270 922 1276 943 l 1000 64 q 975 16 991 32 q 935 0 960 0 l 839 0 q 813 6 824 0 q 796 21 803 12 q 784 41 789 31 q 777 62 779 52 l 654 462 l 542 64 q 518 16 533 32 q 480 0 504 0 l 367 0 q 341 6 351 0 q 324 21 331 12 q 312 42 317 31 q 304 62 308 53 l 7 895 q 0 928 0 912 q 14 963 0 951 q 47 974 27 974 l 334 974 q 363 969 351 974 q 383 959 375 965 q 395 946 391 953 q 401 933 399 939 l 546 494 l 591 666 l 521 895 q 516 913 517 904 q 514 929 514 922 q 527 963 514 953 q 559 974 540 974 l 847 974 q 876 971 864 974 q 895 963 888 968 q 907 950 903 958 q 916 933 912 943 l 1034 494 z "},"X":{"ha":928,"x_min":14,"x_max":913,"o":"m 300 290 l 179 56 q 168 34 173 44 q 155 17 162 24 q 138 4 148 9 q 115 0 129 0 l 37 0 q 21 5 27 0 q 14 20 14 10 q 25 52 14 33 l 237 430 l 26 895 q 18 927 18 913 q 34 962 18 951 q 65 974 49 974 l 450 974 q 479 969 467 974 q 499 959 491 965 q 511 946 507 953 q 518 933 515 939 l 602 747 l 690 918 q 702 939 696 929 q 714 957 707 949 q 731 969 722 965 q 754 974 741 974 l 832 974 q 849 969 843 974 q 856 954 856 964 q 844 922 856 942 l 667 604 l 905 79 q 913 47 913 61 q 909 26 913 35 q 898 12 905 18 q 883 3 891 6 q 867 0 875 0 l 482 0 q 453 4 465 0 q 434 15 441 9 q 421 28 426 21 q 414 40 416 35 l 300 290 z "},"Y":{"ha":833,"x_min":0,"x_max":847,"o":"m 179 515 l 7 895 q 1 911 3 904 q 0 926 0 919 q 15 962 0 950 q 46 974 30 974 l 416 974 q 446 969 433 974 q 466 959 458 965 q 478 946 474 953 q 485 933 483 939 l 604 606 l 713 918 q 721 940 717 930 q 729 958 724 950 q 742 969 734 965 q 762 974 749 974 l 824 974 q 840 970 833 974 q 847 956 847 966 q 839 922 847 943 l 685 530 l 685 95 q 680 54 685 71 q 664 24 675 36 q 634 6 653 12 q 587 0 616 0 l 267 0 q 224 6 241 0 q 197 24 207 12 q 183 53 187 35 q 179 94 179 71 l 179 515 z "},"Z":{"ha":897,"x_min":37,"x_max":859,"o":"m 72 940 q 80 963 72 953 q 111 974 88 974 l 805 974 q 845 966 831 974 q 859 935 859 958 q 853 904 859 921 q 842 871 848 886 l 547 104 q 677 125 619 116 q 727 133 703 129 q 772 139 751 136 q 807 144 793 142 q 827 146 822 146 q 847 141 838 146 q 856 123 856 137 l 856 33 q 848 11 856 21 q 817 0 840 0 l 93 0 q 48 13 60 0 q 37 41 37 25 q 44 81 37 61 q 62 131 51 101 l 347 869 q 235 848 286 857 q 192 841 214 844 q 152 834 170 838 q 120 830 134 831 q 101 828 106 828 q 81 832 90 828 q 72 850 72 836 l 72 940 z "},"a":{"ha":875,"x_min":43,"x_max":812,"o":"m 346 0 q 272 5 309 0 q 202 20 235 9 q 139 47 168 31 q 89 90 110 64 q 55 149 67 115 q 43 227 43 182 q 65 328 43 286 q 125 397 87 370 q 212 440 163 425 q 313 459 260 455 l 313 506 q 306 548 313 532 q 289 571 299 564 q 266 582 278 579 q 241 584 253 584 q 213 580 228 584 q 183 570 197 576 q 156 557 169 564 q 134 545 143 551 q 127 541 130 543 q 120 538 123 538 q 109 547 114 538 l 85 584 q 82 594 82 589 q 86 604 82 600 q 95 610 91 608 q 152 642 117 626 q 230 671 186 659 q 323 692 273 684 q 427 701 373 701 q 526 697 477 701 q 617 683 574 694 q 696 651 661 671 q 758 596 732 630 q 798 513 784 562 q 812 394 812 463 l 812 92 q 808 52 812 69 q 793 23 804 35 q 761 6 781 12 q 708 0 741 0 l 346 0 m 313 373 q 231 361 264 373 q 177 328 197 349 q 148 281 157 308 q 139 226 139 254 q 148 172 139 197 q 177 127 157 146 q 231 98 197 109 q 313 87 264 87 l 313 373 z "},"b":{"ha":895,"x_min":62,"x_max":859,"o":"m 441 -14 q 282 10 353 -14 q 163 79 212 34 q 88 191 114 124 q 62 342 62 257 l 62 1018 q 66 1059 62 1041 q 82 1088 71 1077 q 114 1106 94 1100 q 167 1112 134 1112 l 464 1112 q 512 1106 493 1112 q 542 1088 531 1100 q 558 1058 553 1076 q 562 1016 562 1040 l 562 694 q 676 660 622 684 q 770 594 730 635 q 835 491 811 552 q 859 345 859 430 q 842 219 859 273 q 796 125 825 165 q 727 59 766 85 q 641 16 687 33 q 543 -7 594 0 q 441 -14 492 -14 m 562 83 q 653 112 615 90 q 715 168 691 134 q 751 248 739 203 q 762 345 762 292 q 751 441 762 396 q 715 522 739 487 q 653 578 690 556 q 562 608 615 601 l 562 83 z "},"c":{"ha":818,"x_min":36,"x_max":804,"o":"m 529 343 q 544 229 529 275 q 581 157 558 184 q 629 119 603 130 q 677 109 654 109 q 708 113 694 109 q 733 123 722 117 q 751 133 744 129 q 763 138 759 138 q 771 136 769 138 q 777 128 774 134 l 801 92 q 804 82 804 86 q 802 75 804 77 q 796 70 799 72 q 741 37 774 54 q 666 5 709 20 q 570 -18 623 -9 q 454 -28 517 -28 q 353 -20 404 -28 q 255 7 302 -12 q 169 54 209 25 q 99 124 129 83 q 53 219 70 165 q 36 343 36 274 q 53 467 36 412 q 99 563 70 522 q 169 632 129 604 q 255 680 209 661 q 353 706 302 698 q 454 714 404 714 q 562 706 510 714 q 657 683 613 697 q 735 653 701 669 q 792 620 770 636 q 798 615 795 618 q 800 608 800 612 q 797 598 800 603 l 773 562 q 767 554 770 556 q 759 552 765 552 q 748 556 755 552 q 731 565 741 560 q 707 575 721 570 q 677 579 694 579 q 629 568 654 579 q 581 530 603 557 q 544 457 558 503 q 529 343 529 412 z "},"d":{"ha":895,"x_min":36,"x_max":832,"o":"m 832 94 q 828 53 832 71 q 812 24 824 35 q 781 6 801 12 q 728 0 760 0 l 431 0 q 333 9 382 1 q 241 34 285 17 q 160 77 197 50 q 95 142 122 104 q 52 232 67 180 q 36 351 36 284 q 60 495 36 435 q 124 595 83 555 q 219 660 165 636 q 332 694 273 684 l 332 1016 q 336 1058 332 1040 q 350 1087 339 1076 q 380 1105 361 1099 q 431 1111 399 1111 l 728 1111 q 781 1105 760 1111 q 812 1087 801 1099 q 828 1058 824 1076 q 832 1017 832 1040 l 832 94 m 132 351 q 144 257 132 300 q 179 179 155 213 q 241 124 203 146 q 332 96 279 102 l 332 608 q 241 579 279 602 q 179 524 203 557 q 144 446 155 490 q 132 351 132 401 z "},"e":{"ha":889,"x_min":36,"x_max":853,"o":"m 677 113 q 710 118 695 113 q 737 129 725 123 q 756 140 749 135 q 768 145 764 145 q 777 143 774 145 q 783 136 779 141 l 806 99 q 810 90 810 94 q 807 82 810 85 q 802 77 804 79 q 747 44 779 62 q 671 11 714 26 q 574 -14 628 -4 q 454 -24 519 -24 q 353 -16 404 -24 q 255 10 302 -7 q 169 56 209 28 q 99 126 129 85 q 53 222 70 168 q 36 347 36 277 q 53 471 36 416 q 99 567 70 526 q 169 637 129 608 q 255 684 209 666 q 353 710 302 702 q 454 718 404 718 q 612 699 539 718 q 739 637 685 680 q 823 523 792 593 q 853 350 853 452 l 853 312 q 847 293 853 300 q 827 286 841 286 l 546 286 q 565 202 551 236 q 597 149 579 169 q 636 121 615 129 q 677 113 657 113 m 757 370 q 748 459 757 424 q 726 516 740 495 q 692 547 711 538 q 652 555 673 555 q 618 549 636 555 q 584 524 600 543 q 556 467 568 504 q 543 370 545 431 l 757 370 z "},"f":{"ha":760,"x_min":21,"x_max":760,"o":"m 592 282 l 592 95 q 589 53 592 71 q 574 23 585 35 q 544 6 564 12 q 490 0 524 0 l 196 0 q 143 6 163 0 q 111 24 123 12 q 96 53 100 35 q 92 94 92 71 l 92 282 l 35 282 q 21 297 21 282 l 21 351 q 35 366 21 366 l 92 366 l 92 775 q 107 903 92 848 q 148 996 122 957 q 210 1060 174 1035 q 286 1100 245 1085 q 370 1120 326 1114 q 457 1125 414 1125 q 535 1120 494 1125 q 615 1108 576 1116 q 686 1089 653 1100 q 743 1068 720 1079 q 754 1060 748 1065 q 760 1041 760 1055 l 760 994 q 757 983 760 985 q 751 981 753 981 q 732 985 742 981 q 701 989 722 989 q 659 980 679 989 q 624 948 639 971 q 601 886 609 925 q 592 787 592 846 l 592 366 l 728 366 q 742 351 742 366 l 742 297 q 728 282 742 282 l 592 282 z "},"g":{"ha":930,"x_min":36,"x_max":960,"o":"m 454 68 q 352 75 403 68 q 254 98 301 82 q 254 91 254 94 q 254 85 254 88 q 260 47 254 64 q 282 17 267 30 q 320 -3 296 4 q 378 -11 344 -11 q 447 -6 415 -11 q 509 3 479 -2 q 571 13 540 8 q 636 17 602 17 q 701 5 669 17 q 758 -30 733 -7 q 798 -85 783 -52 q 812 -161 812 -119 q 805 -228 812 -199 q 791 -282 798 -256 q 786 -290 789 -286 q 772 -295 782 -295 l 722 -295 q 709 -291 712 -295 q 705 -283 707 -286 q 606 -252 692 -252 q 532 -256 568 -252 q 457 -266 495 -260 q 378 -275 419 -271 q 292 -279 337 -279 q 185 -258 229 -279 q 114 -205 141 -237 q 75 -134 87 -173 q 62 -61 62 -96 q 71 7 62 -24 q 93 63 79 38 q 124 108 106 88 q 159 144 142 128 q 70 243 104 182 q 36 393 36 304 q 53 502 36 454 q 99 586 70 549 q 169 647 129 622 q 255 688 209 672 q 353 711 302 704 q 454 718 404 718 q 547 713 500 718 q 640 696 595 709 q 725 663 685 684 q 797 609 766 642 l 871 684 q 885 695 878 692 q 899 699 892 699 q 918 690 909 699 l 951 654 q 960 635 960 645 q 943 608 960 620 l 844 538 q 865 475 858 509 q 872 399 872 440 q 854 278 872 330 q 806 190 837 227 q 734 130 775 153 q 647 92 694 106 q 551 73 601 79 q 454 68 502 68 m 681 468 q 677 478 677 471 q 684 492 677 486 l 727 537 q 697 551 713 547 q 665 555 682 555 q 629 550 649 555 q 591 528 609 545 q 561 479 573 511 q 549 393 549 447 q 558 308 549 340 q 585 258 568 275 q 622 236 601 241 q 665 231 643 231 q 707 238 686 231 q 742 263 727 245 q 767 314 758 282 q 777 397 777 347 q 765 481 777 448 l 720 450 q 709 446 714 446 q 694 453 700 446 l 681 468 z "},"h":{"ha":844,"x_min":62,"x_max":782,"o":"m 562 682 q 598 701 577 693 q 644 708 619 708 q 746 663 709 708 q 782 532 782 618 l 782 32 q 779 14 782 20 q 771 4 776 7 q 761 1 767 1 q 749 0 755 0 l 705 0 q 683 10 688 0 q 677 32 677 20 l 677 538 q 664 597 677 577 q 619 618 650 618 q 588 609 604 618 q 562 591 572 601 l 562 95 q 559 54 562 71 q 547 24 557 36 q 517 6 536 12 q 466 0 498 0 l 152 0 q 108 6 125 0 q 81 24 91 12 q 66 53 71 35 q 62 94 62 71 l 62 1017 q 66 1058 62 1040 q 82 1087 71 1076 q 114 1105 94 1099 q 167 1111 134 1111 l 464 1111 q 514 1105 494 1111 q 544 1088 533 1100 q 558 1059 555 1076 q 562 1017 562 1041 l 562 682 z "},"i":{"ha":625,"x_min":62,"x_max":562,"o":"m 62 600 q 66 641 62 623 q 82 671 71 659 q 114 688 94 682 q 167 694 134 694 l 464 694 q 514 689 495 694 q 545 671 534 683 q 559 642 555 660 q 562 600 562 625 l 562 93 q 559 53 562 70 q 545 23 555 35 q 514 6 534 12 q 464 0 495 0 l 167 0 q 114 6 134 0 q 82 24 94 12 q 66 53 71 35 q 62 94 62 71 l 62 600 m 87 985 q 105 1073 87 1031 q 154 1145 123 1114 q 226 1193 184 1175 q 314 1211 267 1211 q 401 1193 360 1211 q 473 1145 442 1175 q 521 1073 503 1114 q 539 985 539 1031 q 521 898 539 939 q 473 826 503 857 q 401 778 442 795 q 314 760 360 760 q 226 778 267 760 q 154 826 184 795 q 105 898 123 857 q 87 985 87 939 z "},"j":{"ha":625,"x_min":-92,"x_max":562,"o":"m 87 985 q 105 1073 87 1031 q 154 1145 123 1114 q 226 1193 184 1175 q 314 1211 267 1211 q 401 1193 360 1211 q 473 1145 442 1175 q 521 1073 503 1114 q 539 985 539 1031 q 521 898 539 939 q 473 826 503 857 q 401 778 442 795 q 314 760 360 760 q 226 778 267 760 q 154 826 184 795 q 105 898 123 857 q 87 985 87 939 m -92 -178 q -89 -166 -92 -169 q -82 -164 -86 -164 q -74 -165 -78 -164 q -63 -168 -69 -167 q -47 -171 -56 -170 q -22 -172 -37 -172 q 62 -67 62 -172 l 62 600 q 65 632 62 616 q 77 663 67 649 q 106 686 87 677 q 161 694 126 694 l 458 694 q 511 688 490 694 q 543 670 531 682 q 558 641 554 659 q 562 600 562 623 l 562 74 q 544 -67 562 -7 q 496 -167 526 -126 q 426 -233 466 -208 q 343 -272 387 -258 q 255 -290 300 -286 q 170 -294 210 -294 q 20 -282 81 -294 q -79 -250 -40 -271 q -87 -244 -83 -248 q -92 -228 -92 -239 l -92 -178 z "},"k":{"ha":825,"x_min":62,"x_max":814,"o":"m 62 1017 q 66 1058 62 1040 q 82 1087 71 1076 q 114 1105 94 1099 q 167 1111 134 1111 l 464 1111 q 514 1105 495 1111 q 544 1087 533 1099 q 558 1058 555 1076 q 562 1017 562 1040 l 562 527 l 725 688 q 739 699 732 696 q 751 702 746 702 q 772 692 764 702 l 806 656 q 814 640 814 648 q 809 625 814 632 q 792 608 804 617 l 580 452 q 675 437 636 450 q 737 401 713 425 q 771 342 761 377 q 782 260 782 307 l 782 32 q 779 14 782 20 q 771 4 776 7 q 761 1 767 1 q 749 0 755 0 l 705 0 q 683 10 688 0 q 677 32 677 20 l 677 267 q 672 318 677 298 q 652 352 666 339 q 617 370 639 364 q 562 377 595 376 l 562 93 q 558 53 562 70 q 541 23 553 35 q 507 6 529 12 q 452 0 486 0 l 167 0 q 114 6 134 0 q 82 24 94 12 q 66 53 71 35 q 62 94 62 71 l 62 1017 z "},"l":{"ha":625,"x_min":62,"x_max":562,"o":"m 62 1017 q 66 1058 62 1040 q 82 1087 71 1076 q 114 1105 94 1099 q 167 1111 134 1111 l 464 1111 q 514 1105 495 1111 q 544 1088 533 1099 q 558 1059 555 1076 q 562 1017 562 1041 l 562 93 q 558 53 562 70 q 543 23 554 35 q 513 6 532 12 q 463 0 494 0 l 167 0 q 114 6 134 0 q 82 24 94 12 q 66 53 71 35 q 62 94 62 71 l 62 1017 z "},"m":{"ha":1064,"x_min":62,"x_max":1002,"o":"m 62 600 q 66 641 62 623 q 82 671 71 659 q 114 688 94 682 q 167 694 134 694 l 444 694 q 496 688 475 694 q 526 667 517 682 q 548 681 535 674 q 576 694 561 688 q 609 704 591 701 q 644 708 626 708 q 743 667 707 708 q 763 680 752 673 q 793 694 777 688 q 827 704 809 701 q 864 708 846 708 q 965 663 929 708 q 1002 532 1002 618 l 1002 32 q 999 14 1002 20 q 991 4 996 7 q 980 1 986 1 q 968 0 974 0 l 925 0 q 902 10 907 0 q 897 32 897 20 l 897 538 q 883 597 897 577 q 839 618 869 618 q 822 615 831 618 q 804 607 813 612 q 788 597 795 602 q 777 588 782 592 q 782 532 782 562 l 782 32 q 779 14 782 20 q 771 4 776 7 q 761 1 767 1 q 749 0 755 0 l 705 0 q 683 10 688 0 q 677 32 677 20 l 677 538 q 664 597 677 577 q 619 618 650 618 q 588 609 604 618 q 562 591 572 601 l 562 95 q 558 54 562 71 q 543 24 554 36 q 511 6 531 12 q 458 0 490 0 l 167 0 q 114 6 134 0 q 82 24 94 12 q 66 53 71 35 q 62 94 62 71 l 62 600 z "},"n":{"ha":844,"x_min":62,"x_max":782,"o":"m 62 600 q 66 641 62 623 q 82 671 71 659 q 114 688 94 682 q 167 694 134 694 l 444 694 q 497 688 475 694 q 528 667 519 682 q 550 681 537 673 q 577 694 562 688 q 609 704 592 700 q 644 708 626 708 q 746 663 709 708 q 782 532 782 618 l 782 32 q 779 14 782 20 q 771 4 776 7 q 761 1 767 1 q 749 0 755 0 l 705 0 q 683 10 688 0 q 677 32 677 20 l 677 538 q 664 597 677 577 q 619 618 650 618 q 588 609 604 618 q 562 591 572 601 l 562 95 q 558 54 562 71 q 543 24 554 36 q 511 6 531 12 q 458 0 490 0 l 167 0 q 114 6 134 0 q 82 24 94 12 q 66 53 71 35 q 62 94 62 71 l 62 600 z "},"o":{"ha":908,"x_min":36,"x_max":872,"o":"m 454 -24 q 353 -16 404 -24 q 255 10 302 -7 q 169 56 209 28 q 99 126 129 85 q 53 222 70 168 q 36 347 36 277 q 53 471 36 416 q 99 567 70 526 q 169 637 129 608 q 255 684 209 666 q 353 710 302 702 q 454 718 404 718 q 550 712 501 718 q 646 691 600 707 q 733 650 692 676 q 805 583 774 624 q 854 486 836 543 q 872 353 872 429 q 854 215 872 274 q 806 115 837 157 q 734 46 775 73 q 647 4 694 19 q 551 -18 601 -12 q 454 -24 502 -24 m 663 139 q 704 148 684 139 q 741 181 725 157 q 767 247 757 205 q 777 353 777 288 q 767 453 777 414 q 741 515 757 492 q 704 547 724 538 q 663 555 684 555 q 626 549 646 555 q 589 520 606 542 q 560 457 572 498 q 549 347 549 416 q 558 237 549 279 q 583 174 568 196 q 620 146 599 153 q 663 139 640 139 z "},"p":{"ha":895,"x_min":62,"x_max":859,"o":"m 452 710 q 551 703 502 710 q 646 678 601 695 q 730 634 692 661 q 798 567 769 607 q 842 474 826 527 q 859 351 859 420 q 834 204 859 266 q 769 100 810 142 q 675 34 728 58 q 562 0 621 9 l 562 -184 q 558 -227 562 -209 q 544 -256 554 -244 q 514 -274 533 -268 q 464 -279 494 -279 l 167 -279 q 114 -273 134 -279 q 82 -255 94 -267 q 66 -226 71 -243 q 62 -184 62 -208 l 62 358 q 89 508 62 442 q 164 618 115 574 q 287 687 214 663 q 452 710 359 710 m 762 352 q 751 449 762 404 q 715 528 739 494 q 653 585 690 563 q 562 613 615 607 l 562 87 q 653 116 615 94 q 715 174 690 138 q 751 254 739 209 q 762 352 762 300 z "},"q":{"ha":895,"x_min":36,"x_max":832,"o":"m 832 -184 q 828 -226 832 -208 q 812 -255 824 -243 q 781 -273 801 -267 q 728 -279 760 -279 l 431 -279 q 383 -274 402 -279 q 353 -257 364 -269 q 337 -227 342 -245 q 332 -185 332 -210 l 332 0 q 219 35 273 11 q 124 99 165 58 q 60 200 83 140 q 36 344 36 260 q 52 463 36 410 q 96 554 68 515 q 162 620 123 593 q 245 663 200 646 q 338 687 290 680 q 437 694 387 694 l 728 694 q 781 688 760 694 q 812 671 801 682 q 828 641 824 659 q 832 600 832 623 l 832 -184 m 132 344 q 144 249 132 293 q 179 171 155 205 q 241 115 203 137 q 332 87 279 93 l 332 597 q 241 570 279 591 q 179 515 203 549 q 144 438 155 481 q 132 344 132 395 z "},"r":{"ha":753,"x_min":62,"x_max":804,"o":"m 62 600 q 66 641 62 623 q 82 671 71 659 q 114 688 94 682 q 167 694 134 694 l 464 694 q 514 688 495 694 q 544 670 533 682 q 558 640 555 658 q 562 597 562 621 l 562 547 l 713 693 q 741 707 728 707 q 754 704 748 707 q 764 697 760 701 l 794 665 q 804 643 804 655 q 800 628 804 635 q 786 612 795 620 l 562 439 l 562 96 q 559 54 562 72 q 544 24 555 36 q 511 6 532 12 q 452 0 489 0 l 167 0 q 114 6 134 0 q 82 24 94 12 q 66 53 71 35 q 62 94 62 71 l 62 600 z "},"s":{"ha":846,"x_min":-3,"x_max":850,"o":"m 546 718 q 633 713 589 718 q 715 700 676 708 q 786 682 754 692 q 839 663 819 672 q 846 659 842 661 q 850 648 850 656 q 849 643 850 646 q 848 636 848 640 l 840 596 q 836 586 838 588 q 831 585 833 585 q 819 587 828 585 q 798 589 809 589 q 737 568 760 589 q 709 496 715 547 l 671 179 q 643 100 665 137 q 577 36 620 64 q 472 -8 534 8 q 325 -24 409 -24 q 222 -17 272 -24 q 129 -2 172 -11 q 55 17 87 7 q 8 31 24 26 q 0 35 3 33 q -3 43 -3 37 q -3 49 -3 45 q -1 57 -2 52 l 7 95 q 12 104 9 100 q 24 107 16 107 q 70 110 47 107 q 112 122 92 112 q 145 153 131 132 q 165 212 160 174 l 213 539 q 251 625 220 591 q 327 681 281 660 q 429 710 372 701 q 546 718 486 718 z "},"t":{"ha":762,"x_min":0,"x_max":721,"o":"m 14 472 q 0 487 0 472 l 0 541 q 14 555 0 555 l 85 555 l 85 709 q 88 730 85 720 q 104 745 91 740 l 479 884 q 522 898 505 893 q 551 903 538 903 q 562 901 556 903 q 573 895 568 899 q 581 884 578 891 q 585 867 585 877 l 585 555 l 707 555 q 721 541 721 555 l 721 487 q 707 472 721 472 l 585 472 l 585 199 q 601 131 585 151 q 650 111 616 111 q 665 113 657 111 q 681 116 673 115 q 694 120 688 118 q 704 121 700 121 q 711 113 711 121 l 711 60 q 706 42 711 47 q 696 36 701 37 q 636 14 671 25 q 561 -5 601 3 q 475 -19 520 -14 q 386 -24 431 -24 q 266 -17 321 -24 q 171 12 211 -11 q 107 81 130 35 q 85 204 85 126 l 85 472 l 14 472 z "},"u":{"ha":844,"x_min":62,"x_max":782,"o":"m 562 165 q 575 109 562 127 q 618 90 587 90 q 651 97 633 90 q 677 110 668 104 l 677 663 q 683 684 677 674 q 705 694 688 694 l 749 694 q 761 694 755 694 q 771 690 767 693 q 779 681 776 687 q 782 663 782 674 l 782 32 q 779 14 782 20 q 771 4 776 7 q 761 1 767 1 q 749 0 755 0 l 705 0 q 683 10 688 0 q 677 43 677 20 q 636 28 663 37 q 568 9 609 18 q 472 -7 528 0 q 346 -14 417 -14 q 219 -1 273 -14 q 131 38 166 11 q 79 110 96 66 q 62 218 62 154 l 62 600 q 66 641 62 623 q 82 671 71 659 q 114 688 94 682 q 167 694 134 694 l 464 694 q 524 683 503 694 q 553 654 544 671 q 562 618 562 637 q 562 582 562 598 l 562 165 z "},"v":{"ha":773,"x_min":1,"x_max":772,"o":"m 545 400 l 639 654 q 652 683 645 672 q 681 694 659 694 l 753 694 q 772 683 772 694 q 765 659 772 675 l 505 46 q 484 12 496 23 q 450 0 472 0 l 343 0 q 319 4 329 0 q 303 16 310 9 q 293 30 297 22 q 286 45 289 38 l 7 637 q 1 661 1 650 q 14 687 1 679 q 40 694 26 694 l 371 694 q 399 693 388 694 q 418 688 411 692 q 431 679 426 684 q 439 665 435 673 l 545 400 z "},"w":{"ha":1196,"x_min":7,"x_max":1190,"o":"m 947 363 l 1044 656 q 1050 671 1047 664 q 1057 683 1053 678 q 1070 691 1062 688 q 1092 694 1078 694 l 1165 694 q 1184 690 1179 694 q 1190 677 1190 685 q 1185 659 1190 670 l 937 64 q 909 16 924 33 q 869 0 895 0 l 761 0 q 735 6 746 0 q 715 22 724 12 q 702 42 707 31 q 693 62 696 53 l 595 326 l 486 64 q 458 16 473 33 q 418 0 444 0 l 310 0 q 283 6 294 0 q 264 22 273 12 q 251 42 256 31 q 241 62 245 53 l 12 639 q 7 663 7 652 q 18 687 7 680 q 43 694 30 694 l 311 694 q 340 692 328 694 q 360 686 352 690 q 374 673 369 681 q 385 653 380 665 l 496 363 l 536 484 l 478 639 q 473 663 473 654 q 484 688 473 681 q 509 694 495 694 l 777 694 q 826 686 810 694 q 850 653 842 677 l 947 363 z "},"x":{"ha":883,"x_min":9,"x_max":879,"o":"m 267 215 l 174 56 q 162 35 168 45 q 150 17 157 24 q 133 5 142 9 q 111 0 124 0 l 33 0 q 16 5 22 0 q 9 20 9 10 q 12 34 9 26 q 20 52 14 42 l 195 338 l 22 639 q 14 663 14 652 q 54 694 14 694 l 446 694 q 493 687 479 694 q 513 667 506 680 l 601 517 l 671 639 q 683 660 677 650 q 696 677 689 670 q 713 690 703 685 q 736 694 722 694 l 813 694 q 830 689 824 694 q 837 674 837 684 q 826 643 837 661 l 673 394 l 866 64 q 875 47 871 56 q 879 31 879 39 q 875 13 879 20 q 864 4 871 7 q 849 0 857 1 q 833 0 842 0 l 435 0 q 407 4 418 0 q 387 15 395 9 q 375 28 379 21 q 368 40 370 35 l 267 215 z "},"y":{"ha":779,"x_min":0,"x_max":779,"o":"m 544 406 l 639 654 q 645 670 642 663 q 652 683 648 677 q 663 691 656 688 q 680 694 669 694 l 760 694 q 779 684 779 694 q 772 659 779 675 l 389 -245 q 382 -261 385 -254 q 375 -271 379 -267 q 366 -277 372 -275 q 351 -279 361 -279 l 264 -279 q 243 -267 243 -279 q 252 -243 243 -259 l 352 -26 l 7 637 q 2 651 3 644 q 0 663 0 658 q 13 687 0 680 q 40 694 26 694 l 384 694 q 421 685 408 694 q 439 665 435 675 l 544 406 z "},"z":{"ha":781,"x_min":14,"x_max":772,"o":"m 45 672 q 50 689 45 684 q 70 694 54 694 l 725 694 q 761 688 751 694 q 771 667 771 682 q 759 625 771 648 l 488 96 q 604 100 551 98 q 648 101 626 100 q 689 103 670 102 q 722 104 708 104 q 741 104 735 104 q 762 100 752 104 q 772 82 772 96 l 772 33 q 765 11 772 21 q 734 0 757 0 l 52 0 q 23 8 33 0 q 14 28 14 17 q 19 54 14 41 q 35 89 24 67 l 298 600 q 200 595 245 597 q 161 593 180 593 q 123 591 141 592 q 91 590 105 591 q 68 590 77 590 q 53 594 60 590 q 45 611 45 597 l 45 672 z "},"ﬁ":{"ha":1317,"x_min":21,"x_max":1255,"o":"m 592 282 l 592 95 q 589 53 592 71 q 574 23 585 35 q 544 6 564 12 q 490 0 524 0 l 196 0 q 143 6 163 0 q 111 24 123 12 q 96 53 100 35 q 92 94 92 71 l 92 282 l 35 282 q 21 297 21 282 l 21 351 q 35 366 21 366 l 92 366 l 92 775 q 107 903 92 848 q 148 996 122 957 q 210 1060 174 1035 q 286 1100 245 1085 q 370 1120 326 1114 q 457 1125 414 1125 q 535 1120 494 1125 q 615 1108 576 1116 q 686 1089 653 1100 q 743 1068 720 1079 q 754 1060 748 1065 q 760 1041 760 1055 l 760 994 q 757 983 760 985 q 751 981 753 981 q 732 985 742 981 q 701 989 722 989 q 659 980 679 989 q 624 948 639 971 q 601 886 609 925 q 592 787 592 846 l 592 366 l 701 366 q 715 351 715 366 l 715 297 q 701 282 715 282 l 592 282 m 755 600 q 759 641 755 623 q 774 671 763 659 q 806 688 786 682 q 859 694 827 694 l 1156 694 q 1207 689 1187 694 q 1237 671 1226 683 q 1251 642 1248 660 q 1255 600 1255 625 l 1255 93 q 1251 53 1255 70 q 1237 23 1248 35 q 1207 6 1226 12 q 1156 0 1187 0 l 859 0 q 806 6 827 0 q 774 24 786 12 q 759 53 763 35 q 755 94 755 71 l 755 600 m 780 985 q 798 1073 780 1031 q 846 1145 816 1114 q 918 1193 877 1175 q 1006 1211 960 1211 q 1094 1193 1053 1211 q 1165 1145 1135 1175 q 1214 1073 1196 1114 q 1232 985 1232 1031 q 1214 898 1232 939 q 1165 826 1196 857 q 1094 778 1135 795 q 1006 760 1053 760 q 918 778 960 760 q 846 826 877 795 q 798 898 816 857 q 780 985 780 939 z "},"ﬂ":{"ha":1317,"x_min":21,"x_max":1255,"o":"m 755 986 q 728 989 743 989 q 673 980 698 989 q 630 948 648 971 q 602 886 612 925 q 592 787 592 846 l 592 366 l 701 366 q 715 351 715 366 l 715 297 q 701 282 715 282 l 592 282 l 592 95 q 589 53 592 71 q 574 23 585 35 q 544 6 564 12 q 490 0 524 0 l 196 0 q 143 6 163 0 q 111 24 123 12 q 96 53 100 35 q 92 94 92 71 l 92 282 l 35 282 q 21 297 21 282 l 21 351 q 35 366 21 366 l 92 366 l 92 775 q 108 903 92 848 q 154 996 125 957 q 221 1060 182 1035 q 303 1100 259 1085 q 393 1120 347 1114 q 484 1125 439 1125 q 559 1120 520 1125 q 636 1108 599 1116 q 706 1090 673 1100 q 762 1069 739 1080 q 794 1100 772 1090 q 859 1111 816 1111 l 1156 1111 q 1206 1105 1187 1111 q 1236 1088 1225 1099 q 1251 1059 1247 1076 q 1255 1017 1255 1041 l 1255 93 q 1251 53 1255 70 q 1236 23 1246 35 q 1205 6 1225 12 q 1155 0 1186 0 l 859 0 q 806 6 827 0 q 774 24 786 12 q 759 53 763 35 q 755 94 755 71 l 755 986 z "},"ß":{"ha":957,"x_min":71,"x_max":957,"o":"m 603 79 q 608 89 603 87 q 616 90 612 90 q 682 95 652 91 q 734 110 712 100 q 768 139 756 121 q 781 184 781 157 q 768 239 781 219 q 734 268 756 258 q 683 280 713 278 q 618 282 653 282 q 609 283 614 282 q 603 295 603 284 l 603 353 q 608 364 603 363 q 616 366 612 366 q 723 396 677 368 q 799 469 768 423 q 846 576 830 515 q 861 710 861 638 q 848 829 861 773 q 811 927 836 886 q 750 994 786 969 q 667 1018 713 1018 q 629 1014 646 1018 q 598 998 611 1009 q 578 970 586 987 q 571 927 571 953 l 571 92 q 566 54 571 71 q 550 25 562 37 q 519 6 538 13 q 472 0 500 0 l 175 0 q 122 6 142 0 q 90 24 102 12 q 75 53 79 35 q 71 94 71 71 l 71 813 q 91 925 71 877 q 146 1007 112 972 q 227 1065 181 1042 q 323 1101 273 1088 q 424 1120 373 1114 q 522 1125 475 1125 q 628 1119 575 1125 q 730 1096 682 1113 q 820 1050 778 1079 q 892 975 861 1021 q 940 863 922 928 q 957 710 957 798 q 940 558 957 621 q 897 452 923 495 q 837 381 870 409 q 772 335 804 354 q 809 315 791 327 q 843 285 828 302 q 867 245 858 268 q 876 191 876 222 q 856 102 876 138 q 801 44 836 66 q 719 11 766 22 q 617 0 671 1 q 608 1 614 0 q 603 14 602 3 l 603 79 z "},"À":{"ha":847,"x_min":7,"x_max":840,"o":"m 460 974 q 481 971 472 974 q 497 960 490 968 q 510 941 504 953 q 523 911 516 928 l 834 79 q 839 62 838 70 q 840 47 840 55 q 826 12 840 23 q 795 0 811 0 l 410 0 q 381 4 393 0 q 361 15 369 9 q 348 28 353 21 q 342 40 344 35 l 335 64 l 144 64 l 140 43 q 135 25 138 33 q 128 12 132 18 q 117 3 124 6 q 98 0 110 0 l 28 0 q 7 17 7 0 q 9 32 7 23 q 16 52 12 40 l 299 909 q 322 957 309 941 q 359 974 335 972 l 460 974 m 165 147 l 312 147 l 237 412 l 165 147 m 215 1200 q 209 1211 209 1204 q 214 1221 209 1215 l 276 1309 q 286 1315 281 1315 q 296 1311 290 1315 l 536 1129 q 542 1119 542 1124 q 538 1109 542 1114 l 492 1043 q 481 1036 488 1036 q 477 1038 479 1036 q 472 1040 475 1039 l 215 1200 z "},"à":{"ha":875,"x_min":43,"x_max":812,"o":"m 346 0 q 272 5 309 0 q 202 20 235 9 q 139 47 168 31 q 89 90 110 64 q 55 149 67 115 q 43 227 43 182 q 65 328 43 286 q 125 397 87 370 q 212 440 163 425 q 313 459 260 455 l 313 506 q 306 548 313 532 q 289 571 299 564 q 266 582 278 579 q 241 584 253 584 q 213 580 228 584 q 183 570 197 576 q 156 557 169 564 q 134 545 143 551 q 127 541 130 543 q 120 538 123 538 q 109 547 114 538 l 85 584 q 82 594 82 589 q 86 604 82 600 q 95 610 91 608 q 152 642 117 626 q 230 671 186 659 q 323 692 273 684 q 427 701 373 701 q 526 697 477 701 q 617 683 574 694 q 696 651 661 671 q 758 596 732 630 q 798 513 784 562 q 812 394 812 463 l 812 92 q 808 52 812 69 q 793 23 804 35 q 761 6 781 12 q 708 0 741 0 l 346 0 m 313 373 q 231 361 264 373 q 177 328 197 349 q 148 281 157 308 q 139 226 139 254 q 148 172 139 197 q 177 127 157 146 q 231 98 197 109 q 313 87 264 87 l 313 373 m 259 950 q 253 960 253 954 q 258 970 253 965 l 320 1059 q 330 1065 325 1065 q 340 1061 334 1065 l 580 879 q 586 869 586 873 q 582 859 586 864 l 536 793 q 525 786 532 786 q 521 787 523 786 q 516 790 519 789 l 259 950 z "},"Á":{"ha":847,"x_min":7,"x_max":840,"o":"m 460 974 q 481 971 472 974 q 497 960 490 968 q 510 941 504 953 q 523 911 516 928 l 834 79 q 839 62 838 70 q 840 47 840 55 q 826 12 840 23 q 795 0 811 0 l 410 0 q 381 4 393 0 q 361 15 369 9 q 348 28 353 21 q 342 40 344 35 l 335 64 l 144 64 l 140 43 q 135 25 138 33 q 128 12 132 18 q 117 3 124 6 q 98 0 110 0 l 28 0 q 7 17 7 0 q 9 32 7 23 q 16 52 12 40 l 299 909 q 322 957 309 941 q 359 974 335 972 l 460 974 m 165 147 l 312 147 l 237 412 l 165 147 m 346 1040 q 341 1038 343 1039 q 337 1036 339 1036 q 326 1043 330 1036 l 280 1109 q 276 1119 276 1114 q 282 1129 276 1124 l 522 1311 q 532 1315 527 1315 q 542 1309 536 1315 l 604 1221 q 609 1211 609 1215 q 603 1200 609 1204 l 346 1040 z "},"á":{"ha":875,"x_min":43,"x_max":812,"o":"m 346 0 q 272 5 309 0 q 202 20 235 9 q 139 47 168 31 q 89 90 110 64 q 55 149 67 115 q 43 227 43 182 q 65 328 43 286 q 125 397 87 370 q 212 440 163 425 q 313 459 260 455 l 313 506 q 306 548 313 532 q 289 571 299 564 q 266 582 278 579 q 241 584 253 584 q 213 580 228 584 q 183 570 197 576 q 156 557 169 564 q 134 545 143 551 q 127 541 130 543 q 120 538 123 538 q 109 547 114 538 l 85 584 q 82 594 82 589 q 86 604 82 600 q 95 610 91 608 q 152 642 117 626 q 230 671 186 659 q 323 692 273 684 q 427 701 373 701 q 526 697 477 701 q 617 683 574 694 q 696 651 661 671 q 758 596 732 630 q 798 513 784 562 q 812 394 812 463 l 812 92 q 808 52 812 69 q 793 23 804 35 q 761 6 781 12 q 708 0 741 0 l 346 0 m 313 373 q 231 361 264 373 q 177 328 197 349 q 148 281 157 308 q 139 226 139 254 q 148 172 139 197 q 177 127 157 146 q 231 98 197 109 q 313 87 264 87 l 313 373 m 390 790 q 385 787 387 789 q 381 786 383 786 q 370 793 374 786 l 324 859 q 320 869 320 864 q 326 879 320 873 l 566 1061 q 576 1065 571 1065 q 586 1059 581 1065 l 648 970 q 653 960 653 965 q 647 950 653 954 l 390 790 z "},"Â":{"ha":847,"x_min":7,"x_max":840,"o":"m 460 974 q 481 971 472 974 q 497 960 490 968 q 510 941 504 953 q 523 911 516 928 l 834 79 q 839 62 838 70 q 840 47 840 55 q 826 12 840 23 q 795 0 811 0 l 410 0 q 381 4 393 0 q 361 15 369 9 q 348 28 353 21 q 342 40 344 35 l 335 64 l 144 64 l 140 43 q 135 25 138 33 q 128 12 132 18 q 117 3 124 6 q 98 0 110 0 l 28 0 q 7 17 7 0 q 9 32 7 23 q 16 52 12 40 l 299 909 q 322 957 309 941 q 359 974 335 972 l 460 974 m 165 147 l 312 147 l 237 412 l 165 147 m 409 1147 l 257 1040 q 252 1038 254 1039 q 248 1036 250 1036 q 237 1043 241 1036 l 191 1103 q 187 1112 187 1107 q 193 1122 187 1117 l 399 1297 q 404 1300 401 1299 q 409 1301 406 1301 q 414 1300 412 1301 q 418 1297 416 1299 l 625 1122 q 631 1112 631 1117 q 627 1103 631 1107 l 581 1043 q 570 1036 576 1036 q 566 1038 568 1036 q 561 1040 564 1039 l 409 1147 z "},"â":{"ha":875,"x_min":43,"x_max":812,"o":"m 346 0 q 272 5 309 0 q 202 20 235 9 q 139 47 168 31 q 89 90 110 64 q 55 149 67 115 q 43 227 43 182 q 65 328 43 286 q 125 397 87 370 q 212 440 163 425 q 313 459 260 455 l 313 506 q 306 548 313 532 q 289 571 299 564 q 266 582 278 579 q 241 584 253 584 q 213 580 228 584 q 183 570 197 576 q 156 557 169 564 q 134 545 143 551 q 127 541 130 543 q 120 538 123 538 q 109 547 114 538 l 85 584 q 82 594 82 589 q 86 604 82 600 q 95 610 91 608 q 152 642 117 626 q 230 671 186 659 q 323 692 273 684 q 427 701 373 701 q 526 697 477 701 q 617 683 574 694 q 696 651 661 671 q 758 596 732 630 q 798 513 784 562 q 812 394 812 463 l 812 92 q 808 52 812 69 q 793 23 804 35 q 761 6 781 12 q 708 0 741 0 l 346 0 m 313 373 q 231 361 264 373 q 177 328 197 349 q 148 281 157 308 q 139 226 139 254 q 148 172 139 197 q 177 127 157 146 q 231 98 197 109 q 313 87 264 87 l 313 373 m 453 897 l 301 790 q 296 787 298 789 q 292 786 294 786 q 281 793 286 786 l 235 852 q 231 862 231 857 q 237 872 231 867 l 444 1047 q 448 1050 446 1048 q 453 1051 450 1051 q 458 1050 456 1051 q 463 1047 460 1048 l 669 872 q 675 862 675 867 q 671 852 675 857 l 625 793 q 614 786 620 786 q 610 787 612 786 q 605 790 608 789 l 453 897 z "},"Ã":{"ha":847,"x_min":7,"x_max":840,"o":"m 460 974 q 481 971 472 974 q 497 960 490 968 q 510 941 504 953 q 523 911 516 928 l 834 79 q 839 62 838 70 q 840 47 840 55 q 826 12 840 23 q 795 0 811 0 l 410 0 q 381 4 393 0 q 361 15 369 9 q 348 28 353 21 q 342 40 344 35 l 335 64 l 144 64 l 140 43 q 135 25 138 33 q 128 12 132 18 q 117 3 124 6 q 98 0 110 0 l 28 0 q 7 17 7 0 q 9 32 7 23 q 16 52 12 40 l 299 909 q 322 957 309 941 q 359 974 335 972 l 460 974 m 165 147 l 312 147 l 237 412 l 165 147 m 624 1256 q 634 1249 633 1256 q 634 1235 635 1242 q 617 1169 629 1200 q 588 1115 606 1138 q 548 1077 571 1091 q 498 1063 526 1063 q 450 1074 473 1063 q 405 1096 426 1084 q 366 1118 383 1108 q 336 1128 348 1128 q 312 1124 321 1128 q 297 1111 302 1119 q 289 1092 291 1103 q 285 1071 286 1082 q 280 1065 284 1067 q 262 1063 277 1063 l 195 1063 q 185 1066 188 1063 q 183 1073 183 1069 q 183 1081 182 1077 q 184 1086 184 1084 q 200 1151 189 1120 q 229 1204 212 1181 q 270 1240 247 1227 q 321 1254 293 1254 q 369 1244 345 1254 q 414 1222 393 1234 q 453 1200 435 1210 q 482 1190 471 1190 q 507 1195 498 1190 q 523 1208 517 1200 q 531 1226 528 1216 q 534 1249 533 1237 q 538 1254 535 1253 q 551 1256 541 1256 l 624 1256 z "},"ã":{"ha":875,"x_min":43,"x_max":812,"o":"m 346 0 q 272 5 309 0 q 202 20 235 9 q 139 47 168 31 q 89 90 110 64 q 55 149 67 115 q 43 227 43 182 q 65 328 43 286 q 125 397 87 370 q 212 440 163 425 q 313 459 260 455 l 313 506 q 306 548 313 532 q 289 571 299 564 q 266 582 278 579 q 241 584 253 584 q 213 580 228 584 q 183 570 197 576 q 156 557 169 564 q 134 545 143 551 q 127 541 130 543 q 120 538 123 538 q 109 547 114 538 l 85 584 q 82 594 82 589 q 86 604 82 600 q 95 610 91 608 q 152 642 117 626 q 230 671 186 659 q 323 692 273 684 q 427 701 373 701 q 526 697 477 701 q 617 683 574 694 q 696 651 661 671 q 758 596 732 630 q 798 513 784 562 q 812 394 812 463 l 812 92 q 808 52 812 69 q 793 23 804 35 q 761 6 781 12 q 708 0 741 0 l 346 0 m 313 373 q 231 361 264 373 q 177 328 197 349 q 148 281 157 308 q 139 226 139 254 q 148 172 139 197 q 177 127 157 146 q 231 98 197 109 q 313 87 264 87 l 313 373 m 668 1006 q 679 999 677 1006 q 678 985 680 992 q 661 919 673 950 q 632 864 650 888 q 592 827 615 841 q 542 813 570 813 q 494 823 517 813 q 449 846 470 833 q 410 868 427 858 q 380 878 392 878 q 356 873 365 878 q 341 861 347 869 q 333 842 335 852 q 329 821 330 831 q 325 815 328 817 q 307 813 321 813 l 239 813 q 230 816 232 813 q 227 823 227 819 q 228 830 227 827 q 229 836 229 834 q 244 901 233 870 q 273 954 256 931 q 314 990 291 977 q 365 1004 337 1004 q 413 994 389 1004 q 458 971 437 983 q 497 949 479 960 q 526 939 515 939 q 551 944 542 939 q 567 958 561 949 q 575 976 572 966 q 578 998 577 987 q 582 1004 579 1002 q 595 1006 585 1006 l 668 1006 z "},"Ä":{"ha":847,"x_min":7,"x_max":840,"o":"m 460 974 q 481 971 472 974 q 497 960 490 968 q 510 941 504 953 q 523 911 516 928 l 834 79 q 839 62 838 70 q 840 47 840 55 q 826 12 840 23 q 795 0 811 0 l 410 0 q 381 4 393 0 q 361 15 369 9 q 348 28 353 21 q 342 40 344 35 l 335 64 l 144 64 l 140 43 q 135 25 138 33 q 128 12 132 18 q 117 3 124 6 q 98 0 110 0 l 28 0 q 7 17 7 0 q 9 32 7 23 q 16 52 12 40 l 299 909 q 322 957 309 941 q 359 974 335 972 l 460 974 m 165 147 l 312 147 l 237 412 l 165 147 m 187 1152 q 194 1187 187 1171 q 213 1215 201 1203 q 241 1234 225 1227 q 276 1241 258 1241 q 311 1234 294 1241 q 339 1215 327 1227 q 358 1187 351 1203 q 365 1152 365 1171 q 358 1118 365 1134 q 339 1089 351 1101 q 311 1070 327 1078 q 276 1063 294 1063 q 241 1070 258 1063 q 213 1089 225 1078 q 194 1118 201 1101 q 187 1152 187 1134 m 453 1152 q 460 1187 453 1171 q 479 1215 467 1203 q 507 1234 491 1227 q 542 1241 524 1241 q 576 1234 560 1241 q 605 1215 593 1227 q 624 1187 616 1203 q 631 1152 631 1171 q 624 1118 631 1134 q 605 1089 616 1101 q 576 1070 593 1078 q 542 1063 560 1063 q 507 1070 524 1063 q 479 1089 491 1078 q 460 1118 467 1101 q 453 1152 453 1134 z "},"ä":{"ha":875,"x_min":43,"x_max":812,"o":"m 346 0 q 272 5 309 0 q 202 20 235 9 q 139 47 168 31 q 89 90 110 64 q 55 149 67 115 q 43 227 43 182 q 65 328 43 286 q 125 397 87 370 q 212 440 163 425 q 313 459 260 455 l 313 506 q 306 548 313 532 q 289 571 299 564 q 266 582 278 579 q 241 584 253 584 q 213 580 228 584 q 183 570 197 576 q 156 557 169 564 q 134 545 143 551 q 127 541 130 543 q 120 538 123 538 q 109 547 114 538 l 85 584 q 82 594 82 589 q 86 604 82 600 q 95 610 91 608 q 152 642 117 626 q 230 671 186 659 q 323 692 273 684 q 427 701 373 701 q 526 697 477 701 q 617 683 574 694 q 696 651 661 671 q 758 596 732 630 q 798 513 784 562 q 812 394 812 463 l 812 92 q 808 52 812 69 q 793 23 804 35 q 761 6 781 12 q 708 0 741 0 l 346 0 m 313 373 q 231 361 264 373 q 177 328 197 349 q 148 281 157 308 q 139 226 139 254 q 148 172 139 197 q 177 127 157 146 q 231 98 197 109 q 313 87 264 87 l 313 373 m 231 902 q 238 937 231 920 q 257 965 245 953 q 286 984 269 977 q 320 991 302 991 q 355 984 338 991 q 383 965 371 977 q 402 937 395 953 q 409 902 409 920 q 402 867 409 884 q 383 839 395 851 q 355 820 371 827 q 320 813 338 813 q 286 820 302 813 q 257 839 269 827 q 238 867 245 851 q 231 902 231 884 m 497 902 q 504 937 497 920 q 523 965 511 953 q 551 984 535 977 q 586 991 568 991 q 621 984 604 991 q 649 965 637 977 q 668 937 661 953 q 675 902 675 920 q 668 867 675 884 q 649 839 661 851 q 621 820 637 827 q 586 813 604 813 q 551 820 568 813 q 523 839 535 827 q 504 867 511 851 q 497 902 497 884 z "},"Å":{"ha":847,"x_min":7,"x_max":840,"o":"m 235 1112 q 248 1180 235 1148 q 286 1236 262 1212 q 341 1273 309 1259 q 409 1287 373 1287 q 476 1273 445 1287 q 531 1236 508 1259 q 568 1180 555 1212 q 582 1112 582 1148 q 558 1024 582 1063 q 495 962 534 984 q 509 942 503 954 q 523 911 515 930 l 834 79 q 839 62 838 70 q 840 47 840 55 q 826 12 840 23 q 795 0 811 0 l 410 0 q 381 4 393 0 q 361 15 369 9 q 348 28 353 21 q 342 40 344 35 l 335 64 l 144 64 l 140 43 q 135 25 138 33 q 128 12 132 18 q 117 3 124 6 q 98 0 110 0 l 28 0 q 7 17 7 0 q 9 32 7 23 q 16 52 12 40 l 299 909 q 311 940 304 927 q 325 960 317 952 q 259 1022 284 982 q 235 1112 235 1063 m 165 147 l 312 147 l 237 412 l 165 147 m 334 1114 q 340 1084 334 1098 q 356 1061 346 1071 q 380 1045 366 1050 q 409 1039 393 1039 q 438 1045 425 1039 q 461 1061 451 1050 q 476 1084 471 1071 q 482 1114 482 1098 q 476 1143 482 1129 q 461 1166 471 1156 q 438 1182 451 1176 q 409 1187 425 1187 q 380 1182 393 1187 q 356 1166 366 1176 q 340 1143 346 1156 q 334 1114 334 1129 z "},"å":{"ha":875,"x_min":43,"x_max":812,"o":"m 346 0 q 272 5 309 0 q 202 20 235 9 q 139 47 168 31 q 89 90 110 64 q 55 149 67 115 q 43 227 43 182 q 65 328 43 286 q 125 397 87 370 q 212 440 163 425 q 313 459 260 455 l 313 506 q 306 548 313 532 q 289 571 299 564 q 266 582 278 579 q 241 584 253 584 q 213 580 228 584 q 183 570 197 576 q 156 557 169 564 q 134 545 143 551 q 127 541 130 543 q 120 538 123 538 q 109 547 114 538 l 85 584 q 82 594 82 589 q 86 604 82 600 q 95 610 91 608 q 152 642 117 626 q 230 671 186 659 q 323 692 273 684 q 427 701 373 701 q 526 697 477 701 q 617 683 574 694 q 696 651 661 671 q 758 596 732 630 q 798 513 784 562 q 812 394 812 463 l 812 92 q 808 52 812 69 q 793 23 804 35 q 761 6 781 12 q 708 0 741 0 l 346 0 m 313 373 q 231 361 264 373 q 177 328 197 349 q 148 281 157 308 q 139 226 139 254 q 148 172 139 197 q 177 127 157 146 q 231 98 197 109 q 313 87 264 87 l 313 373 m 279 952 q 292 1020 279 988 q 330 1076 306 1052 q 385 1113 353 1099 q 453 1127 417 1127 q 520 1113 489 1127 q 575 1076 552 1099 q 612 1020 599 1052 q 626 952 626 988 q 612 885 626 916 q 575 830 599 853 q 520 793 552 806 q 453 779 489 779 q 385 793 417 779 q 330 830 353 806 q 292 885 306 853 q 279 952 279 916 m 378 954 q 384 924 378 938 q 400 901 390 911 q 424 885 410 890 q 453 879 437 879 q 482 885 469 879 q 505 901 495 890 q 520 924 515 911 q 526 954 526 938 q 520 983 526 969 q 505 1006 515 996 q 482 1022 495 1016 q 453 1027 469 1027 q 424 1022 437 1027 q 400 1006 410 1016 q 384 983 390 996 q 378 954 378 969 z "},"Æ":{"ha":1154,"x_min":-48,"x_max":1126,"o":"m 835 83 q 852 85 835 83 q 895 92 869 87 q 953 100 921 96 q 1014 109 985 104 q 1068 115 1044 113 q 1103 118 1092 118 q 1120 113 1113 118 q 1126 96 1126 108 l 1126 33 q 1119 11 1126 21 q 1089 0 1112 0 l 432 0 q 380 6 400 0 q 349 24 360 12 q 333 53 337 35 q 329 94 329 71 l 329 126 l 119 126 l 90 56 q 81 34 85 44 q 71 16 77 24 q 56 4 65 9 q 34 0 47 0 l -17 0 q -40 2 -33 0 q -48 13 -48 4 q -39 43 -48 20 l 339 909 q 370 958 353 941 q 418 974 387 974 l 1065 974 q 1093 963 1085 974 q 1101 940 1101 953 l 1101 892 q 1094 874 1101 879 q 1078 869 1086 869 q 1044 872 1067 869 q 995 879 1022 875 q 939 887 968 882 q 888 895 911 891 q 850 901 865 899 q 835 903 835 903 l 835 730 l 1087 730 q 1101 716 1101 730 l 1101 648 q 1087 633 1101 633 l 835 633 l 835 83 m 329 210 l 329 636 l 150 210 l 329 210 z "},"æ":{"ha":1147,"x_min":36,"x_max":1112,"o":"m 306 78 q 356 82 332 78 q 397 93 380 85 q 331 199 355 136 q 307 350 307 263 l 307 385 q 225 367 258 381 q 171 333 192 353 q 141 286 151 312 q 132 232 132 260 q 141 174 132 201 q 171 124 151 146 q 225 91 192 103 q 306 78 258 78 m 910 555 q 876 549 895 555 q 842 524 858 543 q 815 467 826 504 q 802 370 804 431 l 1015 370 q 1007 459 1015 424 q 984 516 998 495 q 950 547 970 538 q 910 555 931 555 m 242 595 q 212 590 228 595 q 181 580 196 586 q 152 567 165 574 q 130 554 139 559 q 122 549 125 551 q 115 547 119 547 q 104 556 109 547 l 81 593 q 77 604 77 598 q 82 613 77 609 q 90 620 86 617 q 147 653 113 635 q 225 685 182 670 q 319 709 269 699 q 425 718 370 718 q 484 715 458 718 q 531 705 510 711 q 568 689 551 698 q 602 668 585 680 q 683 704 635 689 q 789 718 731 718 q 864 711 825 718 q 938 687 902 704 q 1005 642 974 670 q 1061 571 1037 613 q 1098 471 1084 529 q 1112 338 1112 414 l 1112 286 l 804 286 q 824 202 810 235 q 856 149 838 169 q 894 121 873 129 q 935 113 915 113 q 971 118 955 113 q 999 130 987 123 q 1018 142 1010 137 q 1029 148 1025 148 q 1040 140 1034 148 l 1064 100 q 1067 95 1065 97 q 1068 90 1068 92 q 1065 82 1068 85 q 1059 78 1061 79 q 1002 41 1037 60 q 923 8 968 23 q 825 -15 878 -6 q 713 -24 772 -24 q 595 -12 651 -24 q 486 28 539 1 q 395 0 441 9 q 304 -9 349 -9 q 196 6 245 -9 q 111 52 146 22 q 56 128 75 83 q 36 232 36 173 q 59 338 36 294 q 120 409 82 381 q 207 451 158 437 q 307 470 256 465 l 307 514 q 302 556 307 541 q 288 581 297 572 q 268 592 279 589 q 242 595 256 595 z "},"Ǽ":{"ha":1154,"x_min":-48,"x_max":1126,"o":"m 835 83 q 852 85 835 83 q 895 92 869 87 q 953 100 921 96 q 1014 109 985 104 q 1068 115 1044 113 q 1103 118 1092 118 q 1120 113 1113 118 q 1126 96 1126 108 l 1126 33 q 1119 11 1126 21 q 1089 0 1112 0 l 432 0 q 380 6 400 0 q 349 24 360 12 q 333 53 337 35 q 329 94 329 71 l 329 126 l 119 126 l 90 56 q 81 34 85 44 q 71 16 77 24 q 56 4 65 9 q 34 0 47 0 l -17 0 q -40 2 -33 0 q -48 13 -48 4 q -39 43 -48 20 l 339 909 q 370 958 353 941 q 418 974 387 974 l 1065 974 q 1093 963 1085 974 q 1101 940 1101 953 l 1101 892 q 1094 874 1101 879 q 1078 869 1086 869 q 1044 872 1067 869 q 995 879 1022 875 q 939 887 968 882 q 888 895 911 891 q 850 901 865 899 q 835 903 835 903 l 835 730 l 1087 730 q 1101 716 1101 730 l 1101 648 q 1087 633 1101 633 l 835 633 l 835 83 m 329 210 l 329 636 l 150 210 l 329 210 m 629 1040 q 624 1038 626 1039 q 620 1036 622 1036 q 608 1043 612 1036 l 563 1109 q 559 1119 559 1114 q 565 1129 559 1124 l 805 1311 q 814 1315 810 1315 q 825 1309 819 1315 l 887 1221 q 892 1211 892 1215 q 886 1200 892 1204 l 629 1040 z "},"ǽ":{"ha":1147,"x_min":36,"x_max":1112,"o":"m 306 78 q 356 82 332 78 q 397 93 380 85 q 331 199 355 136 q 307 350 307 263 l 307 385 q 225 367 258 381 q 171 333 192 353 q 141 286 151 312 q 132 232 132 260 q 141 174 132 201 q 171 124 151 146 q 225 91 192 103 q 306 78 258 78 m 910 555 q 876 549 895 555 q 842 524 858 543 q 815 467 826 504 q 802 370 804 431 l 1015 370 q 1007 459 1015 424 q 984 516 998 495 q 950 547 970 538 q 910 555 931 555 m 242 595 q 212 590 228 595 q 181 580 196 586 q 152 567 165 574 q 130 554 139 559 q 122 549 125 551 q 115 547 119 547 q 104 556 109 547 l 81 593 q 77 604 77 598 q 82 613 77 609 q 90 620 86 617 q 147 653 113 635 q 225 685 182 670 q 319 709 269 699 q 425 718 370 718 q 484 715 458 718 q 531 705 510 711 q 568 689 551 698 q 602 668 585 680 q 683 704 635 689 q 789 718 731 718 q 864 711 825 718 q 938 687 902 704 q 1005 642 974 670 q 1061 571 1037 613 q 1098 471 1084 529 q 1112 338 1112 414 l 1112 286 l 804 286 q 824 202 810 235 q 856 149 838 169 q 894 121 873 129 q 935 113 915 113 q 971 118 955 113 q 999 130 987 123 q 1018 142 1010 137 q 1029 148 1025 148 q 1040 140 1034 148 l 1064 100 q 1067 95 1065 97 q 1068 90 1068 92 q 1065 82 1068 85 q 1059 78 1061 79 q 1002 41 1037 60 q 923 8 968 23 q 825 -15 878 -6 q 713 -24 772 -24 q 595 -12 651 -24 q 486 28 539 1 q 395 0 441 9 q 304 -9 349 -9 q 196 6 245 -9 q 111 52 146 22 q 56 128 75 83 q 36 232 36 173 q 59 338 36 294 q 120 409 82 381 q 207 451 158 437 q 307 470 256 465 l 307 514 q 302 556 307 541 q 288 581 297 572 q 268 592 279 589 q 242 595 256 595 m 539 790 q 534 787 536 789 q 530 786 532 786 q 519 793 523 786 l 473 859 q 469 869 469 864 q 475 879 469 873 l 715 1061 q 725 1065 720 1065 q 735 1059 730 1065 l 798 970 q 802 960 802 965 q 796 950 802 954 l 539 790 z "},"Ā":{"ha":847,"x_min":7,"x_max":840,"o":"m 460 974 q 481 971 472 974 q 497 960 490 968 q 510 941 504 953 q 523 911 516 928 l 834 79 q 839 62 838 70 q 840 47 840 55 q 826 12 840 23 q 795 0 811 0 l 410 0 q 381 4 393 0 q 361 15 369 9 q 348 28 353 21 q 342 40 344 35 l 335 64 l 144 64 l 140 43 q 135 25 138 33 q 128 12 132 18 q 117 3 124 6 q 98 0 110 0 l 28 0 q 7 17 7 0 q 9 32 7 23 q 16 52 12 40 l 299 909 q 322 957 309 941 q 359 974 335 972 l 460 974 m 165 147 l 312 147 l 237 412 l 165 147 m 229 1082 q 214 1097 214 1082 l 214 1206 q 229 1220 214 1220 l 589 1220 q 604 1206 604 1220 l 604 1097 q 589 1082 604 1082 l 229 1082 z "},"ā":{"ha":875,"x_min":43,"x_max":812,"o":"m 346 0 q 272 5 309 0 q 202 20 235 9 q 139 47 168 31 q 89 90 110 64 q 55 149 67 115 q 43 227 43 182 q 65 328 43 286 q 125 397 87 370 q 212 440 163 425 q 313 459 260 455 l 313 506 q 306 548 313 532 q 289 571 299 564 q 266 582 278 579 q 241 584 253 584 q 213 580 228 584 q 183 570 197 576 q 156 557 169 564 q 134 545 143 551 q 127 541 130 543 q 120 538 123 538 q 109 547 114 538 l 85 584 q 82 594 82 589 q 86 604 82 600 q 95 610 91 608 q 152 642 117 626 q 230 671 186 659 q 323 692 273 684 q 427 701 373 701 q 526 697 477 701 q 617 683 574 694 q 696 651 661 671 q 758 596 732 630 q 798 513 784 562 q 812 394 812 463 l 812 92 q 808 52 812 69 q 793 23 804 35 q 761 6 781 12 q 708 0 741 0 l 346 0 m 313 373 q 231 361 264 373 q 177 328 197 349 q 148 281 157 308 q 139 226 139 254 q 148 172 139 197 q 177 127 157 146 q 231 98 197 109 q 313 87 264 87 l 313 373 m 273 832 q 258 847 258 832 l 258 956 q 273 970 258 970 l 633 970 q 648 956 648 970 l 648 847 q 633 832 648 832 l 273 832 z "},"Ă":{"ha":847,"x_min":7,"x_max":840,"o":"m 460 974 q 481 971 472 974 q 497 960 490 968 q 510 941 504 953 q 523 911 516 928 l 834 79 q 839 62 838 70 q 840 47 840 55 q 826 12 840 23 q 795 0 811 0 l 410 0 q 381 4 393 0 q 361 15 369 9 q 348 28 353 21 q 342 40 344 35 l 335 64 l 144 64 l 140 43 q 135 25 138 33 q 128 12 132 18 q 117 3 124 6 q 98 0 110 0 l 28 0 q 7 17 7 0 q 9 32 7 23 q 16 52 12 40 l 299 909 q 322 957 309 941 q 359 974 335 972 l 460 974 m 165 147 l 312 147 l 237 412 l 165 147 m 409 1170 q 453 1178 435 1170 q 480 1197 470 1186 q 496 1221 491 1208 q 505 1240 502 1233 q 511 1256 508 1249 q 523 1262 513 1262 l 604 1262 q 614 1258 611 1262 q 617 1250 617 1253 q 597 1153 617 1191 q 547 1091 577 1114 q 479 1059 516 1068 q 409 1050 443 1050 q 338 1059 375 1050 q 271 1091 302 1068 q 221 1153 241 1114 q 201 1250 201 1191 q 204 1258 201 1253 q 214 1262 207 1262 l 295 1262 q 307 1256 304 1262 q 313 1240 310 1249 q 321 1221 316 1233 q 337 1197 327 1208 q 365 1178 348 1186 q 409 1170 382 1170 z "},"ă":{"ha":875,"x_min":43,"x_max":812,"o":"m 346 0 q 272 5 309 0 q 202 20 235 9 q 139 47 168 31 q 89 90 110 64 q 55 149 67 115 q 43 227 43 182 q 65 328 43 286 q 125 397 87 370 q 212 440 163 425 q 313 459 260 455 l 313 506 q 306 548 313 532 q 289 571 299 564 q 266 582 278 579 q 241 584 253 584 q 213 580 228 584 q 183 570 197 576 q 156 557 169 564 q 134 545 143 551 q 127 541 130 543 q 120 538 123 538 q 109 547 114 538 l 85 584 q 82 594 82 589 q 86 604 82 600 q 95 610 91 608 q 152 642 117 626 q 230 671 186 659 q 323 692 273 684 q 427 701 373 701 q 526 697 477 701 q 617 683 574 694 q 696 651 661 671 q 758 596 732 630 q 798 513 784 562 q 812 394 812 463 l 812 92 q 808 52 812 69 q 793 23 804 35 q 761 6 781 12 q 708 0 741 0 l 346 0 m 313 373 q 231 361 264 373 q 177 328 197 349 q 148 281 157 308 q 139 226 139 254 q 148 172 139 197 q 177 127 157 146 q 231 98 197 109 q 313 87 264 87 l 313 373 m 453 920 q 497 928 479 920 q 525 947 514 936 q 541 970 535 958 q 549 990 546 983 q 555 1005 552 999 q 567 1012 557 1012 l 648 1012 q 658 1007 655 1012 q 661 1000 661 1003 q 641 902 661 941 q 591 841 621 864 q 524 809 560 818 q 453 800 487 800 q 382 809 419 800 q 315 841 346 818 q 265 902 285 864 q 245 1000 245 941 q 248 1007 245 1003 q 258 1012 251 1012 l 339 1012 q 351 1005 349 1012 q 357 990 354 999 q 366 970 360 983 q 381 947 371 958 q 409 928 392 936 q 453 920 427 920 z "},"Ą":{"ha":847,"x_min":7,"x_max":840,"o":"m 460 974 q 481 971 472 974 q 497 960 490 968 q 510 941 504 953 q 523 911 516 928 l 834 79 q 839 62 838 70 q 840 47 840 55 q 827 15 840 25 q 801 -1 814 5 q 729 -37 766 -16 q 663 -82 692 -58 q 614 -130 633 -106 q 595 -176 595 -155 q 600 -202 595 -191 q 617 -223 605 -214 q 648 -237 629 -232 q 698 -241 668 -241 q 752 -238 730 -241 q 789 -231 774 -235 q 813 -223 804 -227 q 830 -220 823 -220 q 837 -222 833 -220 q 840 -231 840 -224 l 840 -296 q 833 -314 840 -309 q 812 -324 825 -319 q 781 -334 799 -330 q 745 -340 764 -338 q 707 -343 726 -342 q 674 -345 689 -345 q 601 -337 637 -345 q 536 -312 564 -330 q 490 -265 507 -294 q 472 -193 472 -236 q 484 -140 472 -167 q 517 -88 496 -113 q 570 -41 539 -63 q 639 0 601 -18 l 410 0 q 381 4 393 0 q 361 15 369 9 q 348 28 353 21 q 342 40 344 35 l 335 64 l 144 64 l 140 43 q 135 25 138 33 q 128 12 132 18 q 117 3 124 6 q 98 0 110 0 l 28 0 q 7 17 7 0 q 9 32 7 23 q 16 52 12 40 l 299 909 q 322 957 309 941 q 359 974 335 972 l 460 974 m 165 147 l 312 147 l 237 412 l 165 147 z "},"ą":{"ha":875,"x_min":43,"x_max":812,"o":"m 812 92 q 810 56 812 70 q 799 31 807 41 q 775 12 791 20 q 732 -5 759 3 q 668 -34 699 -16 q 616 -72 638 -52 q 580 -113 593 -92 q 567 -151 567 -134 q 572 -177 567 -165 q 589 -198 577 -189 q 621 -212 601 -207 q 670 -216 640 -216 q 725 -213 703 -216 q 761 -205 747 -210 q 785 -198 776 -201 q 802 -195 795 -195 q 809 -197 806 -195 q 812 -206 812 -199 l 812 -271 q 805 -289 812 -283 q 785 -299 798 -294 q 753 -309 771 -304 q 717 -315 736 -313 q 680 -318 698 -317 q 646 -319 661 -319 q 573 -312 609 -319 q 508 -287 536 -304 q 462 -240 479 -269 q 444 -168 444 -211 q 478 -79 444 -124 q 572 0 511 -34 l 346 0 q 272 5 309 0 q 202 20 235 9 q 139 47 168 31 q 89 90 110 64 q 55 149 67 115 q 43 227 43 182 q 65 328 43 286 q 125 397 87 370 q 212 440 163 425 q 313 459 260 455 l 313 506 q 306 548 313 532 q 289 571 299 564 q 266 582 278 579 q 241 584 253 584 q 213 580 228 584 q 183 570 197 576 q 156 557 169 564 q 134 545 143 551 q 127 541 130 543 q 120 538 123 538 q 109 547 114 538 l 85 584 q 82 594 82 589 q 86 604 82 600 q 95 610 91 608 q 152 642 117 626 q 230 671 186 659 q 323 692 273 684 q 427 701 373 701 q 526 697 477 701 q 617 683 574 694 q 696 651 661 671 q 758 596 732 630 q 798 513 784 562 q 812 394 812 463 l 812 92 m 313 373 q 231 361 264 373 q 177 328 197 349 q 148 281 157 308 q 139 226 139 254 q 148 172 139 197 q 177 127 157 146 q 231 98 197 109 q 313 87 264 87 l 313 373 z "},"Ç":{"ha":869,"x_min":41,"x_max":826,"o":"m 554 490 q 561 346 554 406 q 579 242 568 285 q 605 174 590 200 q 637 133 621 148 q 670 114 653 119 q 701 109 686 109 q 732 113 718 109 q 756 123 745 117 q 774 133 767 129 q 785 138 781 138 q 795 132 791 138 l 824 85 q 826 79 826 81 q 823 73 826 75 q 819 68 821 71 q 769 37 799 53 q 700 8 739 21 q 616 -15 662 -5 q 518 -26 570 -24 l 509 -73 q 588 -95 557 -80 q 639 -132 620 -111 q 665 -177 658 -153 q 673 -229 673 -202 q 653 -310 673 -277 q 600 -363 633 -342 q 524 -392 566 -383 q 437 -401 481 -401 q 400 -399 422 -401 q 356 -392 378 -397 q 320 -377 335 -387 q 304 -353 304 -368 l 304 -288 q 308 -278 304 -281 q 315 -276 311 -276 q 333 -279 323 -276 q 358 -287 343 -283 q 393 -294 373 -291 q 444 -298 414 -298 q 493 -292 473 -298 q 526 -276 513 -286 q 545 -253 539 -266 q 550 -226 550 -240 q 543 -195 550 -209 q 520 -171 536 -181 q 480 -156 505 -161 q 420 -151 455 -151 q 411 -150 416 -151 q 405 -138 405 -149 q 407 -124 405 -135 q 412 -96 409 -113 q 419 -61 416 -80 q 427 -22 423 -41 q 334 -2 380 -17 q 244 39 287 12 q 164 105 201 65 q 100 199 127 144 q 57 326 73 254 q 41 490 41 398 q 61 670 41 592 q 113 805 80 747 q 191 901 146 862 q 286 963 235 939 q 389 996 336 986 q 493 1006 442 1006 q 599 997 549 1006 q 691 975 649 988 q 765 944 732 961 q 819 911 798 927 q 823 906 821 909 q 826 901 826 904 q 824 894 826 898 l 795 848 q 785 842 791 842 q 774 846 781 842 q 756 856 767 850 q 732 866 745 862 q 701 871 718 871 q 670 866 686 871 q 637 846 653 861 q 605 805 621 831 q 579 737 590 779 q 561 634 568 694 q 554 490 554 573 z "},"ç":{"ha":818,"x_min":36,"x_max":804,"o":"m 529 343 q 544 229 529 275 q 581 157 558 184 q 629 119 603 130 q 677 109 654 109 q 708 113 694 109 q 733 123 722 117 q 751 133 744 129 q 763 138 759 138 q 771 136 769 138 q 777 128 774 134 l 801 92 q 804 82 804 86 q 802 75 804 77 q 796 70 799 72 q 745 39 775 55 q 676 9 715 23 q 590 -15 637 -5 q 486 -27 542 -24 l 476 -73 q 556 -95 524 -80 q 606 -132 587 -111 q 633 -177 625 -153 q 640 -229 640 -202 q 620 -310 640 -277 q 567 -363 600 -342 q 491 -392 534 -383 q 404 -401 449 -401 q 368 -399 390 -401 q 324 -392 345 -397 q 287 -377 302 -387 q 272 -353 272 -368 l 272 -288 q 275 -278 272 -281 q 282 -276 279 -276 q 300 -279 290 -276 q 326 -287 311 -283 q 361 -294 340 -291 q 411 -298 381 -298 q 460 -292 440 -298 q 494 -276 481 -286 q 512 -253 507 -266 q 517 -226 517 -240 q 510 -195 517 -209 q 488 -171 503 -181 q 447 -156 472 -161 q 387 -151 422 -151 q 378 -150 384 -151 q 372 -138 372 -149 q 374 -124 372 -135 q 380 -97 376 -113 q 387 -62 383 -81 q 395 -24 391 -43 q 261 5 326 -18 q 146 72 196 28 q 66 183 96 116 q 36 343 36 250 q 53 467 36 412 q 99 563 70 522 q 169 632 129 604 q 255 680 209 661 q 353 706 302 698 q 454 714 404 714 q 562 706 510 714 q 657 683 613 697 q 735 653 701 669 q 792 620 770 636 q 798 615 795 618 q 800 608 800 612 q 797 598 800 603 l 773 562 q 767 554 770 556 q 759 552 765 552 q 748 556 755 552 q 731 565 741 560 q 707 575 721 570 q 677 579 694 579 q 629 568 654 579 q 581 530 603 557 q 544 457 558 503 q 529 343 529 412 z "},"Ć":{"ha":869,"x_min":41,"x_max":826,"o":"m 554 490 q 561 346 554 406 q 579 242 568 285 q 605 174 590 200 q 637 133 621 148 q 670 114 653 119 q 701 109 686 109 q 732 113 718 109 q 756 123 745 117 q 774 133 767 129 q 785 138 781 138 q 795 132 791 138 l 824 85 q 826 79 826 81 q 823 73 826 75 q 819 68 821 71 q 765 35 798 52 q 691 5 732 18 q 599 -18 649 -9 q 493 -26 549 -26 q 389 -17 442 -26 q 286 17 336 -7 q 191 79 235 40 q 113 175 146 117 q 61 310 80 232 q 41 490 41 387 q 61 670 41 592 q 113 805 80 747 q 191 901 146 862 q 286 963 235 939 q 389 996 336 986 q 493 1006 442 1006 q 599 997 549 1006 q 691 975 649 988 q 765 944 732 961 q 819 911 798 927 q 823 906 821 909 q 826 901 826 904 q 824 894 826 898 l 795 848 q 785 842 791 842 q 774 846 781 842 q 756 856 767 850 q 732 866 745 862 q 701 871 718 871 q 670 866 686 871 q 637 846 653 861 q 605 805 621 831 q 579 737 590 779 q 561 634 568 694 q 554 490 554 573 m 430 1068 q 425 1065 427 1067 q 421 1064 423 1064 q 410 1071 414 1064 l 364 1137 q 360 1147 360 1142 q 366 1157 360 1152 l 606 1339 q 616 1343 611 1343 q 626 1337 621 1343 l 688 1249 q 693 1238 693 1243 q 687 1228 693 1232 l 430 1068 z "},"ć":{"ha":818,"x_min":36,"x_max":804,"o":"m 529 343 q 544 229 529 275 q 581 157 558 184 q 629 119 603 130 q 677 109 654 109 q 708 113 694 109 q 733 123 722 117 q 751 133 744 129 q 763 138 759 138 q 771 136 769 138 q 777 128 774 134 l 801 92 q 804 82 804 86 q 802 75 804 77 q 796 70 799 72 q 741 37 774 54 q 666 5 709 20 q 570 -18 623 -9 q 454 -28 517 -28 q 353 -20 404 -28 q 255 7 302 -12 q 169 54 209 25 q 99 124 129 83 q 53 219 70 165 q 36 343 36 274 q 53 467 36 412 q 99 563 70 522 q 169 632 129 604 q 255 680 209 661 q 353 706 302 698 q 454 714 404 714 q 562 706 510 714 q 657 683 613 697 q 735 653 701 669 q 792 620 770 636 q 798 615 795 618 q 800 608 800 612 q 797 598 800 603 l 773 562 q 767 554 770 556 q 759 552 765 552 q 748 556 755 552 q 731 565 741 560 q 707 575 721 570 q 677 579 694 579 q 629 568 654 579 q 581 530 603 557 q 544 457 558 503 q 529 343 529 412 m 378 790 q 374 787 376 789 q 370 786 372 786 q 358 793 362 786 l 313 859 q 309 869 309 864 q 315 879 309 873 l 555 1061 q 564 1065 559 1065 q 574 1059 569 1065 l 637 970 q 642 960 642 965 q 635 950 642 954 l 378 790 z "},"Ĉ":{"ha":869,"x_min":41,"x_max":826,"o":"m 554 490 q 561 346 554 406 q 579 242 568 285 q 605 174 590 200 q 637 133 621 148 q 670 114 653 119 q 701 109 686 109 q 732 113 718 109 q 756 123 745 117 q 774 133 767 129 q 785 138 781 138 q 795 132 791 138 l 824 85 q 826 79 826 81 q 823 73 826 75 q 819 68 821 71 q 765 35 798 52 q 691 5 732 18 q 599 -18 649 -9 q 493 -26 549 -26 q 389 -17 442 -26 q 286 17 336 -7 q 191 79 235 40 q 113 175 146 117 q 61 310 80 232 q 41 490 41 387 q 61 670 41 592 q 113 805 80 747 q 191 901 146 862 q 286 963 235 939 q 389 996 336 986 q 493 1006 442 1006 q 599 997 549 1006 q 691 975 649 988 q 765 944 732 961 q 819 911 798 927 q 823 906 821 909 q 826 901 826 904 q 824 894 826 898 l 795 848 q 785 842 791 842 q 774 846 781 842 q 756 856 767 850 q 732 866 745 862 q 701 871 718 871 q 670 866 686 871 q 637 846 653 861 q 605 805 621 831 q 579 737 590 779 q 561 634 568 694 q 554 490 554 573 m 493 1175 l 341 1068 q 336 1065 338 1067 q 332 1064 334 1064 q 321 1071 326 1064 l 275 1131 q 271 1140 271 1135 q 277 1150 271 1145 l 484 1325 q 488 1328 486 1326 q 493 1329 490 1329 q 498 1328 496 1329 q 503 1325 500 1326 l 709 1150 q 715 1140 715 1145 q 711 1131 715 1135 l 665 1071 q 654 1064 660 1064 q 650 1065 652 1064 q 645 1068 648 1067 l 493 1175 z "},"ĉ":{"ha":818,"x_min":36,"x_max":804,"o":"m 529 343 q 544 229 529 275 q 581 157 558 184 q 629 119 603 130 q 677 109 654 109 q 708 113 694 109 q 733 123 722 117 q 751 133 744 129 q 763 138 759 138 q 771 136 769 138 q 777 128 774 134 l 801 92 q 804 82 804 86 q 802 75 804 77 q 796 70 799 72 q 741 37 774 54 q 666 5 709 20 q 570 -18 623 -9 q 454 -28 517 -28 q 353 -20 404 -28 q 255 7 302 -12 q 169 54 209 25 q 99 124 129 83 q 53 219 70 165 q 36 343 36 274 q 53 467 36 412 q 99 563 70 522 q 169 632 129 604 q 255 680 209 661 q 353 706 302 698 q 454 714 404 714 q 562 706 510 714 q 657 683 613 697 q 735 653 701 669 q 792 620 770 636 q 798 615 795 618 q 800 608 800 612 q 797 598 800 603 l 773 562 q 767 554 770 556 q 759 552 765 552 q 748 556 755 552 q 731 565 741 560 q 707 575 721 570 q 677 579 694 579 q 629 568 654 579 q 581 530 603 557 q 544 457 558 503 q 529 343 529 412 m 441 897 l 290 790 q 285 787 287 789 q 281 786 283 786 q 269 793 274 786 l 224 852 q 220 862 220 857 q 226 872 220 867 l 432 1047 q 436 1050 434 1048 q 441 1051 438 1051 q 447 1050 445 1051 q 451 1047 449 1048 l 657 872 q 663 862 663 867 q 659 852 663 857 l 614 793 q 602 786 608 786 q 598 787 600 786 q 593 790 596 789 l 441 897 z "},"Ċ":{"ha":869,"x_min":41,"x_max":826,"o":"m 554 490 q 561 346 554 406 q 579 242 568 285 q 605 174 590 200 q 637 133 621 148 q 670 114 653 119 q 701 109 686 109 q 732 113 718 109 q 756 123 745 117 q 774 133 767 129 q 785 138 781 138 q 795 132 791 138 l 824 85 q 826 79 826 81 q 823 73 826 75 q 819 68 821 71 q 765 35 798 52 q 691 5 732 18 q 599 -18 649 -9 q 493 -26 549 -26 q 389 -17 442 -26 q 286 17 336 -7 q 191 79 235 40 q 113 175 146 117 q 61 310 80 232 q 41 490 41 387 q 61 670 41 592 q 113 805 80 747 q 191 901 146 862 q 286 963 235 939 q 389 996 336 986 q 493 1006 442 1006 q 599 997 549 1006 q 691 975 649 988 q 765 944 732 961 q 819 911 798 927 q 823 906 821 909 q 826 901 826 904 q 824 894 826 898 l 795 848 q 785 842 791 842 q 774 846 781 842 q 756 856 767 850 q 732 866 745 862 q 701 871 718 871 q 670 866 686 871 q 637 846 653 861 q 605 805 621 831 q 579 737 590 779 q 561 634 568 694 q 554 490 554 573 m 393 1180 q 401 1219 393 1201 q 422 1251 409 1238 q 454 1273 436 1265 q 493 1280 473 1280 q 532 1273 514 1280 q 564 1251 551 1265 q 586 1219 578 1238 q 593 1180 593 1201 q 586 1141 593 1160 q 564 1109 578 1123 q 532 1088 551 1096 q 493 1080 514 1080 q 454 1088 473 1080 q 422 1109 436 1096 q 401 1141 409 1123 q 393 1180 393 1160 z "},"ċ":{"ha":818,"x_min":36,"x_max":804,"o":"m 529 343 q 544 229 529 275 q 581 157 558 184 q 629 119 603 130 q 677 109 654 109 q 708 113 694 109 q 733 123 722 117 q 751 133 744 129 q 763 138 759 138 q 771 136 769 138 q 777 128 774 134 l 801 92 q 804 82 804 86 q 802 75 804 77 q 796 70 799 72 q 741 37 774 54 q 666 5 709 20 q 570 -18 623 -9 q 454 -28 517 -28 q 353 -20 404 -28 q 255 7 302 -12 q 169 54 209 25 q 99 124 129 83 q 53 219 70 165 q 36 343 36 274 q 53 467 36 412 q 99 563 70 522 q 169 632 129 604 q 255 680 209 661 q 353 706 302 698 q 454 714 404 714 q 562 706 510 714 q 657 683 613 697 q 735 653 701 669 q 792 620 770 636 q 798 615 795 618 q 800 608 800 612 q 797 598 800 603 l 773 562 q 767 554 770 556 q 759 552 765 552 q 748 556 755 552 q 731 565 741 560 q 707 575 721 570 q 677 579 694 579 q 629 568 654 579 q 581 530 603 557 q 544 457 558 503 q 529 343 529 412 m 342 902 q 350 941 342 923 q 371 973 357 960 q 403 995 385 987 q 441 1002 421 1002 q 481 995 463 1002 q 513 973 499 987 q 534 941 526 960 q 542 902 542 923 q 534 863 542 882 q 513 831 526 845 q 481 810 499 818 q 441 802 463 802 q 403 810 421 802 q 371 831 385 818 q 350 863 357 845 q 342 902 342 882 z "},"Č":{"ha":869,"x_min":41,"x_max":826,"o":"m 554 490 q 561 346 554 406 q 579 242 568 285 q 605 174 590 200 q 637 133 621 148 q 670 114 653 119 q 701 109 686 109 q 732 113 718 109 q 756 123 745 117 q 774 133 767 129 q 785 138 781 138 q 795 132 791 138 l 824 85 q 826 79 826 81 q 823 73 826 75 q 819 68 821 71 q 765 35 798 52 q 691 5 732 18 q 599 -18 649 -9 q 493 -26 549 -26 q 389 -17 442 -26 q 286 17 336 -7 q 191 79 235 40 q 113 175 146 117 q 61 310 80 232 q 41 490 41 387 q 61 670 41 592 q 113 805 80 747 q 191 901 146 862 q 286 963 235 939 q 389 996 336 986 q 493 1006 442 1006 q 599 997 549 1006 q 691 975 649 988 q 765 944 732 961 q 819 911 798 927 q 823 906 821 909 q 826 901 826 904 q 824 894 826 898 l 795 848 q 785 842 791 842 q 774 846 781 842 q 756 856 767 850 q 732 866 745 862 q 701 871 718 871 q 670 866 686 871 q 637 846 653 861 q 605 805 621 831 q 579 737 590 779 q 561 634 568 694 q 554 490 554 573 m 645 1325 q 650 1328 648 1326 q 654 1329 652 1329 q 665 1322 660 1329 l 711 1263 q 715 1253 715 1257 q 709 1243 715 1248 l 503 1068 q 498 1065 500 1067 q 493 1064 496 1064 q 488 1065 490 1064 q 484 1068 486 1067 l 277 1243 q 271 1253 271 1248 q 275 1263 271 1257 l 321 1322 q 327 1328 324 1326 q 332 1329 329 1329 q 336 1328 334 1329 q 341 1325 338 1326 l 493 1218 l 645 1325 z "},"č":{"ha":818,"x_min":36,"x_max":804,"o":"m 529 343 q 544 229 529 275 q 581 157 558 184 q 629 119 603 130 q 677 109 654 109 q 708 113 694 109 q 733 123 722 117 q 751 133 744 129 q 763 138 759 138 q 771 136 769 138 q 777 128 774 134 l 801 92 q 804 82 804 86 q 802 75 804 77 q 796 70 799 72 q 741 37 774 54 q 666 5 709 20 q 570 -18 623 -9 q 454 -28 517 -28 q 353 -20 404 -28 q 255 7 302 -12 q 169 54 209 25 q 99 124 129 83 q 53 219 70 165 q 36 343 36 274 q 53 467 36 412 q 99 563 70 522 q 169 632 129 604 q 255 680 209 661 q 353 706 302 698 q 454 714 404 714 q 562 706 510 714 q 657 683 613 697 q 735 653 701 669 q 792 620 770 636 q 798 615 795 618 q 800 608 800 612 q 797 598 800 603 l 773 562 q 767 554 770 556 q 759 552 765 552 q 748 556 755 552 q 731 565 741 560 q 707 575 721 570 q 677 579 694 579 q 629 568 654 579 q 581 530 603 557 q 544 457 558 503 q 529 343 529 412 m 593 1047 q 598 1050 596 1048 q 602 1051 600 1051 q 614 1044 608 1051 l 659 985 q 663 975 663 979 q 657 965 663 970 l 451 790 q 447 787 449 789 q 441 786 445 786 q 436 787 438 786 q 432 790 434 789 l 226 965 q 220 975 220 970 q 224 985 220 979 l 269 1044 q 275 1050 273 1048 q 281 1051 277 1051 q 285 1050 283 1051 q 290 1047 287 1048 l 441 940 l 593 1047 z "},"Ď":{"ha":945,"x_min":62,"x_max":903,"o":"m 62 879 q 66 920 62 903 q 82 950 71 938 q 114 968 94 962 q 167 974 134 974 l 493 974 q 594 967 544 974 q 690 941 644 960 q 774 891 735 923 q 842 808 813 859 q 886 686 870 757 q 903 518 903 614 q 885 322 903 405 q 839 182 868 240 q 769 89 809 125 q 682 34 728 54 q 586 7 635 14 q 486 0 536 0 l 167 0 q 114 6 134 0 q 82 24 94 12 q 66 53 71 35 q 62 94 62 71 l 62 879 m 807 504 q 793 657 807 588 q 751 775 780 726 q 676 851 722 824 q 568 879 631 878 l 568 94 q 677 127 631 95 q 751 215 722 159 q 793 345 780 271 q 807 504 807 419 m 549 1297 q 553 1300 551 1299 q 557 1301 555 1301 q 569 1295 564 1301 l 614 1235 q 618 1225 618 1230 q 612 1215 618 1220 l 406 1040 q 402 1038 404 1039 q 397 1036 400 1036 q 391 1038 393 1036 q 387 1040 389 1039 l 181 1215 q 175 1225 175 1220 q 179 1235 175 1230 l 224 1295 q 230 1300 228 1299 q 236 1301 233 1301 q 240 1300 238 1301 q 245 1297 242 1299 l 397 1190 l 549 1297 z "},"ď":{"ha":1085,"x_min":36,"x_max":1085,"o":"m 832 94 q 828 53 832 71 q 812 24 824 35 q 781 6 801 12 q 728 0 760 0 l 431 0 q 333 9 382 1 q 241 34 285 17 q 160 77 197 50 q 95 142 122 104 q 52 232 67 180 q 36 351 36 284 q 60 495 36 435 q 124 595 83 555 q 219 660 165 636 q 332 694 273 684 l 332 1016 q 336 1058 332 1040 q 350 1087 339 1076 q 380 1105 361 1099 q 431 1111 399 1111 l 728 1111 q 781 1105 760 1111 q 812 1087 801 1099 q 828 1058 824 1076 q 832 1017 832 1040 l 832 94 m 132 351 q 144 257 132 300 q 179 179 155 213 q 241 124 203 146 q 332 96 279 102 l 332 608 q 241 579 279 602 q 179 524 203 557 q 144 446 155 490 q 132 351 132 401 m 895 911 q 902 948 895 930 q 923 978 909 965 q 953 998 936 991 q 990 1006 970 1006 q 1027 998 1010 1006 q 1057 978 1044 991 q 1078 948 1070 965 q 1085 911 1085 930 q 1081 885 1085 898 q 1074 861 1078 871 l 1020 734 q 1011 719 1015 724 q 996 713 1008 713 l 947 713 q 935 722 935 713 q 938 732 935 726 l 976 817 q 944 828 959 819 q 919 849 930 836 q 901 877 907 861 q 895 911 895 893 z "},"Ð":{"ha":965,"x_min":0,"x_max":923,"o":"m 14 355 q 0 370 0 355 l 0 439 q 14 453 0 453 l 83 453 l 83 879 q 87 920 83 903 q 102 950 91 938 q 134 968 114 962 q 187 974 155 974 l 513 974 q 614 967 564 974 q 710 941 665 960 q 794 891 755 923 q 862 808 833 859 q 907 686 890 757 q 923 518 923 614 q 906 322 923 405 q 859 182 888 240 q 789 89 829 125 q 702 34 749 54 q 606 7 656 14 q 507 0 556 0 l 187 0 q 134 6 155 0 q 102 24 114 12 q 87 53 91 35 q 83 94 83 71 l 83 355 l 14 355 m 589 94 q 697 127 652 95 q 771 215 743 159 q 814 345 800 271 q 827 504 827 419 q 814 657 827 588 q 771 775 800 726 q 697 851 742 824 q 589 879 652 878 l 589 453 l 696 453 q 711 439 711 453 l 711 370 q 696 355 711 355 l 589 355 l 589 94 z "},"ð":{"ha":908,"x_min":36,"x_max":872,"o":"m 345 802 q 341 813 341 807 q 351 830 341 823 l 424 889 q 371 925 395 910 q 328 952 347 941 q 321 956 324 954 q 317 964 317 959 q 322 977 317 969 l 366 1042 q 381 1053 374 1053 q 388 1052 385 1053 q 393 1050 391 1051 q 460 1014 427 1033 q 526 972 493 994 l 614 1043 q 629 1050 623 1050 q 642 1043 636 1050 l 680 997 q 684 991 682 994 q 686 984 686 987 q 679 972 686 977 l 603 910 q 711 795 661 858 q 796 661 760 733 q 852 509 832 589 q 872 340 872 428 q 854 208 872 264 q 806 111 837 151 q 734 44 775 71 q 647 3 694 18 q 551 -18 601 -12 q 454 -24 502 -24 q 353 -16 404 -24 q 255 9 302 -8 q 169 54 209 26 q 99 121 129 81 q 53 214 70 161 q 36 335 36 267 q 53 455 36 402 q 99 548 70 508 q 169 616 129 588 q 255 661 209 644 q 353 687 302 679 q 454 694 404 694 q 543 689 498 694 q 633 671 588 684 q 568 756 602 718 q 500 827 534 795 l 412 755 q 397 749 404 749 q 388 752 392 749 q 380 759 383 755 l 345 802 m 663 139 q 704 148 684 139 q 741 179 725 156 q 767 240 757 201 q 777 340 777 279 q 767 435 777 398 q 741 494 757 473 q 704 524 724 515 q 663 532 684 532 q 626 525 646 532 q 589 498 606 519 q 560 439 572 478 q 549 335 549 400 q 558 232 549 271 q 583 173 568 193 q 620 145 599 152 q 663 139 640 139 z "},"Đ":{"ha":965,"x_min":0,"x_max":923,"o":"m 14 355 q 0 370 0 355 l 0 439 q 14 453 0 453 l 83 453 l 83 879 q 87 920 83 903 q 102 950 91 938 q 134 968 114 962 q 187 974 155 974 l 513 974 q 614 967 564 974 q 710 941 665 960 q 794 891 755 923 q 862 808 833 859 q 907 686 890 757 q 923 518 923 614 q 906 322 923 405 q 859 182 888 240 q 789 89 829 125 q 702 34 749 54 q 606 7 656 14 q 507 0 556 0 l 187 0 q 134 6 155 0 q 102 24 114 12 q 87 53 91 35 q 83 94 83 71 l 83 355 l 14 355 m 589 94 q 697 127 652 95 q 771 215 743 159 q 814 345 800 271 q 827 504 827 419 q 814 657 827 588 q 771 775 800 726 q 697 851 742 824 q 589 879 652 878 l 589 453 l 696 453 q 711 439 711 453 l 711 370 q 696 355 711 355 l 589 355 l 589 94 z "},"đ":{"ha":895,"x_min":36,"x_max":908,"o":"m 832 900 l 894 900 q 908 886 908 900 l 908 817 q 894 802 908 802 l 832 802 l 832 94 q 828 53 832 71 q 812 24 824 35 q 781 6 801 12 q 728 0 760 0 l 431 0 q 333 9 382 1 q 241 34 285 17 q 160 77 197 50 q 95 142 122 104 q 52 232 67 180 q 36 351 36 284 q 60 495 36 435 q 124 595 83 555 q 219 660 165 636 q 332 694 273 684 l 332 802 l 198 802 q 184 817 184 802 l 184 886 q 198 900 184 900 l 332 900 l 332 1016 q 336 1058 332 1040 q 350 1087 339 1076 q 380 1105 361 1099 q 431 1111 399 1111 l 728 1111 q 781 1105 760 1111 q 812 1087 801 1099 q 828 1058 824 1076 q 832 1017 832 1040 l 832 900 m 132 351 q 144 257 132 300 q 179 179 155 213 q 241 124 203 146 q 332 96 279 102 l 332 608 q 241 579 279 602 q 179 524 203 557 q 144 446 155 490 q 132 351 132 401 z "},"È":{"ha":888,"x_min":62,"x_max":860,"o":"m 568 633 l 568 83 q 689 100 634 93 q 735 107 712 104 q 779 113 759 110 q 812 117 798 115 q 832 118 827 118 q 852 114 844 118 q 860 96 860 109 l 860 33 q 854 11 860 21 q 825 0 848 0 l 165 0 q 114 6 134 0 q 82 24 94 12 q 66 53 71 35 q 62 94 62 71 l 62 856 q 71 918 62 895 q 96 954 80 941 q 135 970 113 966 q 186 974 158 974 l 799 974 q 828 963 822 974 q 835 940 835 953 l 835 892 q 828 874 835 878 q 809 869 821 869 q 788 871 802 869 q 756 874 774 872 q 717 880 738 877 q 675 886 696 882 q 568 903 626 893 l 568 730 l 821 730 q 835 716 835 730 l 835 648 q 821 633 835 633 l 568 633 m 256 1200 q 250 1211 250 1204 q 255 1221 250 1215 l 317 1309 q 328 1315 322 1315 q 337 1311 332 1315 l 577 1129 q 583 1119 583 1124 q 579 1109 583 1114 l 534 1043 q 522 1036 530 1036 q 518 1038 520 1036 q 513 1040 516 1039 l 256 1200 z "},"è":{"ha":889,"x_min":36,"x_max":853,"o":"m 677 113 q 710 118 695 113 q 737 129 725 123 q 756 140 749 135 q 768 145 764 145 q 777 143 774 145 q 783 136 779 141 l 806 99 q 810 90 810 94 q 807 82 810 85 q 802 77 804 79 q 747 44 779 62 q 671 11 714 26 q 574 -14 628 -4 q 454 -24 519 -24 q 353 -16 404 -24 q 255 10 302 -7 q 169 56 209 28 q 99 126 129 85 q 53 222 70 168 q 36 347 36 277 q 53 471 36 416 q 99 567 70 526 q 169 637 129 608 q 255 684 209 666 q 353 710 302 702 q 454 718 404 718 q 612 699 539 718 q 739 637 685 680 q 823 523 792 593 q 853 350 853 452 l 853 312 q 847 293 853 300 q 827 286 841 286 l 546 286 q 565 202 551 236 q 597 149 579 169 q 636 121 615 129 q 677 113 657 113 m 757 370 q 748 459 757 424 q 726 516 740 495 q 692 547 711 538 q 652 555 673 555 q 618 549 636 555 q 584 524 600 543 q 556 467 568 504 q 543 370 545 431 l 757 370 m 250 950 q 243 960 243 954 q 248 970 243 965 l 311 1059 q 321 1065 315 1065 q 330 1061 325 1065 l 570 879 q 576 869 576 873 q 572 859 576 864 l 527 793 q 515 786 523 786 q 511 787 513 786 q 507 790 509 789 l 250 950 z "},"É":{"ha":888,"x_min":62,"x_max":860,"o":"m 568 633 l 568 83 q 689 100 634 93 q 735 107 712 104 q 779 113 759 110 q 812 117 798 115 q 832 118 827 118 q 852 114 844 118 q 860 96 860 109 l 860 33 q 854 11 860 21 q 825 0 848 0 l 165 0 q 114 6 134 0 q 82 24 94 12 q 66 53 71 35 q 62 94 62 71 l 62 856 q 71 918 62 895 q 96 954 80 941 q 135 970 113 966 q 186 974 158 974 l 799 974 q 828 963 822 974 q 835 940 835 953 l 835 892 q 828 874 835 878 q 809 869 821 869 q 788 871 802 869 q 756 874 774 872 q 717 880 738 877 q 675 886 696 882 q 568 903 626 893 l 568 730 l 821 730 q 835 716 835 730 l 835 648 q 821 633 835 633 l 568 633 m 387 1040 q 382 1038 385 1039 q 378 1036 380 1036 q 367 1043 371 1036 l 321 1109 q 317 1119 317 1114 q 323 1129 317 1124 l 564 1311 q 573 1315 568 1315 q 583 1309 578 1315 l 646 1221 q 650 1211 650 1215 q 644 1200 650 1204 l 387 1040 z "},"é":{"ha":889,"x_min":36,"x_max":853,"o":"m 677 113 q 710 118 695 113 q 737 129 725 123 q 756 140 749 135 q 768 145 764 145 q 777 143 774 145 q 783 136 779 141 l 806 99 q 810 90 810 94 q 807 82 810 85 q 802 77 804 79 q 747 44 779 62 q 671 11 714 26 q 574 -14 628 -4 q 454 -24 519 -24 q 353 -16 404 -24 q 255 10 302 -7 q 169 56 209 28 q 99 126 129 85 q 53 222 70 168 q 36 347 36 277 q 53 471 36 416 q 99 567 70 526 q 169 637 129 608 q 255 684 209 666 q 353 710 302 702 q 454 718 404 718 q 612 699 539 718 q 739 637 685 680 q 823 523 792 593 q 853 350 853 452 l 853 312 q 847 293 853 300 q 827 286 841 286 l 546 286 q 565 202 551 236 q 597 149 579 169 q 636 121 615 129 q 677 113 657 113 m 757 370 q 748 459 757 424 q 726 516 740 495 q 692 547 711 538 q 652 555 673 555 q 618 549 636 555 q 584 524 600 543 q 556 467 568 504 q 543 370 545 431 l 757 370 m 380 790 q 376 787 378 789 q 372 786 374 786 q 360 793 364 786 l 315 859 q 311 869 311 864 q 317 879 311 873 l 557 1061 q 566 1065 562 1065 q 576 1059 571 1065 l 639 970 q 644 960 644 965 q 637 950 644 954 l 380 790 z "},"Ê":{"ha":888,"x_min":62,"x_max":860,"o":"m 568 633 l 568 83 q 689 100 634 93 q 735 107 712 104 q 779 113 759 110 q 812 117 798 115 q 832 118 827 118 q 852 114 844 118 q 860 96 860 109 l 860 33 q 854 11 860 21 q 825 0 848 0 l 165 0 q 114 6 134 0 q 82 24 94 12 q 66 53 71 35 q 62 94 62 71 l 62 856 q 71 918 62 895 q 96 954 80 941 q 135 970 113 966 q 186 974 158 974 l 799 974 q 828 963 822 974 q 835 940 835 953 l 835 892 q 828 874 835 878 q 809 869 821 869 q 788 871 802 869 q 756 874 774 872 q 717 880 738 877 q 675 886 696 882 q 568 903 626 893 l 568 730 l 821 730 q 835 716 835 730 l 835 648 q 821 633 835 633 l 568 633 m 450 1147 l 298 1040 q 294 1038 296 1039 q 290 1036 292 1036 q 278 1043 283 1036 l 233 1103 q 229 1112 229 1107 q 235 1122 229 1117 l 441 1297 q 445 1300 443 1299 q 450 1301 447 1301 q 456 1300 454 1301 q 460 1297 458 1299 l 666 1122 q 672 1112 672 1117 q 668 1103 672 1107 l 623 1043 q 611 1036 617 1036 q 607 1038 609 1036 q 602 1040 605 1039 l 450 1147 z "},"ê":{"ha":889,"x_min":36,"x_max":853,"o":"m 677 113 q 710 118 695 113 q 737 129 725 123 q 756 140 749 135 q 768 145 764 145 q 777 143 774 145 q 783 136 779 141 l 806 99 q 810 90 810 94 q 807 82 810 85 q 802 77 804 79 q 747 44 779 62 q 671 11 714 26 q 574 -14 628 -4 q 454 -24 519 -24 q 353 -16 404 -24 q 255 10 302 -7 q 169 56 209 28 q 99 126 129 85 q 53 222 70 168 q 36 347 36 277 q 53 471 36 416 q 99 567 70 526 q 169 637 129 608 q 255 684 209 666 q 353 710 302 702 q 454 718 404 718 q 612 699 539 718 q 739 637 685 680 q 823 523 792 593 q 853 350 853 452 l 853 312 q 847 293 853 300 q 827 286 841 286 l 546 286 q 565 202 551 236 q 597 149 579 169 q 636 121 615 129 q 677 113 657 113 m 757 370 q 748 459 757 424 q 726 516 740 495 q 692 547 711 538 q 652 555 673 555 q 618 549 636 555 q 584 524 600 543 q 556 467 568 504 q 543 370 545 431 l 757 370 m 444 897 l 292 790 q 287 787 289 789 q 283 786 285 786 q 271 793 276 786 l 226 852 q 222 862 222 857 q 228 872 222 867 l 434 1047 q 438 1050 436 1048 q 444 1051 440 1051 q 449 1050 447 1051 q 453 1047 451 1048 l 659 872 q 665 862 665 867 q 661 852 665 857 l 616 793 q 604 786 610 786 q 600 787 602 786 q 595 790 598 789 l 444 897 z "},"Ë":{"ha":888,"x_min":62,"x_max":860,"o":"m 568 633 l 568 83 q 689 100 634 93 q 735 107 712 104 q 779 113 759 110 q 812 117 798 115 q 832 118 827 118 q 852 114 844 118 q 860 96 860 109 l 860 33 q 854 11 860 21 q 825 0 848 0 l 165 0 q 114 6 134 0 q 82 24 94 12 q 66 53 71 35 q 62 94 62 71 l 62 856 q 71 918 62 895 q 96 954 80 941 q 135 970 113 966 q 186 974 158 974 l 799 974 q 828 963 822 974 q 835 940 835 953 l 835 892 q 828 874 835 878 q 809 869 821 869 q 788 871 802 869 q 756 874 774 872 q 717 880 738 877 q 675 886 696 882 q 568 903 626 893 l 568 730 l 821 730 q 835 716 835 730 l 835 648 q 821 633 835 633 l 568 633 m 229 1152 q 236 1187 229 1171 q 255 1215 243 1203 q 283 1234 267 1227 q 317 1241 299 1241 q 352 1234 336 1241 q 380 1215 368 1227 q 399 1187 392 1203 q 406 1152 406 1171 q 399 1118 406 1134 q 380 1089 392 1101 q 352 1070 368 1078 q 317 1063 336 1063 q 283 1070 299 1063 q 255 1089 267 1078 q 236 1118 243 1101 q 229 1152 229 1134 m 494 1152 q 502 1187 494 1171 q 520 1215 509 1203 q 549 1234 532 1227 q 583 1241 565 1241 q 618 1234 602 1241 q 646 1215 634 1227 q 665 1187 658 1203 q 672 1152 672 1171 q 665 1118 672 1134 q 646 1089 658 1101 q 618 1070 634 1078 q 583 1063 602 1063 q 549 1070 565 1063 q 520 1089 532 1078 q 502 1118 509 1101 q 494 1152 494 1134 z "},"ë":{"ha":889,"x_min":36,"x_max":853,"o":"m 677 113 q 710 118 695 113 q 737 129 725 123 q 756 140 749 135 q 768 145 764 145 q 777 143 774 145 q 783 136 779 141 l 806 99 q 810 90 810 94 q 807 82 810 85 q 802 77 804 79 q 747 44 779 62 q 671 11 714 26 q 574 -14 628 -4 q 454 -24 519 -24 q 353 -16 404 -24 q 255 10 302 -7 q 169 56 209 28 q 99 126 129 85 q 53 222 70 168 q 36 347 36 277 q 53 471 36 416 q 99 567 70 526 q 169 637 129 608 q 255 684 209 666 q 353 710 302 702 q 454 718 404 718 q 612 699 539 718 q 739 637 685 680 q 823 523 792 593 q 853 350 853 452 l 853 312 q 847 293 853 300 q 827 286 841 286 l 546 286 q 565 202 551 236 q 597 149 579 169 q 636 121 615 129 q 677 113 657 113 m 757 370 q 748 459 757 424 q 726 516 740 495 q 692 547 711 538 q 652 555 673 555 q 618 549 636 555 q 584 524 600 543 q 556 467 568 504 q 543 370 545 431 l 757 370 m 222 902 q 229 937 222 920 q 248 965 236 953 q 276 984 260 977 q 311 991 292 991 q 345 984 329 991 q 373 965 361 977 q 392 937 385 953 q 399 902 399 920 q 392 867 399 884 q 373 839 385 851 q 345 820 361 827 q 311 813 329 813 q 276 820 292 813 q 248 839 260 827 q 229 867 236 851 q 222 902 222 884 m 488 902 q 495 937 488 920 q 514 965 502 953 q 542 984 526 977 q 576 991 558 991 q 611 984 595 991 q 639 965 627 977 q 658 937 651 953 q 665 902 665 920 q 658 867 665 884 q 639 839 651 851 q 611 820 627 827 q 576 813 595 813 q 542 820 558 813 q 514 839 526 827 q 495 867 502 851 q 488 902 488 884 z "},"Ē":{"ha":888,"x_min":62,"x_max":860,"o":"m 568 633 l 568 83 q 689 100 634 93 q 735 107 712 104 q 779 113 759 110 q 812 117 798 115 q 832 118 827 118 q 852 114 844 118 q 860 96 860 109 l 860 33 q 854 11 860 21 q 825 0 848 0 l 165 0 q 114 6 134 0 q 82 24 94 12 q 66 53 71 35 q 62 94 62 71 l 62 856 q 71 918 62 895 q 96 954 80 941 q 135 970 113 966 q 186 974 158 974 l 799 974 q 828 963 822 974 q 835 940 835 953 l 835 892 q 828 874 835 878 q 809 869 821 869 q 788 871 802 869 q 756 874 774 872 q 717 880 738 877 q 675 886 696 882 q 568 903 626 893 l 568 730 l 821 730 q 835 716 835 730 l 835 648 q 821 633 835 633 l 568 633 m 270 1082 q 256 1097 256 1082 l 256 1206 q 270 1220 256 1220 l 631 1220 q 645 1206 645 1220 l 645 1097 q 631 1082 645 1082 l 270 1082 z "},"ē":{"ha":889,"x_min":36,"x_max":853,"o":"m 677 113 q 710 118 695 113 q 737 129 725 123 q 756 140 749 135 q 768 145 764 145 q 777 143 774 145 q 783 136 779 141 l 806 99 q 810 90 810 94 q 807 82 810 85 q 802 77 804 79 q 747 44 779 62 q 671 11 714 26 q 574 -14 628 -4 q 454 -24 519 -24 q 353 -16 404 -24 q 255 10 302 -7 q 169 56 209 28 q 99 126 129 85 q 53 222 70 168 q 36 347 36 277 q 53 471 36 416 q 99 567 70 526 q 169 637 129 608 q 255 684 209 666 q 353 710 302 702 q 454 718 404 718 q 612 699 539 718 q 739 637 685 680 q 823 523 792 593 q 853 350 853 452 l 853 312 q 847 293 853 300 q 827 286 841 286 l 546 286 q 565 202 551 236 q 597 149 579 169 q 636 121 615 129 q 677 113 657 113 m 757 370 q 748 459 757 424 q 726 516 740 495 q 692 547 711 538 q 652 555 673 555 q 618 549 636 555 q 584 524 600 543 q 556 467 568 504 q 543 370 545 431 l 757 370 m 263 832 q 249 847 249 832 l 249 956 q 263 970 249 970 l 624 970 q 638 956 638 970 l 638 847 q 624 832 638 832 l 263 832 z "},"Ĕ":{"ha":888,"x_min":62,"x_max":860,"o":"m 568 633 l 568 83 q 689 100 634 93 q 735 107 712 104 q 779 113 759 110 q 812 117 798 115 q 832 118 827 118 q 852 114 844 118 q 860 96 860 109 l 860 33 q 854 11 860 21 q 825 0 848 0 l 165 0 q 114 6 134 0 q 82 24 94 12 q 66 53 71 35 q 62 94 62 71 l 62 856 q 71 918 62 895 q 96 954 80 941 q 135 970 113 966 q 186 974 158 974 l 799 974 q 828 963 822 974 q 835 940 835 953 l 835 892 q 828 874 835 878 q 809 869 821 869 q 788 871 802 869 q 756 874 774 872 q 717 880 738 877 q 675 886 696 882 q 568 903 626 893 l 568 730 l 821 730 q 835 716 835 730 l 835 648 q 821 633 835 633 l 568 633 m 450 1170 q 494 1178 477 1170 q 522 1197 511 1186 q 538 1221 532 1208 q 546 1240 543 1233 q 552 1256 549 1249 q 564 1262 555 1262 l 645 1262 q 655 1258 652 1262 q 659 1250 659 1253 q 638 1153 659 1191 q 588 1091 618 1114 q 521 1059 557 1068 q 450 1050 484 1050 q 380 1059 416 1050 q 313 1091 343 1068 q 262 1153 282 1114 q 242 1250 242 1191 q 245 1258 242 1253 q 256 1262 248 1262 l 336 1262 q 349 1256 346 1262 q 355 1240 351 1249 q 363 1221 357 1233 q 379 1197 368 1208 q 407 1178 389 1186 q 450 1170 424 1170 z "},"ĕ":{"ha":889,"x_min":36,"x_max":853,"o":"m 677 113 q 710 118 695 113 q 737 129 725 123 q 756 140 749 135 q 768 145 764 145 q 777 143 774 145 q 783 136 779 141 l 806 99 q 810 90 810 94 q 807 82 810 85 q 802 77 804 79 q 747 44 779 62 q 671 11 714 26 q 574 -14 628 -4 q 454 -24 519 -24 q 353 -16 404 -24 q 255 10 302 -7 q 169 56 209 28 q 99 126 129 85 q 53 222 70 168 q 36 347 36 277 q 53 471 36 416 q 99 567 70 526 q 169 637 129 608 q 255 684 209 666 q 353 710 302 702 q 454 718 404 718 q 612 699 539 718 q 739 637 685 680 q 823 523 792 593 q 853 350 853 452 l 853 312 q 847 293 853 300 q 827 286 841 286 l 546 286 q 565 202 551 236 q 597 149 579 169 q 636 121 615 129 q 677 113 657 113 m 757 370 q 748 459 757 424 q 726 516 740 495 q 692 547 711 538 q 652 555 673 555 q 618 549 636 555 q 584 524 600 543 q 556 467 568 504 q 543 370 545 431 l 757 370 m 444 920 q 487 928 470 920 q 515 947 505 936 q 531 970 526 958 q 539 990 536 983 q 545 1005 543 999 q 557 1012 548 1012 l 638 1012 q 649 1007 646 1012 q 652 1000 652 1003 q 632 902 652 941 q 581 841 612 864 q 514 809 551 818 q 444 800 477 800 q 373 809 410 800 q 306 841 336 818 q 255 902 275 864 q 235 1000 235 941 q 238 1007 235 1003 q 249 1012 241 1012 l 330 1012 q 342 1005 339 1012 q 348 990 345 999 q 356 970 351 983 q 372 947 361 958 q 400 928 382 936 q 444 920 417 920 z "},"Ė":{"ha":888,"x_min":62,"x_max":860,"o":"m 568 633 l 568 83 q 689 100 634 93 q 735 107 712 104 q 779 113 759 110 q 812 117 798 115 q 832 118 827 118 q 852 114 844 118 q 860 96 860 109 l 860 33 q 854 11 860 21 q 825 0 848 0 l 165 0 q 114 6 134 0 q 82 24 94 12 q 66 53 71 35 q 62 94 62 71 l 62 856 q 71 918 62 895 q 96 954 80 941 q 135 970 113 966 q 186 974 158 974 l 799 974 q 828 963 822 974 q 835 940 835 953 l 835 892 q 828 874 835 878 q 809 869 821 869 q 788 871 802 869 q 756 874 774 872 q 717 880 738 877 q 675 886 696 882 q 568 903 626 893 l 568 730 l 821 730 q 835 716 835 730 l 835 648 q 821 633 835 633 l 568 633 m 351 1152 q 358 1192 351 1173 q 380 1223 366 1210 q 412 1245 393 1237 q 450 1253 430 1253 q 490 1245 471 1253 q 522 1223 508 1237 q 543 1192 535 1210 q 551 1152 551 1173 q 543 1114 551 1132 q 522 1082 535 1095 q 490 1060 508 1068 q 450 1053 471 1053 q 412 1060 430 1053 q 380 1082 393 1068 q 358 1114 366 1095 q 351 1152 351 1132 z "},"ė":{"ha":889,"x_min":36,"x_max":853,"o":"m 677 113 q 710 118 695 113 q 737 129 725 123 q 756 140 749 135 q 768 145 764 145 q 777 143 774 145 q 783 136 779 141 l 806 99 q 810 90 810 94 q 807 82 810 85 q 802 77 804 79 q 747 44 779 62 q 671 11 714 26 q 574 -14 628 -4 q 454 -24 519 -24 q 353 -16 404 -24 q 255 10 302 -7 q 169 56 209 28 q 99 126 129 85 q 53 222 70 168 q 36 347 36 277 q 53 471 36 416 q 99 567 70 526 q 169 637 129 608 q 255 684 209 666 q 353 710 302 702 q 454 718 404 718 q 612 699 539 718 q 739 637 685 680 q 823 523 792 593 q 853 350 853 452 l 853 312 q 847 293 853 300 q 827 286 841 286 l 546 286 q 565 202 551 236 q 597 149 579 169 q 636 121 615 129 q 677 113 657 113 m 757 370 q 748 459 757 424 q 726 516 740 495 q 692 547 711 538 q 652 555 673 555 q 618 549 636 555 q 584 524 600 543 q 556 467 568 504 q 543 370 545 431 l 757 370 m 344 902 q 352 941 344 923 q 373 973 359 960 q 405 995 387 987 q 444 1002 423 1002 q 483 995 465 1002 q 515 973 501 987 q 536 941 528 960 q 544 902 544 923 q 536 863 544 882 q 515 831 528 845 q 483 810 501 818 q 444 802 465 802 q 405 810 423 802 q 373 831 387 818 q 352 863 359 845 q 344 902 344 882 z "},"Ę":{"ha":888,"x_min":62,"x_max":867,"o":"m 568 633 l 568 83 q 689 100 634 93 q 735 107 712 104 q 779 113 759 110 q 812 117 798 115 q 832 118 827 118 q 852 114 844 118 q 860 96 860 109 l 860 33 q 853 15 860 21 q 825 0 846 8 q 752 -34 789 -14 q 687 -78 716 -55 q 640 -126 658 -102 q 621 -172 621 -151 q 626 -198 621 -186 q 643 -218 631 -210 q 675 -232 655 -227 q 724 -237 694 -237 q 779 -233 757 -237 q 815 -226 801 -230 q 840 -218 830 -222 q 857 -215 849 -215 q 863 -217 860 -215 q 867 -227 867 -220 l 867 -292 q 859 -309 867 -304 q 839 -319 852 -314 q 808 -329 825 -325 q 771 -335 790 -333 q 734 -339 752 -338 q 701 -340 715 -340 q 627 -332 663 -340 q 562 -307 591 -325 q 516 -260 534 -290 q 498 -188 498 -231 q 510 -137 498 -163 q 542 -87 521 -111 q 593 -40 563 -62 q 663 0 624 -18 l 165 0 q 114 6 134 0 q 82 24 94 12 q 66 53 71 35 q 62 94 62 71 l 62 856 q 71 918 62 895 q 96 954 80 941 q 135 970 113 966 q 186 974 158 974 l 799 974 q 828 963 822 974 q 835 940 835 953 l 835 892 q 828 874 835 878 q 809 869 821 869 q 788 871 802 869 q 756 874 774 872 q 717 880 738 877 q 675 886 696 882 q 568 903 626 893 l 568 730 l 821 730 q 835 716 835 730 l 835 648 q 821 633 835 633 l 568 633 z "},"ę":{"ha":889,"x_min":36,"x_max":853,"o":"m 677 113 q 710 118 695 113 q 737 129 725 123 q 756 140 749 135 q 768 145 764 145 q 777 143 774 145 q 783 136 779 141 l 806 99 q 810 90 810 94 q 807 82 810 85 q 802 77 804 79 q 754 47 782 64 q 689 14 726 31 q 647 -12 665 3 q 616 -42 629 -26 q 597 -74 604 -58 q 591 -104 591 -90 q 596 -130 591 -118 q 613 -151 601 -142 q 644 -164 625 -159 q 694 -169 664 -169 q 748 -165 726 -169 q 785 -158 770 -162 q 809 -151 800 -154 q 826 -147 819 -147 q 833 -150 829 -147 q 836 -159 836 -152 l 836 -224 q 829 -241 836 -236 q 808 -252 821 -246 q 777 -261 795 -257 q 741 -268 760 -265 q 703 -271 722 -270 q 670 -272 685 -272 q 596 -264 633 -272 q 532 -239 560 -257 q 486 -193 503 -222 q 468 -120 468 -163 q 509 -22 468 -71 q 454 -24 482 -24 q 353 -16 404 -24 q 255 10 302 -7 q 169 56 209 28 q 99 126 129 85 q 53 222 70 168 q 36 347 36 277 q 53 471 36 416 q 99 567 70 526 q 169 637 129 608 q 255 684 209 666 q 353 710 302 702 q 454 718 404 718 q 612 699 539 718 q 739 637 685 680 q 823 523 792 593 q 853 350 853 452 l 853 312 q 847 293 853 300 q 827 286 841 286 l 546 286 q 565 202 551 236 q 597 149 579 169 q 636 121 615 129 q 677 113 657 113 m 757 370 q 748 459 757 424 q 726 516 740 495 q 692 547 711 538 q 652 555 673 555 q 618 549 636 555 q 584 524 600 543 q 556 467 568 504 q 543 370 545 431 l 757 370 z "},"Ě":{"ha":888,"x_min":62,"x_max":860,"o":"m 568 633 l 568 83 q 689 100 634 93 q 735 107 712 104 q 779 113 759 110 q 812 117 798 115 q 832 118 827 118 q 852 114 844 118 q 860 96 860 109 l 860 33 q 854 11 860 21 q 825 0 848 0 l 165 0 q 114 6 134 0 q 82 24 94 12 q 66 53 71 35 q 62 94 62 71 l 62 856 q 71 918 62 895 q 96 954 80 941 q 135 970 113 966 q 186 974 158 974 l 799 974 q 828 963 822 974 q 835 940 835 953 l 835 892 q 828 874 835 878 q 809 869 821 869 q 788 871 802 869 q 756 874 774 872 q 717 880 738 877 q 675 886 696 882 q 568 903 626 893 l 568 730 l 821 730 q 835 716 835 730 l 835 648 q 821 633 835 633 l 568 633 m 602 1297 q 607 1300 605 1299 q 611 1301 609 1301 q 623 1295 617 1301 l 668 1235 q 672 1225 672 1230 q 666 1215 672 1220 l 460 1040 q 456 1038 458 1039 q 450 1036 454 1036 q 445 1038 447 1036 q 441 1040 443 1039 l 235 1215 q 229 1225 229 1220 q 233 1235 229 1230 l 278 1295 q 284 1300 281 1299 q 290 1301 286 1301 q 294 1300 292 1301 q 298 1297 296 1299 l 450 1190 l 602 1297 z "},"ě":{"ha":889,"x_min":36,"x_max":853,"o":"m 677 113 q 710 118 695 113 q 737 129 725 123 q 756 140 749 135 q 768 145 764 145 q 777 143 774 145 q 783 136 779 141 l 806 99 q 810 90 810 94 q 807 82 810 85 q 802 77 804 79 q 747 44 779 62 q 671 11 714 26 q 574 -14 628 -4 q 454 -24 519 -24 q 353 -16 404 -24 q 255 10 302 -7 q 169 56 209 28 q 99 126 129 85 q 53 222 70 168 q 36 347 36 277 q 53 471 36 416 q 99 567 70 526 q 169 637 129 608 q 255 684 209 666 q 353 710 302 702 q 454 718 404 718 q 612 699 539 718 q 739 637 685 680 q 823 523 792 593 q 853 350 853 452 l 853 312 q 847 293 853 300 q 827 286 841 286 l 546 286 q 565 202 551 236 q 597 149 579 169 q 636 121 615 129 q 677 113 657 113 m 757 370 q 748 459 757 424 q 726 516 740 495 q 692 547 711 538 q 652 555 673 555 q 618 549 636 555 q 584 524 600 543 q 556 467 568 504 q 543 370 545 431 l 757 370 m 595 1047 q 600 1050 598 1048 q 604 1051 602 1051 q 616 1044 610 1051 l 661 985 q 665 975 665 979 q 659 965 665 970 l 453 790 q 449 787 451 789 q 444 786 447 786 q 438 787 440 786 q 434 790 436 789 l 228 965 q 222 975 222 970 q 226 985 222 979 l 271 1044 q 277 1050 275 1048 q 283 1051 279 1051 q 287 1050 285 1051 q 292 1047 289 1048 l 444 940 l 595 1047 z "},"Ĝ":{"ha":920,"x_min":41,"x_max":871,"o":"m 701 871 q 670 866 686 871 q 637 848 653 861 q 605 810 621 834 q 579 747 590 786 q 561 651 568 707 q 554 518 554 595 q 561 385 554 441 q 579 287 568 328 q 605 220 590 246 q 637 179 621 194 q 670 158 653 164 q 701 153 686 153 q 739 161 722 153 l 739 421 q 744 443 739 432 q 766 453 749 453 l 838 453 q 850 452 844 453 q 861 449 856 452 q 868 439 865 446 q 871 421 871 433 l 871 32 q 868 14 871 20 q 861 4 865 7 q 850 1 856 1 q 838 0 844 0 l 766 0 q 752 3 758 0 q 744 10 747 5 q 740 21 741 15 q 739 32 739 26 l 739 52 q 691 22 718 36 q 633 -3 665 7 q 565 -20 602 -14 q 486 -26 528 -26 q 385 -18 437 -26 q 283 14 332 -9 q 190 76 234 37 q 113 176 146 115 q 61 320 80 236 q 41 518 41 405 q 61 688 41 614 q 113 816 80 762 q 191 907 146 870 q 286 965 235 943 q 389 997 336 987 q 493 1006 442 1006 q 599 997 549 1006 q 691 975 649 988 q 765 944 732 961 q 819 911 798 927 q 823 906 821 909 q 826 901 826 904 q 824 894 826 898 l 795 848 q 785 842 791 842 q 774 846 781 842 q 756 856 767 850 q 732 866 745 862 q 701 871 718 871 m 482 1175 l 330 1068 q 326 1065 328 1067 q 321 1064 323 1064 q 310 1071 315 1064 l 264 1131 q 260 1140 260 1135 q 267 1150 260 1145 l 473 1325 q 477 1328 475 1326 q 482 1329 479 1329 q 488 1328 486 1329 q 492 1325 490 1326 l 698 1150 q 704 1140 704 1145 q 700 1131 704 1135 l 654 1071 q 643 1064 649 1064 q 639 1065 641 1064 q 634 1068 637 1067 l 482 1175 z "},"ĝ":{"ha":930,"x_min":36,"x_max":960,"o":"m 454 68 q 352 75 403 68 q 254 98 301 82 q 254 91 254 94 q 254 85 254 88 q 260 47 254 64 q 282 17 267 30 q 320 -3 296 4 q 378 -11 344 -11 q 447 -6 415 -11 q 509 3 479 -2 q 571 13 540 8 q 636 17 602 17 q 701 5 669 17 q 758 -30 733 -7 q 798 -85 783 -52 q 812 -161 812 -119 q 805 -228 812 -199 q 791 -282 798 -256 q 786 -290 789 -286 q 772 -295 782 -295 l 722 -295 q 709 -291 712 -295 q 705 -283 707 -286 q 606 -252 692 -252 q 532 -256 568 -252 q 457 -266 495 -260 q 378 -275 419 -271 q 292 -279 337 -279 q 185 -258 229 -279 q 114 -205 141 -237 q 75 -134 87 -173 q 62 -61 62 -96 q 71 7 62 -24 q 93 63 79 38 q 124 108 106 88 q 159 144 142 128 q 70 243 104 182 q 36 393 36 304 q 53 502 36 454 q 99 586 70 549 q 169 647 129 622 q 255 688 209 672 q 353 711 302 704 q 454 718 404 718 q 547 713 500 718 q 640 696 595 709 q 725 663 685 684 q 797 609 766 642 l 871 684 q 885 695 878 692 q 899 699 892 699 q 918 690 909 699 l 951 654 q 960 635 960 645 q 943 608 960 620 l 844 538 q 865 475 858 509 q 872 399 872 440 q 854 278 872 330 q 806 190 837 227 q 734 130 775 153 q 647 92 694 106 q 551 73 601 79 q 454 68 502 68 m 681 468 q 677 478 677 471 q 684 492 677 486 l 727 537 q 697 551 713 547 q 665 555 682 555 q 629 550 649 555 q 591 528 609 545 q 561 479 573 511 q 549 393 549 447 q 558 308 549 340 q 585 258 568 275 q 622 236 601 241 q 665 231 643 231 q 707 238 686 231 q 742 263 727 245 q 767 314 758 282 q 777 397 777 347 q 765 481 777 448 l 720 450 q 709 446 714 446 q 694 453 700 446 l 681 468 m 456 897 l 304 790 q 299 787 301 789 q 295 786 297 786 q 283 793 288 786 l 238 852 q 234 862 234 857 q 240 872 234 867 l 446 1047 q 450 1050 448 1048 q 456 1051 452 1051 q 461 1050 459 1051 q 465 1047 463 1048 l 671 872 q 677 862 677 867 q 673 852 677 857 l 628 793 q 616 786 623 786 q 612 787 614 786 q 608 790 610 789 l 456 897 z "},"Ğ":{"ha":920,"x_min":41,"x_max":871,"o":"m 701 871 q 670 866 686 871 q 637 848 653 861 q 605 810 621 834 q 579 747 590 786 q 561 651 568 707 q 554 518 554 595 q 561 385 554 441 q 579 287 568 328 q 605 220 590 246 q 637 179 621 194 q 670 158 653 164 q 701 153 686 153 q 739 161 722 153 l 739 421 q 744 443 739 432 q 766 453 749 453 l 838 453 q 850 452 844 453 q 861 449 856 452 q 868 439 865 446 q 871 421 871 433 l 871 32 q 868 14 871 20 q 861 4 865 7 q 850 1 856 1 q 838 0 844 0 l 766 0 q 752 3 758 0 q 744 10 747 5 q 740 21 741 15 q 739 32 739 26 l 739 52 q 691 22 718 36 q 633 -3 665 7 q 565 -20 602 -14 q 486 -26 528 -26 q 385 -18 437 -26 q 283 14 332 -9 q 190 76 234 37 q 113 176 146 115 q 61 320 80 236 q 41 518 41 405 q 61 688 41 614 q 113 816 80 762 q 191 907 146 870 q 286 965 235 943 q 389 997 336 987 q 493 1006 442 1006 q 599 997 549 1006 q 691 975 649 988 q 765 944 732 961 q 819 911 798 927 q 823 906 821 909 q 826 901 826 904 q 824 894 826 898 l 795 848 q 785 842 791 842 q 774 846 781 842 q 756 856 767 850 q 732 866 745 862 q 701 871 718 871 m 482 1198 q 526 1206 509 1198 q 554 1225 543 1214 q 570 1249 564 1236 q 578 1268 575 1261 q 584 1283 581 1277 q 596 1290 587 1290 l 677 1290 q 687 1285 684 1290 q 690 1278 690 1281 q 670 1180 690 1219 q 620 1119 650 1142 q 553 1087 589 1096 q 482 1078 516 1078 q 412 1087 448 1078 q 345 1119 375 1096 q 294 1180 314 1142 q 274 1278 274 1219 q 277 1285 274 1281 q 288 1290 280 1290 l 368 1290 q 380 1283 378 1290 q 387 1268 383 1277 q 395 1249 389 1261 q 411 1225 400 1236 q 438 1206 421 1214 q 482 1198 456 1198 z "},"ğ":{"ha":930,"x_min":36,"x_max":960,"o":"m 454 68 q 352 75 403 68 q 254 98 301 82 q 254 91 254 94 q 254 85 254 88 q 260 47 254 64 q 282 17 267 30 q 320 -3 296 4 q 378 -11 344 -11 q 447 -6 415 -11 q 509 3 479 -2 q 571 13 540 8 q 636 17 602 17 q 701 5 669 17 q 758 -30 733 -7 q 798 -85 783 -52 q 812 -161 812 -119 q 805 -228 812 -199 q 791 -282 798 -256 q 786 -290 789 -286 q 772 -295 782 -295 l 722 -295 q 709 -291 712 -295 q 705 -283 707 -286 q 606 -252 692 -252 q 532 -256 568 -252 q 457 -266 495 -260 q 378 -275 419 -271 q 292 -279 337 -279 q 185 -258 229 -279 q 114 -205 141 -237 q 75 -134 87 -173 q 62 -61 62 -96 q 71 7 62 -24 q 93 63 79 38 q 124 108 106 88 q 159 144 142 128 q 70 243 104 182 q 36 393 36 304 q 53 502 36 454 q 99 586 70 549 q 169 647 129 622 q 255 688 209 672 q 353 711 302 704 q 454 718 404 718 q 547 713 500 718 q 640 696 595 709 q 725 663 685 684 q 797 609 766 642 l 871 684 q 885 695 878 692 q 899 699 892 699 q 918 690 909 699 l 951 654 q 960 635 960 645 q 943 608 960 620 l 844 538 q 865 475 858 509 q 872 399 872 440 q 854 278 872 330 q 806 190 837 227 q 734 130 775 153 q 647 92 694 106 q 551 73 601 79 q 454 68 502 68 m 681 468 q 677 478 677 471 q 684 492 677 486 l 727 537 q 697 551 713 547 q 665 555 682 555 q 629 550 649 555 q 591 528 609 545 q 561 479 573 511 q 549 393 549 447 q 558 308 549 340 q 585 258 568 275 q 622 236 601 241 q 665 231 643 231 q 707 238 686 231 q 742 263 727 245 q 767 314 758 282 q 777 397 777 347 q 765 481 777 448 l 720 450 q 709 446 714 446 q 694 453 700 446 l 681 468 m 456 920 q 499 928 482 920 q 527 947 517 936 q 543 970 538 958 q 551 990 549 983 q 557 1005 555 999 q 570 1012 560 1012 l 650 1012 q 661 1007 658 1012 q 664 1000 664 1003 q 644 902 664 941 q 593 841 624 864 q 526 809 563 818 q 456 800 490 800 q 385 809 422 800 q 318 841 349 818 q 268 902 288 864 q 248 1000 248 941 q 251 1007 248 1003 q 261 1012 254 1012 l 342 1012 q 354 1005 351 1012 q 360 990 357 999 q 368 970 363 983 q 384 947 374 958 q 412 928 395 936 q 456 920 429 920 z "},"Ġ":{"ha":920,"x_min":41,"x_max":871,"o":"m 701 871 q 670 866 686 871 q 637 848 653 861 q 605 810 621 834 q 579 747 590 786 q 561 651 568 707 q 554 518 554 595 q 561 385 554 441 q 579 287 568 328 q 605 220 590 246 q 637 179 621 194 q 670 158 653 164 q 701 153 686 153 q 739 161 722 153 l 739 421 q 744 443 739 432 q 766 453 749 453 l 838 453 q 850 452 844 453 q 861 449 856 452 q 868 439 865 446 q 871 421 871 433 l 871 32 q 868 14 871 20 q 861 4 865 7 q 850 1 856 1 q 838 0 844 0 l 766 0 q 752 3 758 0 q 744 10 747 5 q 740 21 741 15 q 739 32 739 26 l 739 52 q 691 22 718 36 q 633 -3 665 7 q 565 -20 602 -14 q 486 -26 528 -26 q 385 -18 437 -26 q 283 14 332 -9 q 190 76 234 37 q 113 176 146 115 q 61 320 80 236 q 41 518 41 405 q 61 688 41 614 q 113 816 80 762 q 191 907 146 870 q 286 965 235 943 q 389 997 336 987 q 493 1006 442 1006 q 599 997 549 1006 q 691 975 649 988 q 765 944 732 961 q 819 911 798 927 q 823 906 821 909 q 826 901 826 904 q 824 894 826 898 l 795 848 q 785 842 791 842 q 774 846 781 842 q 756 856 767 850 q 732 866 745 862 q 701 871 718 871 m 382 1180 q 390 1219 382 1201 q 412 1251 398 1238 q 444 1273 425 1265 q 482 1280 462 1280 q 522 1273 503 1280 q 553 1251 540 1265 q 575 1219 567 1238 q 583 1180 583 1201 q 575 1141 583 1160 q 553 1109 567 1123 q 522 1088 540 1096 q 482 1080 503 1080 q 444 1088 462 1080 q 412 1109 425 1096 q 390 1141 398 1123 q 382 1180 382 1160 z "},"ġ":{"ha":930,"x_min":36,"x_max":960,"o":"m 454 68 q 352 75 403 68 q 254 98 301 82 q 254 91 254 94 q 254 85 254 88 q 260 47 254 64 q 282 17 267 30 q 320 -3 296 4 q 378 -11 344 -11 q 447 -6 415 -11 q 509 3 479 -2 q 571 13 540 8 q 636 17 602 17 q 701 5 669 17 q 758 -30 733 -7 q 798 -85 783 -52 q 812 -161 812 -119 q 805 -228 812 -199 q 791 -282 798 -256 q 786 -290 789 -286 q 772 -295 782 -295 l 722 -295 q 709 -291 712 -295 q 705 -283 707 -286 q 606 -252 692 -252 q 532 -256 568 -252 q 457 -266 495 -260 q 378 -275 419 -271 q 292 -279 337 -279 q 185 -258 229 -279 q 114 -205 141 -237 q 75 -134 87 -173 q 62 -61 62 -96 q 71 7 62 -24 q 93 63 79 38 q 124 108 106 88 q 159 144 142 128 q 70 243 104 182 q 36 393 36 304 q 53 502 36 454 q 99 586 70 549 q 169 647 129 622 q 255 688 209 672 q 353 711 302 704 q 454 718 404 718 q 547 713 500 718 q 640 696 595 709 q 725 663 685 684 q 797 609 766 642 l 871 684 q 885 695 878 692 q 899 699 892 699 q 918 690 909 699 l 951 654 q 960 635 960 645 q 943 608 960 620 l 844 538 q 865 475 858 509 q 872 399 872 440 q 854 278 872 330 q 806 190 837 227 q 734 130 775 153 q 647 92 694 106 q 551 73 601 79 q 454 68 502 68 m 681 468 q 677 478 677 471 q 684 492 677 486 l 727 537 q 697 551 713 547 q 665 555 682 555 q 629 550 649 555 q 591 528 609 545 q 561 479 573 511 q 549 393 549 447 q 558 308 549 340 q 585 258 568 275 q 622 236 601 241 q 665 231 643 231 q 707 238 686 231 q 742 263 727 245 q 767 314 758 282 q 777 397 777 347 q 765 481 777 448 l 720 450 q 709 446 714 446 q 694 453 700 446 l 681 468 m 356 902 q 364 941 356 923 q 385 973 372 960 q 417 995 399 987 q 456 1002 435 1002 q 495 995 477 1002 q 527 973 513 987 q 548 941 541 960 q 556 902 556 923 q 548 863 556 882 q 527 831 541 845 q 495 810 513 818 q 456 802 477 802 q 417 810 435 802 q 385 831 399 818 q 364 863 372 845 q 356 902 356 882 z "},"Ģ":{"ha":920,"x_min":41,"x_max":871,"o":"m 701 871 q 670 866 686 871 q 637 848 653 861 q 605 810 621 834 q 579 747 590 786 q 561 651 568 707 q 554 518 554 595 q 561 385 554 441 q 579 287 568 328 q 605 220 590 246 q 637 179 621 194 q 670 158 653 164 q 701 153 686 153 q 739 161 722 153 l 739 421 q 744 443 739 432 q 766 453 749 453 l 838 453 q 850 452 844 453 q 861 449 856 452 q 868 439 865 446 q 871 421 871 433 l 871 32 q 868 14 871 20 q 861 4 865 7 q 850 1 856 1 q 838 0 844 0 l 766 0 q 752 3 758 0 q 744 10 747 5 q 740 21 741 15 q 739 32 739 26 l 739 52 q 691 22 718 36 q 633 -3 665 7 q 565 -20 602 -14 q 486 -26 528 -26 q 385 -18 437 -26 q 283 14 332 -9 q 190 76 234 37 q 113 176 146 115 q 61 320 80 236 q 41 518 41 405 q 61 688 41 614 q 113 816 80 762 q 191 907 146 870 q 286 965 235 943 q 389 997 336 987 q 493 1006 442 1006 q 599 997 549 1006 q 691 975 649 988 q 765 944 732 961 q 819 911 798 927 q 823 906 821 909 q 826 901 826 904 q 824 894 826 898 l 795 848 q 785 842 791 842 q 774 846 781 842 q 756 856 767 850 q 732 866 745 862 q 701 871 718 871 m 380 -170 q 387 -136 380 -152 q 406 -109 394 -121 q 433 -91 418 -98 q 467 -84 449 -84 q 500 -91 484 -84 q 527 -109 515 -98 q 545 -136 538 -121 q 552 -170 552 -152 q 549 -193 552 -181 q 542 -215 546 -205 l 493 -329 q 486 -343 489 -338 q 472 -347 483 -347 l 427 -347 q 416 -340 416 -347 q 420 -331 416 -338 l 454 -254 q 426 -244 439 -252 q 402 -225 412 -237 q 386 -200 392 -214 q 380 -170 380 -186 z "},"ģ":{"ha":930,"x_min":36,"x_max":960,"o":"m 454 68 q 352 75 403 68 q 254 98 301 82 q 254 91 254 94 q 254 85 254 88 q 260 47 254 64 q 282 17 267 30 q 320 -3 296 4 q 378 -11 344 -11 q 447 -6 415 -11 q 509 3 479 -2 q 571 13 540 8 q 636 17 602 17 q 701 5 669 17 q 758 -30 733 -7 q 798 -85 783 -52 q 812 -161 812 -119 q 805 -228 812 -199 q 791 -282 798 -256 q 786 -290 789 -286 q 772 -295 782 -295 l 722 -295 q 709 -291 712 -295 q 705 -283 707 -286 q 606 -252 692 -252 q 532 -256 568 -252 q 457 -266 495 -260 q 378 -275 419 -271 q 292 -279 337 -279 q 185 -258 229 -279 q 114 -205 141 -237 q 75 -134 87 -173 q 62 -61 62 -96 q 71 7 62 -24 q 93 63 79 38 q 124 108 106 88 q 159 144 142 128 q 70 243 104 182 q 36 393 36 304 q 53 502 36 454 q 99 586 70 549 q 169 647 129 622 q 255 688 209 672 q 353 711 302 704 q 454 718 404 718 q 547 713 500 718 q 640 696 595 709 q 725 663 685 684 q 797 609 766 642 l 871 684 q 885 695 878 692 q 899 699 892 699 q 918 690 909 699 l 951 654 q 960 635 960 645 q 943 608 960 620 l 844 538 q 865 475 858 509 q 872 399 872 440 q 854 278 872 330 q 806 190 837 227 q 734 130 775 153 q 647 92 694 106 q 551 73 601 79 q 454 68 502 68 m 681 468 q 677 478 677 471 q 684 492 677 486 l 727 537 q 697 551 713 547 q 665 555 682 555 q 629 550 649 555 q 591 528 609 545 q 561 479 573 511 q 549 393 549 447 q 558 308 549 340 q 585 258 568 275 q 622 236 601 241 q 665 231 643 231 q 707 238 686 231 q 742 263 727 245 q 767 314 758 282 q 777 397 777 347 q 765 481 777 448 l 720 450 q 709 446 714 446 q 694 453 700 446 l 681 468 m 551 881 q 544 844 551 861 q 523 814 536 827 q 493 793 510 801 q 456 786 475 786 q 419 793 436 786 q 389 814 401 801 q 368 844 376 827 q 361 881 361 861 q 365 907 361 894 q 372 931 368 920 l 426 1058 q 435 1073 431 1068 q 450 1078 438 1078 l 499 1078 q 511 1070 511 1078 q 511 1066 511 1069 q 508 1060 510 1063 l 470 975 q 502 964 487 972 q 527 943 516 956 q 545 915 538 930 q 551 881 551 899 z "},"Ĥ":{"ha":920,"x_min":62,"x_max":895,"o":"m 684 355 l 568 355 l 568 110 q 566 75 568 94 q 552 40 563 56 q 519 12 541 23 q 457 0 496 0 l 167 0 q 114 6 134 0 q 82 24 94 12 q 66 53 71 35 q 62 94 62 71 l 62 879 q 66 920 62 903 q 82 950 71 938 q 114 968 94 962 q 167 974 134 974 l 469 974 q 529 962 509 974 q 558 933 550 951 q 568 897 567 916 q 568 861 568 878 l 568 453 l 684 453 l 684 942 q 690 964 684 954 q 713 974 696 974 l 784 974 q 796 973 790 974 q 806 969 802 972 q 813 960 810 966 q 815 942 815 954 l 815 453 l 880 453 q 895 439 895 453 l 895 370 q 880 355 895 355 l 815 355 l 815 32 q 813 14 815 20 q 806 4 810 7 q 796 1 802 1 q 784 0 790 0 l 711 0 q 689 10 694 0 q 684 32 684 20 l 684 355 m 465 1147 l 313 1040 q 309 1038 311 1039 q 304 1036 307 1036 q 293 1043 298 1036 l 248 1103 q 243 1112 243 1107 q 250 1122 243 1117 l 456 1297 q 460 1300 458 1299 q 465 1301 462 1301 q 471 1300 469 1301 q 475 1297 473 1299 l 681 1122 q 687 1112 687 1117 q 683 1103 687 1107 l 637 1043 q 626 1036 632 1036 q 622 1038 624 1036 q 617 1040 620 1039 l 465 1147 z "},"ĥ":{"ha":844,"x_min":62,"x_max":782,"o":"m 562 682 q 598 701 577 693 q 644 708 619 708 q 746 663 709 708 q 782 532 782 618 l 782 32 q 779 14 782 20 q 771 4 776 7 q 761 1 767 1 q 749 0 755 0 l 705 0 q 683 10 688 0 q 677 32 677 20 l 677 538 q 664 597 677 577 q 619 618 650 618 q 588 609 604 618 q 562 591 572 601 l 562 95 q 559 54 562 71 q 547 24 557 36 q 517 6 536 12 q 466 0 498 0 l 152 0 q 108 6 125 0 q 81 24 91 12 q 66 53 71 35 q 62 94 62 71 l 62 1017 q 66 1058 62 1040 q 82 1087 71 1076 q 114 1105 94 1099 q 167 1111 134 1111 l 464 1111 q 514 1105 494 1111 q 544 1088 533 1100 q 558 1059 555 1076 q 562 1017 562 1041 l 562 682 m 313 1274 l 161 1166 q 157 1164 159 1165 q 153 1162 155 1162 q 141 1169 146 1162 l 96 1229 q 92 1238 92 1234 q 98 1249 92 1243 l 304 1423 q 308 1426 306 1425 q 313 1428 310 1428 q 319 1426 317 1428 q 323 1423 321 1425 l 529 1249 q 535 1238 535 1243 q 531 1229 535 1234 l 486 1169 q 474 1162 480 1162 q 470 1164 472 1162 q 465 1166 468 1165 l 313 1274 z "},"Ħ":{"ha":891,"x_min":-7,"x_max":898,"o":"m 822 687 l 884 687 q 898 673 898 687 l 898 604 q 884 589 898 589 l 822 589 l 822 32 q 820 14 822 20 q 813 4 817 7 q 803 1 808 1 q 791 0 797 0 l 718 0 q 695 10 701 0 q 690 32 690 20 l 690 355 l 575 355 l 575 110 q 572 75 575 94 q 559 40 570 56 q 526 12 548 23 q 464 0 503 0 l 174 0 q 121 6 141 0 q 89 24 100 12 q 73 53 77 35 q 69 94 69 71 l 69 589 l 7 589 q -7 604 -7 589 l -7 673 q 7 687 -7 687 l 69 687 l 69 879 q 73 920 69 903 q 89 950 77 938 q 121 968 100 962 q 174 974 141 974 l 476 974 q 536 962 515 974 q 565 933 557 951 q 574 897 574 916 q 575 861 575 878 l 575 687 l 690 687 l 690 942 q 696 964 690 954 q 720 974 703 974 l 791 974 q 803 973 797 974 q 813 969 808 972 q 820 960 817 966 q 822 942 822 954 l 822 687 m 690 453 l 690 589 l 575 589 l 575 453 l 690 453 z "},"ħ":{"ha":844,"x_min":-14,"x_max":782,"o":"m 562 900 l 696 900 q 711 886 711 900 l 711 817 q 696 802 711 802 l 562 802 l 562 682 q 598 701 577 693 q 644 708 619 708 q 746 663 709 708 q 782 532 782 618 l 782 32 q 779 14 782 20 q 771 4 776 7 q 761 1 767 1 q 749 0 755 0 l 705 0 q 683 10 688 0 q 677 32 677 20 l 677 538 q 664 597 677 577 q 619 618 650 618 q 588 609 604 618 q 562 591 572 601 l 562 95 q 559 54 562 71 q 547 24 557 36 q 517 6 536 12 q 466 0 498 0 l 152 0 q 108 6 125 0 q 81 24 91 12 q 66 53 71 35 q 62 94 62 71 l 62 802 l 1 802 q -14 817 -14 802 l -14 886 q 1 900 -14 900 l 62 900 l 62 1017 q 66 1058 62 1040 q 82 1087 71 1076 q 114 1105 94 1099 q 167 1111 134 1111 l 464 1111 q 514 1105 494 1111 q 544 1088 533 1100 q 558 1059 555 1076 q 562 1017 562 1041 l 562 900 z "},"Ì":{"ha":631,"x_min":62,"x_max":568,"o":"m 62 879 q 66 920 62 903 q 82 950 71 938 q 114 968 94 962 q 167 974 134 974 l 469 974 q 529 962 509 974 q 558 933 550 951 q 568 897 567 916 q 568 861 568 878 l 568 110 q 566 75 568 94 q 552 40 563 56 q 519 12 541 23 q 457 0 496 0 l 167 0 q 114 6 134 0 q 82 24 94 12 q 66 53 71 35 q 62 94 62 71 l 62 879 m 124 1200 q 118 1211 118 1204 q 123 1221 118 1215 l 185 1309 q 195 1315 190 1315 q 205 1311 199 1315 l 445 1129 q 451 1119 451 1124 q 447 1109 451 1114 l 401 1043 q 390 1036 397 1036 q 386 1038 388 1036 q 381 1040 384 1039 l 124 1200 z "},"ì":{"ha":625,"x_min":62,"x_max":562,"o":"m 62 600 q 66 641 62 623 q 82 671 71 659 q 114 688 94 682 q 167 694 134 694 l 464 694 q 514 689 495 694 q 545 671 534 683 q 559 642 555 660 q 562 600 562 625 l 562 93 q 559 53 562 70 q 545 23 555 35 q 514 6 534 12 q 464 0 495 0 l 167 0 q 114 6 134 0 q 82 24 94 12 q 66 53 71 35 q 62 94 62 71 l 62 600 m 123 950 q 117 960 117 954 q 122 970 117 965 l 184 1059 q 195 1065 189 1065 q 204 1061 199 1065 l 444 879 q 450 869 450 873 q 446 859 450 864 l 401 793 q 389 786 397 786 q 385 787 387 786 q 380 790 383 789 l 123 950 z "},"Í":{"ha":631,"x_min":62,"x_max":568,"o":"m 62 879 q 66 920 62 903 q 82 950 71 938 q 114 968 94 962 q 167 974 134 974 l 469 974 q 529 962 509 974 q 558 933 550 951 q 568 897 567 916 q 568 861 568 878 l 568 110 q 566 75 568 94 q 552 40 563 56 q 519 12 541 23 q 457 0 496 0 l 167 0 q 114 6 134 0 q 82 24 94 12 q 66 53 71 35 q 62 94 62 71 l 62 879 m 255 1040 q 250 1038 252 1039 q 246 1036 248 1036 q 235 1043 239 1036 l 189 1109 q 185 1119 185 1114 q 191 1129 185 1124 l 431 1311 q 441 1315 436 1315 q 451 1309 446 1315 l 513 1221 q 518 1211 518 1215 q 512 1200 518 1204 l 255 1040 z "},"í":{"ha":625,"x_min":62,"x_max":562,"o":"m 62 600 q 66 641 62 623 q 82 671 71 659 q 114 688 94 682 q 167 694 134 694 l 464 694 q 514 689 495 694 q 545 671 534 683 q 559 642 555 660 q 562 600 562 625 l 562 93 q 559 53 562 70 q 545 23 555 35 q 514 6 534 12 q 464 0 495 0 l 167 0 q 114 6 134 0 q 82 24 94 12 q 66 53 71 35 q 62 94 62 71 l 62 600 m 254 790 q 250 787 252 789 q 245 786 248 786 q 234 793 238 786 l 189 859 q 184 869 184 864 q 191 879 184 873 l 431 1061 q 440 1065 435 1065 q 450 1059 445 1065 l 513 970 q 517 960 517 965 q 511 950 517 954 l 254 790 z "},"Î":{"ha":631,"x_min":62,"x_max":568,"o":"m 62 879 q 66 920 62 903 q 82 950 71 938 q 114 968 94 962 q 167 974 134 974 l 469 974 q 529 962 509 974 q 558 933 550 951 q 568 897 567 916 q 568 861 568 878 l 568 110 q 566 75 568 94 q 552 40 563 56 q 519 12 541 23 q 457 0 496 0 l 167 0 q 114 6 134 0 q 82 24 94 12 q 66 53 71 35 q 62 94 62 71 l 62 879 m 318 1147 l 166 1040 q 161 1038 163 1039 q 157 1036 159 1036 q 146 1043 151 1036 l 100 1103 q 96 1112 96 1107 q 102 1122 96 1117 l 309 1297 q 313 1300 311 1299 q 318 1301 315 1301 q 323 1300 321 1301 q 328 1297 326 1299 l 534 1122 q 540 1112 540 1117 q 536 1103 540 1107 l 490 1043 q 479 1036 485 1036 q 475 1038 477 1036 q 470 1040 473 1039 l 318 1147 z "},"î":{"ha":625,"x_min":62,"x_max":562,"o":"m 62 600 q 66 641 62 623 q 82 671 71 659 q 114 688 94 682 q 167 694 134 694 l 464 694 q 514 689 495 694 q 545 671 534 683 q 559 642 555 660 q 562 600 562 625 l 562 93 q 559 53 562 70 q 545 23 555 35 q 514 6 534 12 q 464 0 495 0 l 167 0 q 114 6 134 0 q 82 24 94 12 q 66 53 71 35 q 62 94 62 71 l 62 600 m 317 897 l 165 790 q 161 787 163 789 q 157 786 159 786 q 145 793 150 786 l 100 852 q 96 862 96 857 q 102 872 96 867 l 308 1047 q 312 1050 310 1048 q 317 1051 314 1051 q 323 1050 321 1051 q 327 1047 325 1048 l 533 872 q 539 862 539 867 q 535 852 539 857 l 490 793 q 478 786 484 786 q 474 787 476 786 q 469 790 472 789 l 317 897 z "},"Ï":{"ha":631,"x_min":62,"x_max":568,"o":"m 62 879 q 66 920 62 903 q 82 950 71 938 q 114 968 94 962 q 167 974 134 974 l 469 974 q 529 962 509 974 q 558 933 550 951 q 568 897 567 916 q 568 861 568 878 l 568 110 q 566 75 568 94 q 552 40 563 56 q 519 12 541 23 q 457 0 496 0 l 167 0 q 114 6 134 0 q 82 24 94 12 q 66 53 71 35 q 62 94 62 71 l 62 879 m 96 1152 q 103 1187 96 1171 q 122 1215 111 1203 q 151 1234 134 1227 q 185 1241 167 1241 q 220 1234 203 1241 q 248 1215 236 1227 q 267 1187 260 1203 q 274 1152 274 1171 q 267 1118 274 1134 q 248 1089 260 1101 q 220 1070 236 1078 q 185 1063 203 1063 q 151 1070 167 1063 q 122 1089 134 1078 q 103 1118 111 1101 q 96 1152 96 1134 m 362 1152 q 369 1187 362 1171 q 388 1215 376 1203 q 416 1234 400 1227 q 451 1241 433 1241 q 486 1234 469 1241 q 514 1215 502 1227 q 533 1187 526 1203 q 540 1152 540 1171 q 533 1118 540 1134 q 514 1089 526 1101 q 486 1070 502 1078 q 451 1063 469 1063 q 416 1070 433 1063 q 388 1089 400 1078 q 369 1118 376 1101 q 362 1152 362 1134 z "},"ï":{"ha":625,"x_min":62,"x_max":562,"o":"m 62 600 q 66 641 62 623 q 82 671 71 659 q 114 688 94 682 q 167 694 134 694 l 464 694 q 514 689 495 694 q 545 671 534 683 q 559 642 555 660 q 562 600 562 625 l 562 93 q 559 53 562 70 q 545 23 555 35 q 514 6 534 12 q 464 0 495 0 l 167 0 q 114 6 134 0 q 82 24 94 12 q 66 53 71 35 q 62 94 62 71 l 62 600 m 96 902 q 103 937 96 920 q 122 965 110 953 q 150 984 134 977 q 184 991 166 991 q 219 984 203 991 q 247 965 235 977 q 266 937 259 953 q 273 902 273 920 q 266 867 273 884 q 247 839 259 851 q 219 820 235 827 q 184 813 203 813 q 150 820 166 813 q 122 839 134 827 q 103 867 110 851 q 96 902 96 884 m 361 902 q 369 937 361 920 q 388 965 376 953 q 416 984 399 977 q 450 991 432 991 q 485 984 469 991 q 513 965 501 977 q 532 937 525 953 q 539 902 539 920 q 532 867 539 884 q 513 839 525 851 q 485 820 501 827 q 450 813 469 813 q 416 820 432 813 q 388 839 399 827 q 369 867 376 851 q 361 902 361 884 z "},"Ĩ":{"ha":631,"x_min":62,"x_max":568,"o":"m 62 879 q 66 920 62 903 q 82 950 71 938 q 114 968 94 962 q 167 974 134 974 l 469 974 q 529 962 509 974 q 558 933 550 951 q 568 897 567 916 q 568 861 568 878 l 568 110 q 566 75 568 94 q 552 40 563 56 q 519 12 541 23 q 457 0 496 0 l 167 0 q 114 6 134 0 q 82 24 94 12 q 66 53 71 35 q 62 94 62 71 l 62 879 m 533 1256 q 544 1249 543 1256 q 543 1235 545 1242 q 526 1169 538 1200 q 497 1115 515 1138 q 457 1077 480 1091 q 407 1063 435 1063 q 359 1074 382 1063 q 314 1096 335 1084 q 275 1118 292 1108 q 245 1128 257 1128 q 221 1124 230 1128 q 206 1111 212 1119 q 198 1092 200 1103 q 194 1071 195 1082 q 190 1065 193 1067 q 172 1063 186 1063 l 104 1063 q 95 1066 97 1063 q 92 1073 92 1069 q 93 1081 92 1077 q 94 1086 94 1084 q 109 1151 98 1120 q 138 1204 121 1181 q 179 1240 156 1227 q 230 1254 202 1254 q 278 1244 254 1254 q 323 1222 302 1234 q 362 1200 345 1210 q 391 1190 380 1190 q 416 1195 407 1190 q 432 1208 426 1200 q 440 1226 437 1216 q 444 1249 442 1237 q 447 1254 444 1253 q 460 1256 450 1256 l 533 1256 z "},"ĩ":{"ha":625,"x_min":62,"x_max":562,"o":"m 62 600 q 66 641 62 623 q 82 671 71 659 q 114 688 94 682 q 167 694 134 694 l 464 694 q 514 689 495 694 q 545 671 534 683 q 559 642 555 660 q 562 600 562 625 l 562 93 q 559 53 562 70 q 545 23 555 35 q 514 6 534 12 q 464 0 495 0 l 167 0 q 114 6 134 0 q 82 24 94 12 q 66 53 71 35 q 62 94 62 71 l 62 600 m 532 1006 q 543 999 542 1006 q 543 985 544 992 q 526 919 537 950 q 497 864 514 888 q 457 827 479 841 q 406 813 434 813 q 358 823 382 813 q 313 846 334 833 q 274 868 292 858 q 245 878 256 878 q 220 873 229 878 q 205 861 211 869 q 197 842 199 852 q 193 821 195 831 q 189 815 193 817 q 171 813 185 813 l 103 813 q 94 816 96 813 q 91 823 92 819 q 92 830 91 827 q 93 836 93 834 q 109 901 97 870 q 138 954 120 931 q 178 990 155 977 q 229 1004 201 1004 q 277 994 254 1004 q 322 971 301 983 q 361 949 344 960 q 391 939 379 939 q 416 944 406 939 q 431 958 425 949 q 439 976 437 966 q 443 998 441 987 q 446 1004 444 1002 q 460 1006 449 1006 l 532 1006 z "},"Ī":{"ha":631,"x_min":62,"x_max":568,"o":"m 62 879 q 66 920 62 903 q 82 950 71 938 q 114 968 94 962 q 167 974 134 974 l 469 974 q 529 962 509 974 q 558 933 550 951 q 568 897 567 916 q 568 861 568 878 l 568 110 q 566 75 568 94 q 552 40 563 56 q 519 12 541 23 q 457 0 496 0 l 167 0 q 114 6 134 0 q 82 24 94 12 q 66 53 71 35 q 62 94 62 71 l 62 879 m 138 1082 q 123 1097 123 1082 l 123 1206 q 138 1220 123 1220 l 498 1220 q 513 1206 513 1220 l 513 1097 q 498 1082 513 1082 l 138 1082 z "},"ī":{"ha":625,"x_min":62,"x_max":562,"o":"m 62 600 q 66 641 62 623 q 82 671 71 659 q 114 688 94 682 q 167 694 134 694 l 464 694 q 514 689 495 694 q 545 671 534 683 q 559 642 555 660 q 562 600 562 625 l 562 93 q 559 53 562 70 q 545 23 555 35 q 514 6 534 12 q 464 0 495 0 l 167 0 q 114 6 134 0 q 82 24 94 12 q 66 53 71 35 q 62 94 62 71 l 62 600 m 137 832 q 123 847 123 832 l 123 956 q 137 970 123 970 l 498 970 q 512 956 512 970 l 512 847 q 498 832 512 832 l 137 832 z "},"Ĭ":{"ha":631,"x_min":62,"x_max":568,"o":"m 62 879 q 66 920 62 903 q 82 950 71 938 q 114 968 94 962 q 167 974 134 974 l 469 974 q 529 962 509 974 q 558 933 550 951 q 568 897 567 916 q 568 861 568 878 l 568 110 q 566 75 568 94 q 552 40 563 56 q 519 12 541 23 q 457 0 496 0 l 167 0 q 114 6 134 0 q 82 24 94 12 q 66 53 71 35 q 62 94 62 71 l 62 879 m 318 1170 q 362 1178 345 1170 q 390 1197 379 1186 q 406 1221 400 1208 q 414 1240 411 1233 q 420 1256 417 1249 q 432 1262 422 1262 l 513 1262 q 523 1258 520 1262 q 526 1250 526 1253 q 506 1153 526 1191 q 456 1091 486 1114 q 389 1059 425 1068 q 318 1050 352 1050 q 248 1059 284 1050 q 180 1091 211 1068 q 130 1153 150 1114 q 110 1250 110 1191 q 113 1258 110 1253 q 123 1262 116 1262 l 204 1262 q 216 1256 214 1262 q 222 1240 219 1249 q 231 1221 225 1233 q 247 1197 236 1208 q 274 1178 257 1186 q 318 1170 292 1170 z "},"ĭ":{"ha":625,"x_min":62,"x_max":562,"o":"m 62 600 q 66 641 62 623 q 82 671 71 659 q 114 688 94 682 q 167 694 134 694 l 464 694 q 514 689 495 694 q 545 671 534 683 q 559 642 555 660 q 562 600 562 625 l 562 93 q 559 53 562 70 q 545 23 555 35 q 514 6 534 12 q 464 0 495 0 l 167 0 q 114 6 134 0 q 82 24 94 12 q 66 53 71 35 q 62 94 62 71 l 62 600 m 317 920 q 361 928 344 920 q 389 947 378 936 q 405 970 399 958 q 413 990 410 983 q 419 1005 416 999 q 431 1012 422 1012 l 512 1012 q 523 1007 519 1012 q 526 1000 526 1003 q 506 902 526 941 q 455 841 486 864 q 388 809 425 818 q 317 800 351 800 q 247 809 283 800 q 180 841 210 818 q 129 902 149 864 q 109 1000 109 941 q 112 1007 109 1003 q 123 1012 115 1012 l 203 1012 q 216 1005 213 1012 q 222 990 218 999 q 230 970 224 983 q 246 947 235 958 q 274 928 256 936 q 317 920 291 920 z "},"Į":{"ha":632,"x_min":62,"x_max":568,"o":"m 62 879 q 66 920 62 903 q 82 950 71 938 q 114 968 94 962 q 167 974 134 974 l 469 974 q 529 962 509 974 q 558 933 550 951 q 568 897 567 916 q 568 861 568 878 l 568 110 q 566 75 568 94 q 552 40 563 56 q 519 12 541 23 q 457 0 496 0 l 444 0 q 374 -37 409 -16 q 312 -81 340 -58 q 266 -127 283 -104 q 248 -172 248 -151 q 253 -198 248 -186 q 270 -218 258 -210 q 302 -232 282 -227 q 351 -237 321 -237 q 406 -233 384 -237 q 443 -226 428 -230 q 467 -218 457 -222 q 484 -215 476 -215 q 490 -217 487 -215 q 494 -227 494 -220 l 494 -292 q 486 -309 494 -304 q 466 -319 479 -314 q 435 -329 452 -325 q 398 -335 417 -333 q 361 -339 379 -338 q 328 -340 342 -340 q 254 -332 290 -340 q 189 -307 218 -325 q 143 -260 161 -290 q 125 -188 125 -231 q 137 -137 125 -163 q 168 -87 148 -111 q 218 -40 189 -62 q 283 0 247 -18 l 167 0 q 114 6 134 0 q 82 24 94 12 q 66 53 71 35 q 62 94 62 71 l 62 879 z "},"į":{"ha":625,"x_min":62,"x_max":562,"o":"m 62 600 q 66 641 62 623 q 82 671 71 659 q 114 688 94 682 q 167 694 134 694 l 464 694 q 514 689 495 694 q 545 671 534 683 q 559 642 555 660 q 562 600 562 625 l 562 93 q 559 53 562 70 q 545 23 555 35 q 514 6 534 12 q 464 0 495 0 l 446 0 q 377 -37 412 -16 q 314 -81 342 -58 q 269 -127 286 -104 q 251 -172 251 -151 q 256 -198 251 -186 q 273 -218 261 -210 q 304 -232 285 -227 q 354 -237 324 -237 q 409 -233 387 -237 q 445 -226 431 -230 q 469 -218 460 -222 q 486 -215 479 -215 q 493 -217 490 -215 q 496 -227 496 -220 l 496 -292 q 489 -309 496 -304 q 469 -319 481 -314 q 437 -329 455 -325 q 401 -335 420 -333 q 363 -339 382 -338 q 330 -340 345 -340 q 257 -332 293 -340 q 192 -307 220 -325 q 146 -260 163 -290 q 128 -188 128 -231 q 139 -137 128 -163 q 171 -87 151 -111 q 220 -40 191 -62 q 286 0 250 -18 l 167 0 q 114 6 134 0 q 82 24 94 12 q 66 53 71 35 q 62 94 62 71 l 62 600 m 87 985 q 105 1073 87 1031 q 154 1145 123 1114 q 226 1193 184 1175 q 314 1211 267 1211 q 401 1193 360 1211 q 473 1145 442 1175 q 521 1073 503 1114 q 539 985 539 1031 q 521 898 539 939 q 473 826 503 857 q 401 778 442 795 q 314 760 360 760 q 226 778 267 760 q 154 826 184 795 q 105 898 123 857 q 87 985 87 939 z "},"İ":{"ha":631,"x_min":62,"x_max":568,"o":"m 62 879 q 66 920 62 903 q 82 950 71 938 q 114 968 94 962 q 167 974 134 974 l 469 974 q 529 962 509 974 q 558 933 550 951 q 568 897 567 916 q 568 861 568 878 l 568 110 q 566 75 568 94 q 552 40 563 56 q 519 12 541 23 q 457 0 496 0 l 167 0 q 114 6 134 0 q 82 24 94 12 q 66 53 71 35 q 62 94 62 71 l 62 879 m 218 1152 q 226 1192 218 1173 q 248 1223 234 1210 q 279 1245 261 1237 q 318 1253 298 1253 q 357 1245 339 1253 q 389 1223 376 1237 q 411 1192 403 1210 q 418 1152 418 1173 q 411 1114 418 1132 q 389 1082 403 1095 q 357 1060 376 1068 q 318 1053 339 1053 q 279 1060 298 1053 q 248 1082 261 1068 q 226 1114 234 1095 q 218 1152 218 1132 z "},"ı":{"ha":625,"x_min":62,"x_max":562,"o":"m 62 600 q 66 641 62 623 q 82 671 71 659 q 114 688 94 682 q 167 694 134 694 l 464 694 q 514 689 495 694 q 545 671 534 683 q 559 642 555 660 q 562 600 562 625 l 562 93 q 559 53 562 70 q 545 23 555 35 q 514 6 534 12 q 464 0 495 0 l 167 0 q 114 6 134 0 q 82 24 94 12 q 66 53 71 35 q 62 94 62 71 l 62 600 z "},"Ĳ":{"ha":1382,"x_min":62,"x_max":1320,"o":"m 62 879 q 66 920 62 903 q 82 950 71 938 q 114 968 94 962 q 167 974 134 974 l 469 974 q 529 962 509 974 q 558 933 550 951 q 568 897 567 916 q 568 861 568 878 l 568 110 q 566 75 568 94 q 552 40 563 56 q 519 12 541 23 q 457 0 496 0 l 167 0 q 114 6 134 0 q 82 24 94 12 q 66 53 71 35 q 62 94 62 71 l 62 879 m 646 93 q 648 104 646 102 q 655 106 651 106 q 681 100 663 106 q 729 94 699 94 q 814 199 814 94 l 814 880 q 816 912 814 895 q 828 942 819 928 q 858 965 838 956 q 913 974 878 974 l 1215 974 q 1268 968 1248 974 q 1300 950 1289 962 q 1316 920 1312 938 q 1320 879 1320 903 l 1320 341 q 1301 200 1320 260 q 1252 100 1283 141 q 1181 35 1221 60 q 1096 -4 1140 9 q 1007 -22 1052 -18 q 922 -26 962 -26 q 766 -15 831 -26 q 658 19 701 -3 q 650 25 654 20 q 646 41 646 29 l 646 93 z "},"ĳ":{"ha":1249,"x_min":62,"x_max":1187,"o":"m 62 600 q 66 641 62 623 q 82 671 71 659 q 114 688 94 682 q 167 694 134 694 l 464 694 q 514 689 495 694 q 545 671 534 683 q 559 642 555 660 q 562 600 562 625 l 562 93 q 559 53 562 70 q 545 23 555 35 q 514 6 534 12 q 464 0 495 0 l 167 0 q 114 6 134 0 q 82 24 94 12 q 66 53 71 35 q 62 94 62 71 l 62 600 m 87 985 q 105 1073 87 1031 q 154 1145 123 1114 q 226 1193 184 1175 q 314 1211 267 1211 q 401 1193 360 1211 q 473 1145 442 1175 q 521 1073 503 1114 q 539 985 539 1031 q 521 898 539 939 q 473 826 503 857 q 401 778 442 795 q 314 760 360 760 q 226 778 267 760 q 154 826 184 795 q 105 898 123 857 q 87 985 87 939 m 712 985 q 730 1073 712 1031 q 779 1145 748 1114 q 850 1193 809 1175 q 939 1211 892 1211 q 1026 1193 985 1211 q 1097 1145 1067 1175 q 1146 1073 1128 1114 q 1164 985 1164 1031 q 1146 898 1164 939 q 1097 826 1128 857 q 1026 778 1067 795 q 939 760 985 760 q 850 778 892 760 q 779 826 809 795 q 730 898 748 857 q 712 985 712 939 m 533 -178 q 536 -166 533 -169 q 543 -164 538 -164 q 551 -165 547 -164 q 562 -168 555 -167 q 578 -171 568 -170 q 602 -172 587 -172 q 687 -67 687 -172 l 687 600 q 689 632 687 616 q 702 663 692 649 q 731 686 711 677 q 786 694 751 694 l 1082 694 q 1135 688 1115 694 q 1167 670 1156 682 q 1183 641 1179 659 q 1187 600 1187 623 l 1187 74 q 1169 -67 1187 -7 q 1121 -167 1151 -126 q 1051 -233 1090 -208 q 968 -272 1011 -258 q 880 -290 924 -286 q 795 -294 835 -294 q 645 -282 705 -294 q 545 -250 585 -271 q 537 -244 542 -248 q 533 -228 533 -239 l 533 -178 z "},"Ĵ":{"ha":750,"x_min":14,"x_max":688,"o":"m 14 93 q 16 104 14 102 q 23 106 19 106 q 49 100 31 106 q 97 94 67 94 q 182 199 182 94 l 182 880 q 184 912 182 895 q 196 942 186 928 q 226 965 206 956 q 281 974 245 974 l 583 974 q 636 968 616 974 q 668 950 656 962 q 684 920 680 938 q 688 879 688 903 l 688 341 q 669 200 688 260 q 620 100 651 141 q 549 35 589 60 q 464 -4 508 9 q 375 -22 420 -18 q 290 -26 330 -26 q 134 -15 199 -26 q 26 19 68 -3 q 18 25 22 20 q 14 41 14 29 l 14 93 m 435 1147 l 283 1040 q 278 1038 280 1039 q 274 1036 276 1036 q 262 1043 267 1036 l 217 1103 q 213 1112 213 1107 q 219 1122 213 1117 l 425 1297 q 429 1300 427 1299 q 435 1301 431 1301 q 440 1300 438 1301 q 444 1297 442 1299 l 650 1122 q 656 1112 656 1117 q 652 1103 656 1107 l 607 1043 q 595 1036 602 1036 q 591 1038 593 1036 q 587 1040 589 1039 l 435 1147 z "},"ĵ":{"ha":625,"x_min":-92,"x_max":562,"o":"m -92 -178 q -89 -166 -92 -169 q -82 -164 -86 -164 q -74 -165 -78 -164 q -63 -168 -69 -167 q -47 -171 -56 -170 q -22 -172 -37 -172 q 62 -67 62 -172 l 62 600 q 65 632 62 616 q 77 663 67 649 q 106 686 87 677 q 161 694 126 694 l 458 694 q 511 688 490 694 q 543 670 531 682 q 558 641 554 659 q 562 600 562 623 l 562 74 q 544 -67 562 -7 q 496 -167 526 -126 q 426 -233 466 -208 q 343 -272 387 -258 q 255 -290 300 -286 q 170 -294 210 -294 q 20 -282 81 -294 q -79 -250 -40 -271 q -87 -244 -83 -248 q -92 -228 -92 -239 l -92 -178 m 315 897 l 163 790 q 158 787 160 789 q 154 786 156 786 q 142 793 147 786 l 97 852 q 93 862 93 857 q 99 872 93 867 l 305 1047 q 309 1050 307 1048 q 315 1051 311 1051 q 320 1050 318 1051 q 324 1047 322 1048 l 530 872 q 536 862 536 867 q 532 852 536 857 l 487 793 q 475 786 481 786 q 471 787 473 786 q 467 790 469 789 l 315 897 z "},"ȷ":{"ha":625,"x_min":-92,"x_max":562,"o":"m -92 -178 q -89 -166 -92 -169 q -82 -164 -86 -164 q -74 -165 -78 -164 q -63 -168 -69 -167 q -47 -171 -56 -170 q -22 -172 -37 -172 q 62 -67 62 -172 l 62 600 q 65 632 62 616 q 77 663 67 649 q 106 686 87 677 q 161 694 126 694 l 458 694 q 511 688 490 694 q 543 670 531 682 q 558 641 554 659 q 562 600 562 623 l 562 74 q 544 -67 562 -7 q 496 -167 526 -126 q 426 -233 466 -208 q 343 -272 387 -258 q 255 -290 300 -286 q 170 -294 210 -294 q 20 -282 81 -294 q -79 -250 -40 -271 q -87 -244 -83 -248 q -92 -228 -92 -239 l -92 -178 z "},"Ķ":{"ha":886,"x_min":62,"x_max":841,"o":"m 62 879 q 66 920 62 903 q 82 950 71 938 q 114 968 94 962 q 167 974 134 974 l 469 974 q 524 965 505 974 q 554 941 544 956 q 566 910 564 927 q 568 877 568 892 l 568 797 l 738 962 q 755 976 747 971 q 770 981 762 981 q 782 978 777 981 q 793 968 787 975 l 831 928 q 838 919 836 923 q 841 909 841 914 q 825 882 841 895 l 617 720 q 758 665 713 711 q 802 530 802 618 l 802 32 q 799 14 802 20 q 791 4 795 7 q 781 1 787 1 q 768 0 774 0 l 711 0 q 689 10 694 0 q 684 32 684 20 l 684 538 q 678 589 684 569 q 659 622 672 610 q 623 641 645 635 q 568 648 601 646 l 568 110 q 566 75 568 94 q 552 40 563 56 q 519 12 541 23 q 457 0 496 0 l 167 0 q 114 6 134 0 q 82 24 94 12 q 66 53 71 35 q 62 94 62 71 l 62 879 m 371 -170 q 378 -136 371 -152 q 396 -109 385 -121 q 424 -91 408 -98 q 457 -84 439 -84 q 490 -91 475 -84 q 517 -109 506 -98 q 536 -136 529 -121 q 543 -170 543 -152 q 539 -193 543 -181 q 532 -215 536 -205 l 484 -329 q 476 -343 479 -338 q 463 -347 473 -347 l 418 -347 q 407 -340 407 -347 q 410 -331 407 -338 l 444 -254 q 416 -244 429 -252 q 393 -225 403 -237 q 377 -200 382 -214 q 371 -170 371 -186 z "},"ķ":{"ha":825,"x_min":62,"x_max":814,"o":"m 62 1017 q 66 1058 62 1040 q 82 1087 71 1076 q 114 1105 94 1099 q 167 1111 134 1111 l 464 1111 q 514 1105 495 1111 q 544 1087 533 1099 q 558 1058 555 1076 q 562 1017 562 1040 l 562 527 l 725 688 q 739 699 732 696 q 751 702 746 702 q 772 692 764 702 l 806 656 q 814 640 814 648 q 809 625 814 632 q 792 608 804 617 l 580 452 q 675 437 636 450 q 737 401 713 425 q 771 342 761 377 q 782 260 782 307 l 782 32 q 779 14 782 20 q 771 4 776 7 q 761 1 767 1 q 749 0 755 0 l 705 0 q 683 10 688 0 q 677 32 677 20 l 677 267 q 672 318 677 298 q 652 352 666 339 q 617 370 639 364 q 562 377 595 376 l 562 93 q 558 53 562 70 q 541 23 553 35 q 507 6 529 12 q 452 0 486 0 l 167 0 q 114 6 134 0 q 82 24 94 12 q 66 53 71 35 q 62 94 62 71 l 62 1017 m 327 -170 q 334 -136 327 -152 q 352 -109 340 -121 q 380 -91 364 -98 q 413 -84 395 -84 q 446 -91 431 -84 q 473 -109 462 -98 q 492 -136 485 -121 q 498 -170 498 -152 q 495 -193 498 -181 q 488 -215 492 -205 l 439 -329 q 432 -343 435 -338 q 418 -347 429 -347 l 374 -347 q 363 -340 363 -347 q 366 -331 363 -338 l 400 -254 q 372 -244 385 -252 q 349 -225 359 -237 q 333 -200 338 -214 q 327 -170 327 -186 z "},"ĸ":{"ha":825,"x_min":62,"x_max":814,"o":"m 62 600 q 66 641 62 623 q 82 671 71 659 q 114 688 94 682 q 167 694 134 694 l 464 694 q 514 688 495 694 q 544 671 533 682 q 558 641 555 659 q 562 600 562 623 l 562 527 l 725 688 q 739 699 732 696 q 751 702 746 702 q 772 692 764 702 l 806 656 q 814 640 814 648 q 809 625 814 632 q 792 608 804 617 l 580 452 q 675 437 636 450 q 737 401 713 425 q 771 342 761 377 q 782 260 782 307 l 782 32 q 779 14 782 20 q 771 4 776 7 q 761 1 767 1 q 749 0 755 0 l 705 0 q 683 10 688 0 q 677 32 677 20 l 677 267 q 672 318 677 298 q 652 352 666 339 q 617 370 639 364 q 562 377 595 376 l 562 93 q 558 53 562 70 q 541 23 553 35 q 507 6 529 12 q 452 0 486 0 l 167 0 q 114 6 134 0 q 82 24 94 12 q 66 53 71 35 q 62 94 62 71 l 62 600 z "},"Ĺ":{"ha":804,"x_min":62,"x_max":790,"o":"m 62 879 q 66 920 62 903 q 82 950 71 938 q 114 968 94 962 q 167 974 134 974 l 469 974 q 529 962 509 974 q 558 933 550 951 q 568 897 567 916 q 568 861 568 878 l 568 93 q 655 105 615 100 q 689 110 672 107 q 721 114 707 112 q 747 117 736 116 q 764 118 759 118 q 783 114 776 118 q 790 96 790 109 l 790 33 q 780 11 790 21 q 746 0 769 0 l 165 0 q 114 6 134 0 q 82 24 94 12 q 66 53 71 35 q 62 94 62 71 l 62 879 m 255 1040 q 250 1038 252 1039 q 246 1036 248 1036 q 235 1043 239 1036 l 189 1109 q 185 1119 185 1114 q 191 1129 185 1124 l 431 1311 q 441 1315 436 1315 q 451 1309 446 1315 l 513 1221 q 518 1211 518 1215 q 512 1200 518 1204 l 255 1040 z "},"ĺ":{"ha":625,"x_min":62,"x_max":562,"o":"m 62 1017 q 66 1058 62 1040 q 82 1087 71 1076 q 114 1105 94 1099 q 167 1111 134 1111 l 464 1111 q 514 1105 495 1111 q 544 1088 533 1099 q 558 1059 555 1076 q 562 1017 562 1041 l 562 93 q 558 53 562 70 q 543 23 554 35 q 513 6 532 12 q 463 0 494 0 l 167 0 q 114 6 134 0 q 82 24 94 12 q 66 53 71 35 q 62 94 62 71 l 62 1017 m 248 1166 q 243 1164 245 1165 q 239 1162 241 1162 q 228 1169 232 1162 l 182 1236 q 178 1245 178 1240 q 184 1255 178 1250 l 425 1437 q 434 1441 429 1441 q 444 1435 439 1441 l 507 1347 q 511 1337 511 1341 q 505 1326 511 1331 l 248 1166 z "},"Ļ":{"ha":804,"x_min":62,"x_max":790,"o":"m 62 879 q 66 920 62 903 q 82 950 71 938 q 114 968 94 962 q 167 974 134 974 l 469 974 q 529 962 509 974 q 558 933 550 951 q 568 897 567 916 q 568 861 568 878 l 568 93 q 655 105 615 100 q 689 110 672 107 q 721 114 707 112 q 747 117 736 116 q 764 118 759 118 q 783 114 776 118 q 790 96 790 109 l 790 33 q 780 11 790 21 q 746 0 769 0 l 165 0 q 114 6 134 0 q 82 24 94 12 q 66 53 71 35 q 62 94 62 71 l 62 879 m 323 -170 q 330 -136 323 -152 q 348 -109 336 -121 q 376 -91 360 -98 q 409 -84 391 -84 q 442 -91 427 -84 q 469 -109 458 -98 q 488 -136 481 -121 q 494 -170 494 -152 q 491 -193 494 -181 q 484 -215 488 -205 l 435 -329 q 428 -343 431 -338 q 414 -347 425 -347 l 370 -347 q 359 -340 359 -347 q 362 -331 359 -338 l 396 -254 q 368 -244 381 -252 q 345 -225 355 -237 q 329 -200 334 -214 q 323 -170 323 -186 z "},"ļ":{"ha":625,"x_min":62,"x_max":562,"o":"m 62 1017 q 66 1058 62 1040 q 82 1087 71 1076 q 114 1105 94 1099 q 167 1111 134 1111 l 464 1111 q 514 1105 495 1111 q 544 1088 533 1099 q 558 1059 555 1076 q 562 1017 562 1041 l 562 93 q 558 53 562 70 q 543 23 554 35 q 513 6 532 12 q 463 0 494 0 l 167 0 q 114 6 134 0 q 82 24 94 12 q 66 53 71 35 q 62 94 62 71 l 62 1017 m 227 -170 q 233 -136 227 -152 q 252 -109 240 -121 q 279 -91 264 -98 q 313 -84 295 -84 q 346 -91 330 -84 q 373 -109 361 -98 q 391 -136 385 -121 q 398 -170 398 -152 q 395 -193 398 -181 q 388 -215 392 -205 l 339 -329 q 332 -343 335 -338 q 318 -347 329 -347 l 273 -347 q 262 -340 262 -347 q 266 -331 262 -338 l 300 -254 q 272 -244 285 -252 q 248 -225 258 -237 q 232 -200 238 -214 q 227 -170 227 -186 z "},"Ľ":{"ha":818,"x_min":62,"x_max":818,"o":"m 62 879 q 66 920 62 903 q 82 950 71 938 q 114 968 94 962 q 167 974 134 974 l 469 974 q 529 962 509 974 q 558 933 550 951 q 568 897 567 916 q 568 861 568 878 l 568 93 q 655 105 615 100 q 689 110 672 107 q 721 114 707 112 q 747 117 736 116 q 764 118 759 118 q 783 114 776 118 q 790 96 790 109 l 790 33 q 780 11 790 21 q 746 0 769 0 l 165 0 q 114 6 134 0 q 82 24 94 12 q 66 53 71 35 q 62 94 62 71 l 62 879 m 627 911 q 635 948 627 930 q 655 978 642 965 q 686 998 669 991 q 723 1006 703 1006 q 760 998 743 1006 q 790 978 777 991 q 810 948 803 965 q 818 911 818 930 q 814 885 818 898 q 806 861 810 871 l 753 734 q 744 719 747 724 q 729 713 741 713 l 680 713 q 667 722 667 713 q 671 732 667 726 l 709 817 q 677 828 692 819 q 651 849 663 836 q 634 877 640 861 q 627 911 627 893 z "},"ľ":{"ha":815,"x_min":62,"x_max":815,"o":"m 62 1017 q 66 1058 62 1040 q 82 1087 71 1076 q 114 1105 94 1099 q 167 1111 134 1111 l 464 1111 q 514 1105 495 1111 q 544 1088 533 1099 q 558 1059 555 1076 q 562 1017 562 1041 l 562 93 q 558 53 562 70 q 543 23 554 35 q 513 6 532 12 q 463 0 494 0 l 167 0 q 114 6 134 0 q 82 24 94 12 q 66 53 71 35 q 62 94 62 71 l 62 1017 m 625 911 q 632 948 625 930 q 653 978 640 965 q 683 998 666 991 q 720 1006 701 1006 q 757 998 740 1006 q 787 978 774 991 q 808 948 800 965 q 815 911 815 930 q 811 885 815 898 q 804 861 808 871 l 750 734 q 741 719 745 724 q 726 713 738 713 l 677 713 q 665 722 665 713 q 668 732 665 726 l 706 817 q 674 828 689 819 q 649 849 660 836 q 631 877 637 861 q 625 911 625 893 z "},"Ŀ":{"ha":836,"x_min":62,"x_max":836,"o":"m 62 879 q 66 920 62 903 q 82 950 71 938 q 114 968 94 962 q 167 974 134 974 l 469 974 q 529 962 509 974 q 558 933 550 951 q 568 897 567 916 q 568 861 568 878 l 568 93 q 655 105 615 100 q 689 110 672 107 q 721 114 707 112 q 747 117 736 116 q 764 118 759 118 q 783 114 776 118 q 790 96 790 109 l 790 33 q 780 11 790 21 q 746 0 769 0 l 165 0 q 114 6 134 0 q 82 24 94 12 q 66 53 71 35 q 62 94 62 71 l 62 879 m 636 349 q 644 388 636 370 q 665 420 652 406 q 697 441 679 433 q 736 449 715 449 q 775 441 757 449 q 807 420 793 433 q 828 388 821 406 q 836 349 836 370 q 828 310 836 328 q 807 278 821 292 q 775 257 793 264 q 736 249 757 249 q 697 257 715 249 q 665 278 679 264 q 644 310 652 292 q 636 349 636 328 z "},"ŀ":{"ha":838,"x_min":62,"x_max":825,"o":"m 62 1017 q 66 1058 62 1040 q 82 1087 71 1076 q 114 1105 94 1099 q 167 1111 134 1111 l 464 1111 q 514 1105 495 1111 q 544 1088 533 1099 q 558 1059 555 1076 q 562 1017 562 1041 l 562 93 q 558 53 562 70 q 543 23 554 35 q 513 6 532 12 q 463 0 494 0 l 167 0 q 114 6 134 0 q 82 24 94 12 q 66 53 71 35 q 62 94 62 71 l 62 1017 m 625 361 q 632 401 625 382 q 654 433 640 419 q 686 454 667 446 q 724 462 704 462 q 764 454 745 462 q 795 433 782 446 q 817 401 809 419 q 825 361 825 382 q 817 323 825 341 q 795 291 809 304 q 764 270 782 277 q 724 262 745 262 q 686 270 704 262 q 654 291 667 277 q 632 323 640 304 q 625 361 625 341 z "},"Ł":{"ha":817,"x_min":-41,"x_max":804,"o":"m 76 189 l 12 160 q -7 168 -1 153 l -35 230 q -28 249 -41 243 l 76 297 l 76 879 q 80 920 76 903 q 96 950 84 938 q 127 968 107 962 q 180 974 148 974 l 483 974 q 543 962 522 974 q 572 933 564 951 q 581 897 581 916 q 582 861 582 878 l 582 530 l 687 578 q 706 571 700 584 l 735 509 q 728 489 741 496 l 582 422 l 582 93 q 669 105 629 100 q 703 110 686 107 q 735 114 720 112 q 761 117 749 116 q 778 118 772 118 q 797 114 789 118 q 804 96 804 109 l 804 33 q 793 11 804 21 q 760 0 783 0 l 179 0 q 127 6 147 0 q 96 24 107 12 q 80 53 84 35 q 76 94 76 71 l 76 189 z "},"ł":{"ha":638,"x_min":-35,"x_max":675,"o":"m 69 312 l 19 289 q 0 296 5 282 l -28 359 q -22 378 -35 372 l 69 419 l 69 1017 q 73 1058 69 1040 q 89 1087 77 1076 q 121 1105 100 1099 q 174 1111 141 1111 l 471 1111 q 521 1105 502 1111 q 551 1088 540 1099 q 565 1059 562 1076 q 569 1017 569 1041 l 569 649 l 622 673 q 641 667 635 680 l 670 604 q 663 585 675 591 l 569 541 l 569 93 q 565 53 569 70 q 550 23 561 35 q 520 6 539 12 q 469 0 500 0 l 174 0 q 121 6 141 0 q 89 24 100 12 q 73 53 77 35 q 69 94 69 71 l 69 312 z "},"Ñ":{"ha":936,"x_min":62,"x_max":873,"o":"m 840 974 q 863 966 853 974 q 873 935 873 958 l 873 50 q 826 0 873 0 l 591 0 q 554 9 568 0 q 528 29 539 18 l 180 392 q 193 230 186 304 q 197 167 195 198 q 202 109 200 136 q 206 61 204 81 q 208 32 208 41 q 204 10 210 20 q 181 0 199 0 l 96 0 q 73 8 83 0 q 62 39 62 16 l 62 924 q 118 974 62 974 l 347 974 q 390 963 373 974 q 425 935 408 952 l 755 607 q 743 756 749 688 q 738 814 741 785 q 734 869 736 844 q 730 913 732 895 q 728 942 728 932 q 732 963 726 953 q 759 974 738 974 l 840 974 m 685 1285 q 695 1278 694 1285 q 695 1264 696 1272 q 678 1198 690 1230 q 649 1144 667 1167 q 609 1106 632 1120 q 559 1093 587 1093 q 511 1103 534 1093 q 466 1125 487 1113 q 427 1147 444 1137 q 397 1158 409 1158 q 373 1153 382 1158 q 358 1140 363 1148 q 350 1121 352 1132 q 346 1100 347 1111 q 341 1094 345 1096 q 323 1093 338 1093 l 256 1093 q 247 1095 249 1093 q 244 1102 244 1098 q 244 1110 243 1106 q 245 1116 245 1114 q 261 1180 250 1149 q 290 1233 273 1211 q 331 1270 308 1256 q 382 1283 354 1283 q 430 1273 406 1283 q 475 1251 454 1263 q 514 1229 496 1239 q 543 1219 532 1219 q 568 1224 559 1219 q 584 1237 578 1229 q 592 1256 589 1245 q 595 1278 594 1266 q 599 1283 596 1282 q 612 1285 602 1285 l 685 1285 z "},"ñ":{"ha":844,"x_min":62,"x_max":782,"o":"m 62 600 q 66 641 62 623 q 82 671 71 659 q 114 688 94 682 q 167 694 134 694 l 444 694 q 497 688 475 694 q 528 667 519 682 q 550 681 537 673 q 577 694 562 688 q 609 704 592 700 q 644 708 626 708 q 746 663 709 708 q 782 532 782 618 l 782 32 q 779 14 782 20 q 771 4 776 7 q 761 1 767 1 q 749 0 755 0 l 705 0 q 683 10 688 0 q 677 32 677 20 l 677 538 q 664 597 677 577 q 619 618 650 618 q 588 609 604 618 q 562 591 572 601 l 562 95 q 558 54 562 71 q 543 24 554 36 q 511 6 531 12 q 458 0 490 0 l 167 0 q 114 6 134 0 q 82 24 94 12 q 66 53 71 35 q 62 94 62 71 l 62 600 m 637 1006 q 647 999 646 1006 q 647 985 648 992 q 630 919 642 950 q 601 864 618 888 q 561 827 584 841 q 511 813 538 813 q 463 823 486 813 q 417 846 439 833 q 378 868 396 858 q 349 878 361 878 q 325 873 334 878 q 310 861 315 869 q 301 842 304 852 q 298 821 299 831 q 293 815 297 817 q 275 813 290 813 l 208 813 q 198 816 201 813 q 196 823 196 819 q 196 830 195 827 q 197 836 197 834 q 213 901 201 870 q 242 954 224 931 q 283 990 260 977 q 334 1004 306 1004 q 382 994 358 1004 q 427 971 406 983 q 466 949 448 960 q 495 939 484 939 q 520 944 511 939 q 535 958 530 949 q 544 976 541 966 q 547 998 546 987 q 551 1004 548 1002 q 564 1006 553 1006 l 637 1006 z "},"Ń":{"ha":936,"x_min":62,"x_max":873,"o":"m 840 974 q 863 966 853 974 q 873 935 873 958 l 873 50 q 826 0 873 0 l 591 0 q 554 9 568 0 q 528 29 539 18 l 180 392 q 193 230 186 304 q 197 167 195 198 q 202 109 200 136 q 206 61 204 81 q 208 32 208 41 q 204 10 210 20 q 181 0 199 0 l 96 0 q 73 8 83 0 q 62 39 62 16 l 62 924 q 118 974 62 974 l 347 974 q 390 963 373 974 q 425 935 408 952 l 755 607 q 743 756 749 688 q 738 814 741 785 q 734 869 736 844 q 730 913 732 895 q 728 942 728 932 q 732 963 726 953 q 759 974 738 974 l 840 974 m 420 1040 q 416 1038 418 1039 q 412 1036 414 1036 q 400 1043 404 1036 l 355 1109 q 351 1119 351 1114 q 357 1129 351 1124 l 597 1311 q 606 1315 602 1315 q 616 1309 611 1315 l 679 1221 q 684 1211 684 1215 q 677 1200 684 1204 l 420 1040 z "},"ń":{"ha":844,"x_min":62,"x_max":782,"o":"m 62 600 q 66 641 62 623 q 82 671 71 659 q 114 688 94 682 q 167 694 134 694 l 444 694 q 497 688 475 694 q 528 667 519 682 q 550 681 537 673 q 577 694 562 688 q 609 704 592 700 q 644 708 626 708 q 746 663 709 708 q 782 532 782 618 l 782 32 q 779 14 782 20 q 771 4 776 7 q 761 1 767 1 q 749 0 755 0 l 705 0 q 683 10 688 0 q 677 32 677 20 l 677 538 q 664 597 677 577 q 619 618 650 618 q 588 609 604 618 q 562 591 572 601 l 562 95 q 558 54 562 71 q 543 24 554 36 q 511 6 531 12 q 458 0 490 0 l 167 0 q 114 6 134 0 q 82 24 94 12 q 66 53 71 35 q 62 94 62 71 l 62 600 m 367 790 q 362 787 364 789 q 358 786 360 786 q 347 793 351 786 l 301 859 q 297 869 297 864 q 303 879 297 873 l 543 1061 q 553 1065 548 1065 q 563 1059 557 1065 l 625 970 q 630 960 630 965 q 624 950 630 954 l 367 790 z "},"Ņ":{"ha":936,"x_min":62,"x_max":873,"o":"m 840 974 q 863 966 853 974 q 873 935 873 958 l 873 50 q 826 0 873 0 l 591 0 q 554 9 568 0 q 528 29 539 18 l 180 392 q 193 230 186 304 q 197 167 195 198 q 202 109 200 136 q 206 61 204 81 q 208 32 208 41 q 204 10 210 20 q 181 0 199 0 l 96 0 q 73 8 83 0 q 62 39 62 16 l 62 924 q 118 974 62 974 l 347 974 q 390 963 373 974 q 425 935 408 952 l 755 607 q 743 756 749 688 q 738 814 741 785 q 734 869 736 844 q 730 913 732 895 q 728 942 728 932 q 732 963 726 953 q 759 974 738 974 l 840 974 m 395 -170 q 402 -136 395 -152 q 421 -109 409 -121 q 448 -91 433 -98 q 481 -84 464 -84 q 515 -91 499 -84 q 542 -109 530 -98 q 560 -136 553 -121 q 567 -170 567 -152 q 564 -193 567 -181 q 557 -215 561 -205 l 508 -329 q 501 -343 504 -338 q 487 -347 498 -347 l 442 -347 q 431 -340 431 -347 q 435 -331 431 -338 l 469 -254 q 440 -244 454 -252 q 417 -225 427 -237 q 401 -200 407 -214 q 395 -170 395 -186 z "},"ņ":{"ha":844,"x_min":62,"x_max":782,"o":"m 62 600 q 66 641 62 623 q 82 671 71 659 q 114 688 94 682 q 167 694 134 694 l 444 694 q 497 688 475 694 q 528 667 519 682 q 550 681 537 673 q 577 694 562 688 q 609 704 592 700 q 644 708 626 708 q 746 663 709 708 q 782 532 782 618 l 782 32 q 779 14 782 20 q 771 4 776 7 q 761 1 767 1 q 749 0 755 0 l 705 0 q 683 10 688 0 q 677 32 677 20 l 677 538 q 664 597 677 577 q 619 618 650 618 q 588 609 604 618 q 562 591 572 601 l 562 95 q 558 54 562 71 q 543 24 554 36 q 511 6 531 12 q 458 0 490 0 l 167 0 q 114 6 134 0 q 82 24 94 12 q 66 53 71 35 q 62 94 62 71 l 62 600 m 357 -170 q 363 -136 357 -152 q 382 -109 370 -121 q 410 -91 394 -98 q 443 -84 425 -84 q 476 -91 460 -84 q 503 -109 492 -98 q 522 -136 515 -121 q 528 -170 528 -152 q 525 -193 528 -181 q 518 -215 522 -205 l 469 -329 q 462 -343 465 -338 q 448 -347 459 -347 l 404 -347 q 393 -340 393 -347 q 396 -331 393 -338 l 430 -254 q 402 -244 415 -252 q 378 -225 389 -237 q 362 -200 368 -214 q 357 -170 357 -186 z "},"Ň":{"ha":936,"x_min":62,"x_max":873,"o":"m 840 974 q 863 966 853 974 q 873 935 873 958 l 873 50 q 826 0 873 0 l 591 0 q 554 9 568 0 q 528 29 539 18 l 180 392 q 193 230 186 304 q 197 167 195 198 q 202 109 200 136 q 206 61 204 81 q 208 32 208 41 q 204 10 210 20 q 181 0 199 0 l 96 0 q 73 8 83 0 q 62 39 62 16 l 62 924 q 118 974 62 974 l 347 974 q 390 963 373 974 q 425 935 408 952 l 755 607 q 743 756 749 688 q 738 814 741 785 q 734 869 736 844 q 730 913 732 895 q 728 942 728 932 q 732 963 726 953 q 759 974 738 974 l 840 974 m 635 1297 q 640 1300 638 1299 q 644 1301 642 1301 q 656 1295 650 1301 l 701 1235 q 705 1225 705 1230 q 699 1215 705 1220 l 493 1040 q 489 1038 491 1039 q 484 1036 487 1036 q 478 1038 480 1036 q 474 1040 476 1039 l 268 1215 q 262 1225 262 1220 q 266 1235 262 1230 l 311 1295 q 317 1300 315 1299 q 323 1301 319 1301 q 327 1300 325 1301 q 332 1297 329 1299 l 484 1190 l 635 1297 z "},"ň":{"ha":844,"x_min":62,"x_max":782,"o":"m 62 600 q 66 641 62 623 q 82 671 71 659 q 114 688 94 682 q 167 694 134 694 l 444 694 q 497 688 475 694 q 528 667 519 682 q 550 681 537 673 q 577 694 562 688 q 609 704 592 700 q 644 708 626 708 q 746 663 709 708 q 782 532 782 618 l 782 32 q 779 14 782 20 q 771 4 776 7 q 761 1 767 1 q 749 0 755 0 l 705 0 q 683 10 688 0 q 677 32 677 20 l 677 538 q 664 597 677 577 q 619 618 650 618 q 588 609 604 618 q 562 591 572 601 l 562 95 q 558 54 562 71 q 543 24 554 36 q 511 6 531 12 q 458 0 490 0 l 167 0 q 114 6 134 0 q 82 24 94 12 q 66 53 71 35 q 62 94 62 71 l 62 600 m 582 1047 q 587 1050 585 1048 q 591 1051 589 1051 q 602 1044 597 1051 l 648 985 q 652 975 652 979 q 646 965 652 970 l 439 790 q 435 787 437 789 q 430 786 433 786 q 425 787 427 786 q 420 790 422 789 l 214 965 q 208 975 208 970 q 212 985 208 979 l 258 1044 q 263 1050 261 1048 q 269 1051 266 1051 q 273 1050 271 1051 q 278 1047 275 1048 l 430 940 l 582 1047 z "},"ŉ":{"ha":960,"x_min":1,"x_max":897,"o":"m 178 600 q 182 641 178 623 q 197 671 186 659 q 229 688 209 682 q 282 694 250 694 l 559 694 q 612 688 590 694 q 644 667 634 682 q 665 681 652 673 q 692 694 677 688 q 724 704 707 700 q 760 708 741 708 q 861 663 825 708 q 897 532 897 618 l 897 32 q 894 14 897 20 q 887 4 891 7 q 876 1 882 1 q 864 0 870 0 l 821 0 q 798 10 803 0 q 793 32 793 20 l 793 538 q 779 597 793 577 q 734 618 765 618 q 703 609 719 618 q 677 591 687 601 l 677 95 q 673 54 677 71 q 658 24 669 36 q 626 6 646 12 q 573 0 606 0 l 282 0 q 229 6 250 0 q 197 24 209 12 q 182 53 186 35 q 178 94 178 71 l 178 600 m 1 888 q 7 922 1 906 q 26 949 14 937 q 54 967 38 960 q 87 974 69 974 q 120 967 104 974 q 147 949 136 960 q 165 922 159 937 q 172 888 172 906 q 169 865 172 877 q 162 843 166 852 l 113 729 q 106 715 109 720 q 92 711 103 711 l 47 711 q 37 718 37 711 q 40 727 37 720 l 74 804 q 46 814 59 806 q 22 832 33 821 q 6 858 12 844 q 1 888 1 872 z "},"Ŋ":{"ha":936,"x_min":62,"x_max":873,"o":"m 468 -224 q 471 -213 468 -215 q 477 -210 473 -210 q 493 -214 481 -210 q 523 -221 505 -217 q 562 -228 540 -224 q 608 -231 584 -231 q 656 -224 634 -231 q 693 -199 677 -216 q 718 -156 709 -182 q 726 -91 726 -130 l 726 -28 l 174 469 q 190 269 182 359 q 196 192 193 230 q 201 121 199 153 q 206 64 204 88 q 208 32 208 41 q 204 10 210 20 q 181 0 199 0 l 96 0 q 73 8 83 0 q 62 39 62 16 l 62 924 q 118 974 62 974 l 347 974 q 390 963 373 974 q 425 935 408 952 l 755 607 q 743 756 749 688 q 738 814 741 785 q 734 869 736 844 q 730 913 732 895 q 728 942 728 932 q 732 963 726 953 q 759 974 738 974 l 840 974 q 863 966 853 974 q 873 935 873 958 l 873 -65 q 863 -172 873 -127 q 833 -249 852 -217 q 791 -299 815 -280 q 742 -329 768 -319 q 689 -343 715 -340 q 639 -347 663 -347 q 597 -345 617 -347 q 559 -337 578 -342 q 520 -325 540 -332 q 480 -306 501 -317 q 472 -299 477 -304 q 468 -283 468 -294 l 468 -224 z "},"ŋ":{"ha":844,"x_min":62,"x_max":782,"o":"m 412 -191 q 416 -180 412 -182 q 425 -178 420 -178 q 439 -181 431 -178 q 461 -188 448 -184 q 493 -195 475 -192 q 538 -198 512 -198 q 602 -187 575 -198 q 645 -156 628 -176 q 670 -109 662 -136 q 677 -47 677 -81 l 677 538 q 664 597 677 577 q 619 618 650 618 q 588 609 604 618 q 562 591 572 601 l 562 95 q 558 54 562 71 q 543 24 554 36 q 511 6 531 12 q 458 0 490 0 l 167 0 q 114 6 134 0 q 82 24 94 12 q 66 53 71 35 q 62 94 62 71 l 62 600 q 66 641 62 623 q 82 671 71 659 q 114 688 94 682 q 167 694 134 694 l 444 694 q 497 688 475 694 q 528 667 519 682 q 550 681 537 673 q 577 694 562 688 q 609 704 592 700 q 644 708 626 708 q 746 663 709 708 q 782 532 782 618 l 782 -26 q 761 -160 782 -108 q 708 -242 741 -212 q 636 -283 675 -272 q 560 -294 597 -294 q 483 -288 517 -294 q 425 -266 448 -282 q 416 -259 421 -264 q 412 -241 412 -254 l 412 -191 z "},"Ò":{"ha":986,"x_min":41,"x_max":945,"o":"m 493 -26 q 384 -17 439 -26 q 279 16 330 -7 q 186 77 229 39 q 110 173 142 115 q 60 308 78 230 q 41 490 41 387 q 60 672 41 593 q 110 808 78 751 q 186 903 142 865 q 279 964 229 941 q 384 996 330 987 q 493 1006 439 1006 q 602 996 547 1006 q 707 964 657 987 q 801 903 758 941 q 876 808 844 865 q 926 672 908 751 q 945 490 945 593 q 926 309 945 387 q 876 173 908 230 q 801 77 844 115 q 707 16 758 39 q 602 -17 657 -7 q 493 -26 547 -26 m 554 490 q 567 349 554 406 q 600 257 579 292 q 647 208 621 222 q 701 193 673 193 q 755 208 729 193 q 803 257 782 222 q 836 349 823 292 q 848 490 848 406 q 836 632 848 575 q 803 724 823 689 q 755 773 782 758 q 701 787 729 787 q 647 773 673 787 q 600 724 621 758 q 567 632 579 689 q 554 490 554 575 m 346 1230 q 340 1240 340 1234 q 345 1250 340 1244 l 407 1338 q 417 1344 412 1344 q 427 1340 421 1344 l 667 1158 q 673 1148 673 1153 q 669 1139 673 1143 l 623 1072 q 612 1065 619 1065 q 608 1067 610 1065 q 603 1069 606 1068 l 346 1230 z "},"ò":{"ha":908,"x_min":36,"x_max":872,"o":"m 454 -24 q 353 -16 404 -24 q 255 10 302 -7 q 169 56 209 28 q 99 126 129 85 q 53 222 70 168 q 36 347 36 277 q 53 471 36 416 q 99 567 70 526 q 169 637 129 608 q 255 684 209 666 q 353 710 302 702 q 454 718 404 718 q 550 712 501 718 q 646 691 600 707 q 733 650 692 676 q 805 583 774 624 q 854 486 836 543 q 872 353 872 429 q 854 215 872 274 q 806 115 837 157 q 734 46 775 73 q 647 4 694 19 q 551 -18 601 -12 q 454 -24 502 -24 m 663 139 q 704 148 684 139 q 741 181 725 157 q 767 247 757 205 q 777 353 777 288 q 767 453 777 414 q 741 515 757 492 q 704 547 724 538 q 663 555 684 555 q 626 549 646 555 q 589 520 606 542 q 560 457 572 498 q 549 347 549 416 q 558 237 549 279 q 583 174 568 196 q 620 146 599 153 q 663 139 640 139 m 307 950 q 300 960 300 954 q 305 970 300 965 l 368 1059 q 378 1065 372 1065 q 387 1061 382 1065 l 627 879 q 633 869 633 873 q 629 859 633 864 l 584 793 q 572 786 580 786 q 568 787 570 786 q 564 790 566 789 l 307 950 z "},"Ó":{"ha":986,"x_min":41,"x_max":945,"o":"m 493 -26 q 384 -17 439 -26 q 279 16 330 -7 q 186 77 229 39 q 110 173 142 115 q 60 308 78 230 q 41 490 41 387 q 60 672 41 593 q 110 808 78 751 q 186 903 142 865 q 279 964 229 941 q 384 996 330 987 q 493 1006 439 1006 q 602 996 547 1006 q 707 964 657 987 q 801 903 758 941 q 876 808 844 865 q 926 672 908 751 q 945 490 945 593 q 926 309 945 387 q 876 173 908 230 q 801 77 844 115 q 707 16 758 39 q 602 -17 657 -7 q 493 -26 547 -26 m 554 490 q 567 349 554 406 q 600 257 579 292 q 647 208 621 222 q 701 193 673 193 q 755 208 729 193 q 803 257 782 222 q 836 349 823 292 q 848 490 848 406 q 836 632 848 575 q 803 724 823 689 q 755 773 782 758 q 701 787 729 787 q 647 773 673 787 q 600 724 621 758 q 567 632 579 689 q 554 490 554 575 m 412 1069 q 407 1067 409 1068 q 403 1065 405 1065 q 391 1072 395 1065 l 346 1139 q 342 1148 342 1143 q 348 1158 342 1153 l 588 1340 q 597 1344 593 1344 q 608 1338 602 1344 l 670 1250 q 675 1240 675 1244 q 669 1230 675 1234 l 412 1069 z "},"ó":{"ha":908,"x_min":36,"x_max":872,"o":"m 454 -24 q 353 -16 404 -24 q 255 10 302 -7 q 169 56 209 28 q 99 126 129 85 q 53 222 70 168 q 36 347 36 277 q 53 471 36 416 q 99 567 70 526 q 169 637 129 608 q 255 684 209 666 q 353 710 302 702 q 454 718 404 718 q 550 712 501 718 q 646 691 600 707 q 733 650 692 676 q 805 583 774 624 q 854 486 836 543 q 872 353 872 429 q 854 215 872 274 q 806 115 837 157 q 734 46 775 73 q 647 4 694 19 q 551 -18 601 -12 q 454 -24 502 -24 m 663 139 q 704 148 684 139 q 741 181 725 157 q 767 247 757 205 q 777 353 777 288 q 767 453 777 414 q 741 515 757 492 q 704 547 724 538 q 663 555 684 555 q 626 549 646 555 q 589 520 606 542 q 560 457 572 498 q 549 347 549 416 q 558 237 549 279 q 583 174 568 196 q 620 146 599 153 q 663 139 640 139 m 372 790 q 368 787 370 789 q 363 786 366 786 q 352 793 356 786 l 307 859 q 302 869 302 864 q 309 879 302 873 l 549 1061 q 558 1065 553 1065 q 568 1059 563 1065 l 631 970 q 635 960 635 965 q 629 950 635 954 l 372 790 z "},"Ô":{"ha":986,"x_min":41,"x_max":945,"o":"m 493 -26 q 384 -17 439 -26 q 279 16 330 -7 q 186 77 229 39 q 110 173 142 115 q 60 308 78 230 q 41 490 41 387 q 60 672 41 593 q 110 808 78 751 q 186 903 142 865 q 279 964 229 941 q 384 996 330 987 q 493 1006 439 1006 q 602 996 547 1006 q 707 964 657 987 q 801 903 758 941 q 876 808 844 865 q 926 672 908 751 q 945 490 945 593 q 926 309 945 387 q 876 173 908 230 q 801 77 844 115 q 707 16 758 39 q 602 -17 657 -7 q 493 -26 547 -26 m 554 490 q 567 349 554 406 q 600 257 579 292 q 647 208 621 222 q 701 193 673 193 q 755 208 729 193 q 803 257 782 222 q 836 349 823 292 q 848 490 848 406 q 836 632 848 575 q 803 724 823 689 q 755 773 782 758 q 701 787 729 787 q 647 773 673 787 q 600 724 621 758 q 567 632 579 689 q 554 490 554 575 m 493 1177 l 341 1069 q 336 1067 338 1068 q 332 1065 334 1065 q 321 1072 326 1065 l 275 1132 q 271 1141 271 1137 q 277 1152 271 1146 l 484 1326 q 488 1329 486 1328 q 493 1331 490 1331 q 498 1329 496 1331 q 503 1326 500 1328 l 709 1152 q 715 1141 715 1146 q 711 1132 715 1137 l 665 1072 q 654 1065 660 1065 q 650 1067 652 1065 q 645 1069 648 1068 l 493 1177 z "},"ô":{"ha":908,"x_min":36,"x_max":872,"o":"m 454 -24 q 353 -16 404 -24 q 255 10 302 -7 q 169 56 209 28 q 99 126 129 85 q 53 222 70 168 q 36 347 36 277 q 53 471 36 416 q 99 567 70 526 q 169 637 129 608 q 255 684 209 666 q 353 710 302 702 q 454 718 404 718 q 550 712 501 718 q 646 691 600 707 q 733 650 692 676 q 805 583 774 624 q 854 486 836 543 q 872 353 872 429 q 854 215 872 274 q 806 115 837 157 q 734 46 775 73 q 647 4 694 19 q 551 -18 601 -12 q 454 -24 502 -24 m 663 139 q 704 148 684 139 q 741 181 725 157 q 767 247 757 205 q 777 353 777 288 q 767 453 777 414 q 741 515 757 492 q 704 547 724 538 q 663 555 684 555 q 626 549 646 555 q 589 520 606 542 q 560 457 572 498 q 549 347 549 416 q 558 237 549 279 q 583 174 568 196 q 620 146 599 153 q 663 139 640 139 m 454 897 l 302 790 q 297 787 299 789 q 293 786 295 786 q 281 793 286 786 l 236 852 q 232 862 232 857 q 238 872 232 867 l 444 1047 q 448 1050 446 1048 q 454 1051 450 1051 q 459 1050 457 1051 q 463 1047 461 1048 l 669 872 q 675 862 675 867 q 671 852 675 857 l 626 793 q 614 786 621 786 q 610 787 612 786 q 606 790 608 789 l 454 897 z "},"Õ":{"ha":986,"x_min":41,"x_max":945,"o":"m 493 -26 q 384 -17 439 -26 q 279 16 330 -7 q 186 77 229 39 q 110 173 142 115 q 60 308 78 230 q 41 490 41 387 q 60 672 41 593 q 110 808 78 751 q 186 903 142 865 q 279 964 229 941 q 384 996 330 987 q 493 1006 439 1006 q 602 996 547 1006 q 707 964 657 987 q 801 903 758 941 q 876 808 844 865 q 926 672 908 751 q 945 490 945 593 q 926 309 945 387 q 876 173 908 230 q 801 77 844 115 q 707 16 758 39 q 602 -17 657 -7 q 493 -26 547 -26 m 554 490 q 567 349 554 406 q 600 257 579 292 q 647 208 621 222 q 701 193 673 193 q 755 208 729 193 q 803 257 782 222 q 836 349 823 292 q 848 490 848 406 q 836 632 848 575 q 803 724 823 689 q 755 773 782 758 q 701 787 729 787 q 647 773 673 787 q 600 724 621 758 q 567 632 579 689 q 554 490 554 575 m 710 1285 q 721 1278 720 1285 q 720 1264 722 1272 q 703 1198 715 1230 q 674 1144 692 1167 q 634 1106 657 1120 q 584 1093 612 1093 q 536 1103 559 1093 q 491 1125 512 1113 q 452 1147 469 1137 q 422 1158 434 1158 q 398 1153 407 1158 q 383 1140 389 1148 q 375 1121 377 1132 q 371 1100 372 1111 q 367 1094 370 1096 q 349 1093 363 1093 l 281 1093 q 272 1095 274 1093 q 269 1102 269 1098 q 270 1110 269 1106 q 271 1116 271 1114 q 286 1180 275 1149 q 315 1233 298 1211 q 356 1270 333 1256 q 407 1283 379 1283 q 455 1273 431 1283 q 500 1251 479 1263 q 539 1229 522 1239 q 568 1219 557 1219 q 593 1224 584 1219 q 609 1237 603 1229 q 617 1256 614 1245 q 621 1278 619 1266 q 624 1283 621 1282 q 637 1285 627 1285 l 710 1285 z "},"õ":{"ha":908,"x_min":36,"x_max":872,"o":"m 454 -24 q 353 -16 404 -24 q 255 10 302 -7 q 169 56 209 28 q 99 126 129 85 q 53 222 70 168 q 36 347 36 277 q 53 471 36 416 q 99 567 70 526 q 169 637 129 608 q 255 684 209 666 q 353 710 302 702 q 454 718 404 718 q 550 712 501 718 q 646 691 600 707 q 733 650 692 676 q 805 583 774 624 q 854 486 836 543 q 872 353 872 429 q 854 215 872 274 q 806 115 837 157 q 734 46 775 73 q 647 4 694 19 q 551 -18 601 -12 q 454 -24 502 -24 m 663 139 q 704 148 684 139 q 741 181 725 157 q 767 247 757 205 q 777 353 777 288 q 767 453 777 414 q 741 515 757 492 q 704 547 724 538 q 663 555 684 555 q 626 549 646 555 q 589 520 606 542 q 560 457 572 498 q 549 347 549 416 q 558 237 549 279 q 583 174 568 196 q 620 146 599 153 q 663 139 640 139 m 671 1006 q 681 999 680 1006 q 681 985 682 992 q 664 919 675 950 q 635 864 652 888 q 595 827 618 841 q 545 813 572 813 q 496 823 520 813 q 451 846 473 833 q 412 868 430 858 q 383 878 395 878 q 358 873 368 878 q 343 861 349 869 q 335 842 338 852 q 332 821 333 831 q 327 815 331 817 q 309 813 323 813 l 241 813 q 232 816 235 813 q 230 823 230 819 q 230 830 229 827 q 231 836 231 834 q 247 901 235 870 q 276 954 258 931 q 317 990 294 977 q 368 1004 340 1004 q 416 994 392 1004 q 461 971 439 983 q 500 949 482 960 q 529 939 517 939 q 554 944 545 939 q 569 958 564 949 q 577 976 575 966 q 581 998 580 987 q 585 1004 582 1002 q 598 1006 587 1006 l 671 1006 z "},"Ö":{"ha":986,"x_min":41,"x_max":945,"o":"m 493 -26 q 384 -17 439 -26 q 279 16 330 -7 q 186 77 229 39 q 110 173 142 115 q 60 308 78 230 q 41 490 41 387 q 60 672 41 593 q 110 808 78 751 q 186 903 142 865 q 279 964 229 941 q 384 996 330 987 q 493 1006 439 1006 q 602 996 547 1006 q 707 964 657 987 q 801 903 758 941 q 876 808 844 865 q 926 672 908 751 q 945 490 945 593 q 926 309 945 387 q 876 173 908 230 q 801 77 844 115 q 707 16 758 39 q 602 -17 657 -7 q 493 -26 547 -26 m 554 490 q 567 349 554 406 q 600 257 579 292 q 647 208 621 222 q 701 193 673 193 q 755 208 729 193 q 803 257 782 222 q 836 349 823 292 q 848 490 848 406 q 836 632 848 575 q 803 724 823 689 q 755 773 782 758 q 701 787 729 787 q 647 773 673 787 q 600 724 621 758 q 567 632 579 689 q 554 490 554 575 m 271 1181 q 278 1216 271 1200 q 297 1244 286 1232 q 326 1263 309 1256 q 360 1270 342 1270 q 395 1263 378 1270 q 423 1244 411 1256 q 442 1216 435 1232 q 449 1181 449 1200 q 442 1147 449 1163 q 423 1119 435 1131 q 395 1100 411 1107 q 360 1093 378 1093 q 326 1100 342 1093 q 297 1119 309 1107 q 278 1147 286 1131 q 271 1181 271 1163 m 537 1181 q 544 1216 537 1200 q 563 1244 551 1232 q 591 1263 575 1256 q 626 1270 608 1270 q 661 1263 644 1270 q 689 1244 677 1256 q 708 1216 701 1232 q 715 1181 715 1200 q 708 1147 715 1163 q 689 1119 701 1131 q 661 1100 677 1107 q 626 1093 644 1093 q 591 1100 608 1093 q 563 1119 575 1107 q 544 1147 551 1131 q 537 1181 537 1163 z "},"ö":{"ha":908,"x_min":36,"x_max":872,"o":"m 454 -24 q 353 -16 404 -24 q 255 10 302 -7 q 169 56 209 28 q 99 126 129 85 q 53 222 70 168 q 36 347 36 277 q 53 471 36 416 q 99 567 70 526 q 169 637 129 608 q 255 684 209 666 q 353 710 302 702 q 454 718 404 718 q 550 712 501 718 q 646 691 600 707 q 733 650 692 676 q 805 583 774 624 q 854 486 836 543 q 872 353 872 429 q 854 215 872 274 q 806 115 837 157 q 734 46 775 73 q 647 4 694 19 q 551 -18 601 -12 q 454 -24 502 -24 m 663 139 q 704 148 684 139 q 741 181 725 157 q 767 247 757 205 q 777 353 777 288 q 767 453 777 414 q 741 515 757 492 q 704 547 724 538 q 663 555 684 555 q 626 549 646 555 q 589 520 606 542 q 560 457 572 498 q 549 347 549 416 q 558 237 549 279 q 583 174 568 196 q 620 146 599 153 q 663 139 640 139 m 232 902 q 239 937 232 920 q 258 965 246 953 q 286 984 270 977 q 321 991 302 991 q 355 984 339 991 q 384 965 372 977 q 402 937 395 953 q 410 902 410 920 q 402 867 410 884 q 384 839 395 851 q 355 820 372 827 q 321 813 339 813 q 286 820 302 813 q 258 839 270 827 q 239 867 246 851 q 232 902 232 884 m 498 902 q 505 937 498 920 q 524 965 512 953 q 552 984 536 977 q 587 991 568 991 q 621 984 605 991 q 649 965 637 977 q 668 937 661 953 q 675 902 675 920 q 668 867 675 884 q 649 839 661 851 q 621 820 637 827 q 587 813 605 813 q 552 820 568 813 q 524 839 536 827 q 505 867 512 851 q 498 902 498 884 z "},"Ō":{"ha":986,"x_min":41,"x_max":945,"o":"m 493 -26 q 384 -17 439 -26 q 279 16 330 -7 q 186 77 229 39 q 110 173 142 115 q 60 308 78 230 q 41 490 41 387 q 60 672 41 593 q 110 808 78 751 q 186 903 142 865 q 279 964 229 941 q 384 996 330 987 q 493 1006 439 1006 q 602 996 547 1006 q 707 964 657 987 q 801 903 758 941 q 876 808 844 865 q 926 672 908 751 q 945 490 945 593 q 926 309 945 387 q 876 173 908 230 q 801 77 844 115 q 707 16 758 39 q 602 -17 657 -7 q 493 -26 547 -26 m 554 490 q 567 349 554 406 q 600 257 579 292 q 647 208 621 222 q 701 193 673 193 q 755 208 729 193 q 803 257 782 222 q 836 349 823 292 q 848 490 848 406 q 836 632 848 575 q 803 724 823 689 q 755 773 782 758 q 701 787 729 787 q 647 773 673 787 q 600 724 621 758 q 567 632 579 689 q 554 490 554 575 m 314 1110 q 300 1125 300 1110 l 300 1234 q 314 1248 300 1248 l 675 1248 q 689 1234 689 1248 l 689 1125 q 675 1110 689 1110 l 314 1110 z "},"ō":{"ha":908,"x_min":36,"x_max":872,"o":"m 454 -24 q 353 -16 404 -24 q 255 10 302 -7 q 169 56 209 28 q 99 126 129 85 q 53 222 70 168 q 36 347 36 277 q 53 471 36 416 q 99 567 70 526 q 169 637 129 608 q 255 684 209 666 q 353 710 302 702 q 454 718 404 718 q 550 712 501 718 q 646 691 600 707 q 733 650 692 676 q 805 583 774 624 q 854 486 836 543 q 872 353 872 429 q 854 215 872 274 q 806 115 837 157 q 734 46 775 73 q 647 4 694 19 q 551 -18 601 -12 q 454 -24 502 -24 m 663 139 q 704 148 684 139 q 741 181 725 157 q 767 247 757 205 q 777 353 777 288 q 767 453 777 414 q 741 515 757 492 q 704 547 724 538 q 663 555 684 555 q 626 549 646 555 q 589 520 606 542 q 560 457 572 498 q 549 347 549 416 q 558 237 549 279 q 583 174 568 196 q 620 146 599 153 q 663 139 640 139 m 276 832 q 262 847 262 832 l 262 956 q 276 970 262 970 l 637 970 q 651 956 651 970 l 651 847 q 637 832 651 832 l 276 832 z "},"Ŏ":{"ha":986,"x_min":41,"x_max":945,"o":"m 493 -26 q 384 -17 439 -26 q 279 16 330 -7 q 186 77 229 39 q 110 173 142 115 q 60 308 78 230 q 41 490 41 387 q 60 672 41 593 q 110 808 78 751 q 186 903 142 865 q 279 964 229 941 q 384 996 330 987 q 493 1006 439 1006 q 602 996 547 1006 q 707 964 657 987 q 801 903 758 941 q 876 808 844 865 q 926 672 908 751 q 945 490 945 593 q 926 309 945 387 q 876 173 908 230 q 801 77 844 115 q 707 16 758 39 q 602 -17 657 -7 q 493 -26 547 -26 m 554 490 q 567 349 554 406 q 600 257 579 292 q 647 208 621 222 q 701 193 673 193 q 755 208 729 193 q 803 257 782 222 q 836 349 823 292 q 848 490 848 406 q 836 632 848 575 q 803 724 823 689 q 755 773 782 758 q 701 787 729 787 q 647 773 673 787 q 600 724 621 758 q 567 632 579 689 q 554 490 554 575 m 494 1198 q 538 1206 521 1198 q 566 1225 555 1214 q 582 1249 576 1236 q 590 1268 587 1261 q 596 1283 593 1277 q 608 1290 599 1290 l 689 1290 q 700 1285 696 1290 q 703 1278 703 1281 q 683 1180 703 1219 q 632 1119 663 1142 q 565 1087 602 1096 q 494 1078 528 1078 q 424 1087 460 1078 q 357 1119 387 1096 q 306 1180 326 1142 q 286 1278 286 1219 q 289 1285 286 1281 q 300 1290 292 1290 l 380 1290 q 393 1283 390 1290 q 399 1268 395 1277 q 407 1249 401 1261 q 423 1225 412 1236 q 451 1206 433 1214 q 494 1198 468 1198 z "},"ŏ":{"ha":908,"x_min":36,"x_max":872,"o":"m 454 -24 q 353 -16 404 -24 q 255 10 302 -7 q 169 56 209 28 q 99 126 129 85 q 53 222 70 168 q 36 347 36 277 q 53 471 36 416 q 99 567 70 526 q 169 637 129 608 q 255 684 209 666 q 353 710 302 702 q 454 718 404 718 q 550 712 501 718 q 646 691 600 707 q 733 650 692 676 q 805 583 774 624 q 854 486 836 543 q 872 353 872 429 q 854 215 872 274 q 806 115 837 157 q 734 46 775 73 q 647 4 694 19 q 551 -18 601 -12 q 454 -24 502 -24 m 663 139 q 704 148 684 139 q 741 181 725 157 q 767 247 757 205 q 777 353 777 288 q 767 453 777 414 q 741 515 757 492 q 704 547 724 538 q 663 555 684 555 q 626 549 646 555 q 589 520 606 542 q 560 457 572 498 q 549 347 549 416 q 558 237 549 279 q 583 174 568 196 q 620 146 599 153 q 663 139 640 139 m 456 920 q 500 928 483 920 q 528 947 517 936 q 544 970 538 958 q 552 990 549 983 q 558 1005 555 999 q 570 1012 561 1012 l 651 1012 q 662 1007 659 1012 q 665 1000 665 1003 q 645 902 665 941 q 594 841 625 864 q 527 809 564 818 q 456 800 490 800 q 386 809 422 800 q 319 841 349 818 q 268 902 288 864 q 248 1000 248 941 q 251 1007 248 1003 q 262 1012 254 1012 l 342 1012 q 355 1005 352 1012 q 361 990 357 999 q 369 970 363 983 q 385 947 374 958 q 413 928 395 936 q 456 920 430 920 z "},"Ő":{"ha":986,"x_min":41,"x_max":945,"o":"m 493 -26 q 384 -17 439 -26 q 279 16 330 -7 q 186 77 229 39 q 110 173 142 115 q 60 308 78 230 q 41 490 41 387 q 60 672 41 593 q 110 808 78 751 q 186 903 142 865 q 279 964 229 941 q 384 996 330 987 q 493 1006 439 1006 q 602 996 547 1006 q 707 964 657 987 q 801 903 758 941 q 876 808 844 865 q 926 672 908 751 q 945 490 945 593 q 926 309 945 387 q 876 173 908 230 q 801 77 844 115 q 707 16 758 39 q 602 -17 657 -7 q 493 -26 547 -26 m 554 490 q 567 349 554 406 q 600 257 579 292 q 647 208 621 222 q 701 193 673 193 q 755 208 729 193 q 803 257 782 222 q 836 349 823 292 q 848 490 848 406 q 836 632 848 575 q 803 724 823 689 q 755 773 782 758 q 701 787 729 787 q 647 773 673 787 q 600 724 621 758 q 567 632 579 689 q 554 490 554 575 m 368 1071 q 363 1066 365 1067 q 357 1064 361 1064 q 348 1068 353 1064 l 299 1109 q 292 1120 292 1114 q 296 1129 292 1124 l 441 1329 q 452 1336 447 1336 q 461 1332 456 1336 l 532 1274 q 539 1262 539 1267 q 536 1254 539 1259 l 368 1071 m 592 1071 q 587 1066 589 1067 q 581 1064 585 1064 q 572 1068 576 1064 l 523 1109 q 516 1120 516 1114 q 519 1129 516 1124 l 665 1329 q 676 1336 671 1336 q 685 1332 680 1336 l 755 1274 q 763 1262 763 1267 q 760 1254 763 1259 l 592 1071 z "},"ő":{"ha":908,"x_min":36,"x_max":872,"o":"m 454 -24 q 353 -16 404 -24 q 255 10 302 -7 q 169 56 209 28 q 99 126 129 85 q 53 222 70 168 q 36 347 36 277 q 53 471 36 416 q 99 567 70 526 q 169 637 129 608 q 255 684 209 666 q 353 710 302 702 q 454 718 404 718 q 550 712 501 718 q 646 691 600 707 q 733 650 692 676 q 805 583 774 624 q 854 486 836 543 q 872 353 872 429 q 854 215 872 274 q 806 115 837 157 q 734 46 775 73 q 647 4 694 19 q 551 -18 601 -12 q 454 -24 502 -24 m 663 139 q 704 148 684 139 q 741 181 725 157 q 767 247 757 205 q 777 353 777 288 q 767 453 777 414 q 741 515 757 492 q 704 547 724 538 q 663 555 684 555 q 626 549 646 555 q 589 520 606 542 q 560 457 572 498 q 549 347 549 416 q 558 237 549 279 q 583 174 568 196 q 620 146 599 153 q 663 139 640 139 m 330 793 q 325 788 327 789 q 319 786 323 786 q 310 790 315 786 l 261 831 q 254 842 254 836 q 258 851 254 846 l 404 1051 q 414 1058 409 1058 q 423 1054 418 1058 l 494 996 q 501 984 501 989 q 498 976 501 981 l 330 793 m 554 793 q 549 788 551 789 q 543 786 547 786 q 534 790 538 786 l 485 831 q 478 842 478 836 q 481 851 478 846 l 627 1051 q 638 1058 633 1058 q 647 1054 642 1058 l 718 996 q 725 984 725 989 q 722 976 725 981 l 554 793 z "},"Ø":{"ha":1000,"x_min":41,"x_max":1029,"o":"m 903 751 q 933 635 922 699 q 945 490 945 570 q 926 309 945 387 q 876 173 908 230 q 801 77 844 115 q 707 16 758 39 q 602 -17 657 -7 q 493 -26 547 -26 q 441 -24 467 -26 l 328 -217 q 313 -226 323 -226 q 302 -222 307 -226 l 256 -191 q 251 -185 253 -188 q 248 -176 248 -182 q 252 -164 248 -172 l 345 -8 q 228 43 283 8 q 132 138 173 79 q 66 284 90 197 q 41 490 41 370 q 60 672 41 593 q 110 808 78 751 q 186 903 142 865 q 279 964 229 941 q 384 996 330 987 q 493 1006 439 1006 q 592 998 543 1006 q 689 971 642 990 q 777 922 736 953 q 852 846 819 891 l 949 1009 q 962 1018 954 1018 q 973 1015 968 1018 l 1021 983 q 1029 970 1029 978 q 1025 958 1029 964 l 903 751 m 848 490 q 845 571 848 535 q 835 637 841 607 l 604 250 q 650 206 625 219 q 701 193 675 193 q 755 208 729 193 q 803 257 782 222 q 836 349 823 292 q 848 490 848 406 m 554 490 q 564 361 554 415 l 790 742 q 748 777 770 766 q 701 787 725 787 q 647 773 673 787 q 600 724 621 758 q 567 632 579 689 q 554 490 554 575 z "},"ø":{"ha":908,"x_min":36,"x_max":943,"o":"m 830 545 q 861 460 850 507 q 872 353 872 412 q 857 223 872 279 q 814 126 841 167 q 750 57 787 85 q 671 13 713 30 q 584 -13 629 -5 q 492 -23 538 -21 l 377 -217 q 363 -226 372 -226 q 352 -222 356 -226 l 306 -191 q 300 -185 302 -188 q 298 -176 298 -182 q 302 -164 298 -172 l 387 -20 q 298 -4 342 -16 q 215 27 254 7 q 143 77 176 47 q 87 145 111 106 q 50 235 63 184 q 36 347 36 285 q 53 471 36 416 q 99 567 70 526 q 169 637 129 608 q 255 684 209 666 q 353 710 302 702 q 454 718 404 718 q 537 714 495 718 q 621 699 580 709 q 700 669 662 688 q 769 623 737 651 l 862 779 q 876 787 867 787 q 886 784 881 787 l 935 753 q 943 740 943 747 q 939 727 943 734 l 830 545 m 663 139 q 704 148 684 139 q 741 181 725 157 q 767 247 757 205 q 777 353 777 288 q 774 401 777 379 q 769 441 772 423 l 600 157 q 629 142 613 146 q 663 139 645 139 m 549 347 q 550 300 549 321 q 554 260 551 278 l 719 537 q 691 551 705 547 q 663 555 677 555 q 627 549 646 555 q 590 520 607 542 q 561 457 572 498 q 549 347 549 416 z "},"Ǿ":{"ha":1000,"x_min":41,"x_max":1029,"o":"m 903 751 q 933 635 922 699 q 945 490 945 570 q 926 309 945 387 q 876 173 908 230 q 801 77 844 115 q 707 16 758 39 q 602 -17 657 -7 q 493 -26 547 -26 q 441 -24 467 -26 l 328 -217 q 313 -226 323 -226 q 302 -222 307 -226 l 256 -191 q 251 -185 253 -188 q 248 -176 248 -182 q 252 -164 248 -172 l 345 -8 q 228 43 283 8 q 132 138 173 79 q 66 284 90 197 q 41 490 41 370 q 60 672 41 593 q 110 808 78 751 q 186 903 142 865 q 279 964 229 941 q 384 996 330 987 q 493 1006 439 1006 q 592 998 543 1006 q 689 971 642 990 q 777 922 736 953 q 852 846 819 891 l 949 1009 q 962 1018 954 1018 q 973 1015 968 1018 l 1021 983 q 1029 970 1029 978 q 1025 958 1029 964 l 903 751 m 848 490 q 845 571 848 535 q 835 637 841 607 l 604 250 q 650 206 625 219 q 701 193 675 193 q 755 208 729 193 q 803 257 782 222 q 836 349 823 292 q 848 490 848 406 m 554 490 q 564 361 554 415 l 790 742 q 748 777 770 766 q 701 787 725 787 q 647 773 673 787 q 600 724 621 758 q 567 632 579 689 q 554 490 554 575 m 434 1068 q 429 1065 431 1067 q 425 1064 427 1064 q 414 1071 418 1064 l 368 1137 q 364 1147 364 1142 q 370 1157 364 1152 l 610 1339 q 620 1343 615 1343 q 630 1337 625 1343 l 692 1249 q 697 1238 697 1243 q 691 1228 697 1232 l 434 1068 z "},"ǿ":{"ha":908,"x_min":36,"x_max":943,"o":"m 830 545 q 861 460 850 507 q 872 353 872 412 q 857 223 872 279 q 814 126 841 167 q 750 57 787 85 q 671 13 713 30 q 584 -13 629 -5 q 492 -23 538 -21 l 377 -217 q 363 -226 372 -226 q 352 -222 356 -226 l 306 -191 q 300 -185 302 -188 q 298 -176 298 -182 q 302 -164 298 -172 l 387 -20 q 298 -4 342 -16 q 215 27 254 7 q 143 77 176 47 q 87 145 111 106 q 50 235 63 184 q 36 347 36 285 q 53 471 36 416 q 99 567 70 526 q 169 637 129 608 q 255 684 209 666 q 353 710 302 702 q 454 718 404 718 q 537 714 495 718 q 621 699 580 709 q 700 669 662 688 q 769 623 737 651 l 862 779 q 876 787 867 787 q 886 784 881 787 l 935 753 q 943 740 943 747 q 939 727 943 734 l 830 545 m 663 139 q 704 148 684 139 q 741 181 725 157 q 767 247 757 205 q 777 353 777 288 q 774 401 777 379 q 769 441 772 423 l 600 157 q 629 142 613 146 q 663 139 645 139 m 549 347 q 550 300 549 321 q 554 260 551 278 l 719 537 q 691 551 705 547 q 663 555 677 555 q 627 549 646 555 q 590 520 607 542 q 561 457 572 498 q 549 347 549 416 m 391 790 q 387 787 389 789 q 382 786 385 786 q 371 793 375 786 l 326 859 q 321 869 321 864 q 328 879 321 873 l 568 1061 q 577 1065 572 1065 q 587 1059 582 1065 l 650 970 q 654 960 654 965 q 648 950 654 954 l 391 790 z "},"Œ":{"ha":1503,"x_min":41,"x_max":1476,"o":"m 1436 730 q 1451 716 1451 730 l 1451 648 q 1436 633 1451 633 l 1184 633 l 1184 83 q 1303 100 1249 93 q 1349 107 1326 104 q 1391 113 1371 110 q 1425 117 1411 115 q 1446 118 1440 118 q 1468 114 1459 118 q 1476 96 1476 109 l 1476 33 q 1468 11 1476 21 q 1438 0 1461 0 l 922 0 q 882 4 897 0 q 860 17 867 8 q 850 42 852 26 q 848 79 848 57 l 848 130 q 774 55 815 85 q 687 7 733 25 q 591 -19 641 -11 q 493 -26 542 -26 q 384 -17 439 -26 q 279 16 330 -7 q 186 77 229 39 q 110 173 142 115 q 60 308 78 230 q 41 490 41 387 q 60 672 41 593 q 110 808 78 751 q 186 903 142 865 q 279 964 229 941 q 384 996 330 987 q 493 1006 439 1006 q 591 998 542 1006 q 687 973 641 991 q 774 925 733 955 q 848 850 815 895 l 848 890 q 853 932 848 916 q 869 958 858 949 q 900 970 881 967 q 946 974 918 974 l 1417 974 q 1435 971 1428 974 q 1445 963 1442 968 q 1450 952 1449 958 q 1451 940 1451 946 l 1451 892 q 1444 874 1451 878 q 1426 869 1438 869 q 1407 871 1420 869 q 1376 874 1394 872 q 1336 880 1358 877 q 1294 886 1315 882 q 1184 903 1244 893 l 1184 730 l 1436 730 m 554 490 q 567 349 554 406 q 600 257 579 292 q 647 208 621 222 q 701 193 673 193 q 755 208 729 193 q 803 257 782 222 q 836 349 823 292 q 848 490 848 406 q 836 634 848 576 q 802 725 823 691 q 754 773 781 759 q 701 787 728 787 q 647 773 673 787 q 600 724 621 758 q 567 632 579 689 q 554 490 554 575 z "},"œ":{"ha":1267,"x_min":36,"x_max":1231,"o":"m 1135 370 q 1126 459 1135 424 q 1103 516 1118 495 q 1070 547 1089 538 q 1029 555 1050 555 q 996 549 1014 555 q 961 524 977 543 q 934 467 945 504 q 921 370 923 431 l 1135 370 m 1231 286 l 924 286 q 943 202 930 235 q 975 149 957 169 q 1014 121 994 129 q 1055 113 1035 113 q 1091 118 1075 113 q 1119 130 1107 123 q 1138 142 1131 137 q 1149 148 1145 148 q 1160 140 1154 148 l 1184 100 q 1187 95 1185 97 q 1188 90 1188 92 q 1185 82 1188 85 q 1179 78 1181 79 q 1127 41 1158 60 q 1060 9 1097 23 q 979 -15 1023 -5 q 889 -24 936 -24 q 824 -19 854 -24 q 770 -7 794 -14 q 727 8 745 0 q 696 24 708 16 q 592 -11 653 2 q 454 -24 530 -24 q 353 -16 404 -24 q 255 10 302 -7 q 169 56 209 28 q 99 126 129 85 q 53 222 70 168 q 36 347 36 277 q 53 471 36 416 q 99 567 70 526 q 169 637 129 608 q 255 684 209 666 q 353 710 302 702 q 454 718 404 718 q 528 715 494 718 q 591 705 562 711 q 646 690 621 699 q 696 671 672 681 q 734 688 714 680 q 779 703 755 696 q 833 714 804 710 q 899 718 862 718 q 966 711 930 718 q 1040 688 1003 705 q 1111 645 1077 672 q 1172 575 1145 617 q 1215 476 1199 534 q 1231 343 1231 419 l 1231 286 m 663 139 q 704 148 684 139 q 741 181 725 157 q 767 247 757 205 q 777 353 777 288 q 767 453 777 414 q 741 515 757 492 q 704 547 724 538 q 663 555 684 555 q 627 549 646 555 q 590 520 607 542 q 561 457 572 498 q 549 347 549 416 q 558 237 549 279 q 583 174 568 196 q 620 146 599 153 q 663 139 640 139 z "},"Þ":{"ha":878,"x_min":62,"x_max":850,"o":"m 62 879 q 66 920 62 903 q 82 950 71 938 q 114 968 94 962 q 167 974 134 974 l 469 974 q 520 968 500 974 q 550 951 540 962 q 565 922 561 939 q 568 880 568 904 l 568 785 q 677 759 626 777 q 767 708 728 741 q 827 625 805 675 q 850 504 850 575 q 827 363 850 420 q 766 269 804 306 q 676 212 727 232 q 568 184 625 192 l 568 90 q 565 50 568 67 q 551 22 562 33 q 523 5 541 11 q 477 0 505 0 l 153 0 q 108 6 125 0 q 81 24 91 12 q 66 53 71 35 q 62 94 62 71 l 62 879 m 754 494 q 743 569 754 535 q 710 629 732 603 q 652 672 688 655 q 568 695 617 689 l 568 273 q 652 301 617 281 q 710 350 688 321 q 743 416 732 379 q 754 494 754 453 z "},"þ":{"ha":895,"x_min":62,"x_max":859,"o":"m 62 1017 q 66 1058 62 1040 q 82 1087 71 1076 q 114 1105 94 1099 q 167 1111 134 1111 l 466 1111 q 541 1086 519 1111 q 562 1013 562 1062 l 562 701 q 676 666 622 690 q 770 600 730 642 q 835 497 811 558 q 859 351 859 435 q 834 204 859 266 q 769 100 810 142 q 675 34 728 58 q 562 0 621 9 l 562 -184 q 558 -227 562 -209 q 544 -256 554 -244 q 514 -274 533 -268 q 464 -279 494 -279 l 167 -279 q 114 -273 134 -279 q 82 -255 94 -267 q 66 -226 71 -243 q 62 -184 62 -208 l 62 1017 m 762 352 q 751 449 762 404 q 715 528 739 494 q 653 585 690 563 q 562 613 615 607 l 562 87 q 653 116 615 94 q 715 174 690 138 q 751 254 739 209 q 762 352 762 300 z "},"Ŕ":{"ha":897,"x_min":62,"x_max":883,"o":"m 676 184 q 624 161 650 170 q 568 145 597 151 l 568 94 q 564 55 568 73 q 547 26 559 38 q 516 7 535 14 q 467 0 496 0 l 167 0 q 114 6 134 0 q 82 24 94 12 q 66 53 71 35 q 62 94 62 71 l 62 879 q 66 920 62 903 q 82 950 71 938 q 114 968 94 962 q 167 974 134 974 l 469 974 q 565 966 518 974 q 655 940 612 958 q 733 892 697 922 q 794 818 768 862 q 835 716 821 774 q 850 582 850 658 q 842 464 850 517 q 819 368 833 411 q 785 293 805 326 q 741 235 765 260 l 876 56 q 883 37 883 46 q 876 20 883 27 q 861 7 869 12 l 820 -16 q 810 -21 815 -19 q 800 -22 805 -22 q 785 -18 792 -22 q 771 -1 777 -13 l 676 184 m 754 570 q 743 682 754 631 q 710 773 732 734 q 652 838 688 812 q 568 873 617 864 l 568 234 q 652 274 617 245 q 710 346 688 302 q 743 446 732 389 q 754 570 754 503 m 345 1040 q 340 1038 342 1039 q 336 1036 338 1036 q 324 1043 328 1036 l 279 1109 q 275 1119 275 1114 q 281 1129 275 1124 l 521 1311 q 530 1315 526 1315 q 541 1309 535 1315 l 603 1221 q 608 1211 608 1215 q 602 1200 608 1204 l 345 1040 z "},"ŕ":{"ha":753,"x_min":62,"x_max":804,"o":"m 62 600 q 66 641 62 623 q 82 671 71 659 q 114 688 94 682 q 167 694 134 694 l 464 694 q 514 688 495 694 q 544 670 533 682 q 558 640 555 658 q 562 597 562 621 l 562 547 l 713 693 q 741 707 728 707 q 754 704 748 707 q 764 697 760 701 l 794 665 q 804 643 804 655 q 800 628 804 635 q 786 612 795 620 l 562 439 l 562 96 q 559 54 562 72 q 544 24 555 36 q 511 6 532 12 q 452 0 489 0 l 167 0 q 114 6 134 0 q 82 24 94 12 q 66 53 71 35 q 62 94 62 71 l 62 600 m 251 790 q 246 787 248 789 q 242 786 244 786 q 231 793 235 786 l 185 859 q 181 869 181 864 q 187 879 181 873 l 427 1061 q 437 1065 432 1065 q 447 1059 441 1065 l 509 970 q 514 960 514 965 q 508 950 514 954 l 251 790 z "},"Ŗ":{"ha":897,"x_min":62,"x_max":883,"o":"m 676 184 q 624 161 650 170 q 568 145 597 151 l 568 94 q 564 55 568 73 q 547 26 559 38 q 516 7 535 14 q 467 0 496 0 l 167 0 q 114 6 134 0 q 82 24 94 12 q 66 53 71 35 q 62 94 62 71 l 62 879 q 66 920 62 903 q 82 950 71 938 q 114 968 94 962 q 167 974 134 974 l 469 974 q 565 966 518 974 q 655 940 612 958 q 733 892 697 922 q 794 818 768 862 q 835 716 821 774 q 850 582 850 658 q 842 464 850 517 q 819 368 833 411 q 785 293 805 326 q 741 235 765 260 l 876 56 q 883 37 883 46 q 876 20 883 27 q 861 7 869 12 l 820 -16 q 810 -21 815 -19 q 800 -22 805 -22 q 785 -18 792 -22 q 771 -1 777 -13 l 676 184 m 754 570 q 743 682 754 631 q 710 773 732 734 q 652 838 688 812 q 568 873 617 864 l 568 234 q 652 274 617 245 q 710 346 688 302 q 743 446 732 389 q 754 570 754 503 m 362 -170 q 369 -136 362 -152 q 388 -109 376 -121 q 415 -91 399 -98 q 448 -84 431 -84 q 481 -91 466 -84 q 509 -109 497 -98 q 527 -136 520 -121 q 534 -170 534 -152 q 531 -193 534 -181 q 524 -215 528 -205 l 475 -329 q 468 -343 471 -338 q 454 -347 465 -347 l 409 -347 q 398 -340 398 -347 q 401 -331 398 -338 l 435 -254 q 407 -244 420 -252 q 384 -225 394 -237 q 368 -200 374 -214 q 362 -170 362 -186 z "},"ŗ":{"ha":753,"x_min":62,"x_max":804,"o":"m 62 600 q 66 641 62 623 q 82 671 71 659 q 114 688 94 682 q 167 694 134 694 l 464 694 q 514 688 495 694 q 544 670 533 682 q 558 640 555 658 q 562 597 562 621 l 562 547 l 713 693 q 741 707 728 707 q 754 704 748 707 q 764 697 760 701 l 794 665 q 804 643 804 655 q 800 628 804 635 q 786 612 795 620 l 562 439 l 562 96 q 559 54 562 72 q 544 24 555 36 q 511 6 532 12 q 452 0 489 0 l 167 0 q 114 6 134 0 q 82 24 94 12 q 66 53 71 35 q 62 94 62 71 l 62 600 m 230 -170 q 237 -136 230 -152 q 255 -109 243 -121 q 283 -91 267 -98 q 316 -84 298 -84 q 349 -91 334 -84 q 376 -109 365 -98 q 395 -136 388 -121 q 401 -170 401 -152 q 398 -193 401 -181 q 391 -215 395 -205 l 342 -329 q 335 -343 338 -338 q 321 -347 332 -347 l 277 -347 q 266 -340 266 -347 q 269 -331 266 -338 l 303 -254 q 275 -244 288 -252 q 252 -225 262 -237 q 236 -200 241 -214 q 230 -170 230 -186 z "},"Ř":{"ha":897,"x_min":62,"x_max":883,"o":"m 676 184 q 624 161 650 170 q 568 145 597 151 l 568 94 q 564 55 568 73 q 547 26 559 38 q 516 7 535 14 q 467 0 496 0 l 167 0 q 114 6 134 0 q 82 24 94 12 q 66 53 71 35 q 62 94 62 71 l 62 879 q 66 920 62 903 q 82 950 71 938 q 114 968 94 962 q 167 974 134 974 l 469 974 q 565 966 518 974 q 655 940 612 958 q 733 892 697 922 q 794 818 768 862 q 835 716 821 774 q 850 582 850 658 q 842 464 850 517 q 819 368 833 411 q 785 293 805 326 q 741 235 765 260 l 876 56 q 883 37 883 46 q 876 20 883 27 q 861 7 869 12 l 820 -16 q 810 -21 815 -19 q 800 -22 805 -22 q 785 -18 792 -22 q 771 -1 777 -13 l 676 184 m 754 570 q 743 682 754 631 q 710 773 732 734 q 652 838 688 812 q 568 873 617 864 l 568 234 q 652 274 617 245 q 710 346 688 302 q 743 446 732 389 q 754 570 754 503 m 559 1297 q 564 1300 562 1299 q 568 1301 566 1301 q 580 1295 574 1301 l 625 1235 q 629 1225 629 1230 q 623 1215 629 1220 l 417 1040 q 413 1038 415 1039 q 408 1036 411 1036 q 402 1038 404 1036 q 398 1040 400 1039 l 192 1215 q 186 1225 186 1220 q 190 1235 186 1230 l 235 1295 q 241 1300 239 1299 q 247 1301 243 1301 q 251 1300 249 1301 q 256 1297 253 1299 l 408 1190 l 559 1297 z "},"ř":{"ha":753,"x_min":62,"x_max":804,"o":"m 62 600 q 66 641 62 623 q 82 671 71 659 q 114 688 94 682 q 167 694 134 694 l 464 694 q 514 688 495 694 q 544 670 533 682 q 558 640 555 658 q 562 597 562 621 l 562 547 l 713 693 q 741 707 728 707 q 754 704 748 707 q 764 697 760 701 l 794 665 q 804 643 804 655 q 800 628 804 635 q 786 612 795 620 l 562 439 l 562 96 q 559 54 562 72 q 544 24 555 36 q 511 6 532 12 q 452 0 489 0 l 167 0 q 114 6 134 0 q 82 24 94 12 q 66 53 71 35 q 62 94 62 71 l 62 600 m 466 1047 q 471 1050 469 1048 q 475 1051 473 1051 q 486 1044 481 1051 l 532 985 q 536 975 536 979 q 530 965 536 970 l 323 790 q 319 787 321 789 q 314 786 317 786 q 309 787 311 786 q 304 790 307 789 l 98 965 q 92 975 92 970 q 96 985 92 979 l 142 1044 q 148 1050 145 1048 q 153 1051 150 1051 q 157 1050 155 1051 q 162 1047 159 1048 l 314 940 l 466 1047 z "}}}
